<svg id="a57aef4a-ce94-47dd-bcbc-a8ca3f531ba7" data-name="Capa 1" xmlns="http://www.w3.org/2000/svg" viewBox="0 0 213.8 297"><path d="M117.5,0l41.6.9c10.5,14.3,15.6,35.4,15.6,64.2,0,37.5-8.6,82.8-23.9,125.9l-22.6-.1C144,148.5,153.4,101.7,153.4,65,153.4,14,136.4,2.4,117.5,0Z" fill="#fff"/><rect x="96.3" width="21.2" height="190.9" fill="#fff"/><path d="M54.7.8,96.3,0C77.4,2.4,60.4,14,60.4,65c0,36.7,9.4,83.5,25.2,125.9H63C47.8,147.8,39.1,102.5,39.1,65,39.1,36.2,44.2,15.2,54.7.8Z" fill="#fff"/><path d="M184.2,9.8c19.9,10.7,29.6,28.8,29.6,55.3,0,36.5-19,83.4-50.9,125.9H150.8c15.3-43.1,23.9-88.4,23.9-125.9,0-28.8-5.1-49.9-15.6-64.2A93.31,93.31,0,0,1,184.2,9.8Z"/><polygon points="159.4 206.3 148 240.4 134.6 240.4 146 206.3 159.4 206.3"/><path d="M155.8,255.2v33.7a8.13,8.13,0,0,1-8.1,8.1H66.1a8.13,8.13,0,0,1-8.1-8.1V255.2Z"/><path d="M153.4,65c0,36.7-9.4,83.5-25.2,125.9H117.5V0C136.4,2.4,153.4,14,153.4,65Z"/><rect x="100" y="206.3" width="13.8" height="34.1"/><path d="M96.3,0V190.9H85.6C69.8,148.5,60.4,101.7,60.4,65,60.4,14,77.4,2.4,96.3,0Z"/><polygon points="67.8 206.3 79.2 240.4 65.8 240.4 54.4 206.3 67.8 206.3"/><path d="M63,190.9H50.9C19,148.4,0,101.6,0,65,0,38.6,9.7,20.5,29.6,9.8A96.82,96.82,0,0,1,54.7.8C44.2,15.2,39.1,36.2,39.1,65,39.1,102.5,47.8,147.8,63,190.9Z"/></svg>