<?xml version="1.0" encoding="utf-8"?>
<!-- Generator: Adobe Illustrator 24.0.0, SVG Export Plug-In . SVG Version: 6.00 Build 0)  -->
<svg version="1.1" id="Capa_1" xmlns="http://www.w3.org/2000/svg" xmlns:xlink="http://www.w3.org/1999/xlink" x="0px" y="0px"
	 viewBox="0 0 297 297" style="enable-background:new 0 0 297 297;" xml:space="preserve">
<style type="text/css">
	.st0{fill:#FFFFFF;}
</style>
<g id="XMLID_1_">
	<path class="st0" d="M159.1,0l41.6,0.9c10.5,14.3,15.6,35.4,15.6,64.2c0,37.5-8.6,82.8-23.9,125.9l-22.6-0.1
		C185.6,148.5,195,101.7,195,65C195,14,178,2.4,159.1,0z"/>
	<rect x="137.9" class="st0" width="21.2" height="190.9"/>
	<path class="st0" d="M96.3,0.8L137.9,0C119,2.4,102,14,102,65c0,36.7,9.4,83.5,25.2,125.9h-22.6C89.4,147.8,80.7,102.5,80.7,65
		C80.7,36.2,85.8,15.2,96.3,0.8z"/>
	<path d="M225.8,9.8c19.9,10.7,29.6,28.8,29.6,55.3c0,36.5-19,83.4-50.9,125.9h-12.1c15.3-43.1,23.9-88.4,23.9-125.9
		c0-28.8-5.1-49.9-15.6-64.2C210.5,3,218.8,6,225.8,9.8z"/>
	<polygon points="201,206.3 189.6,240.4 176.2,240.4 187.6,206.3 	"/>
	<path d="M197.4,255.2v33.7c0,4.5-3.7,8.1-8.1,8.1h-81.6c-4.5,0-8.1-3.7-8.1-8.1v-33.7H197.4z"/>
	<path d="M195,65c0,36.7-9.4,83.5-25.2,125.9h-10.7V0C178,2.4,195,14,195,65z"/>
	<rect x="141.6" y="206.3" width="13.8" height="34.1"/>
	<path d="M137.9,0v190.9h-10.7C111.4,148.5,102,101.7,102,65C102,14,119,2.4,137.9,0z"/>
	<polygon points="109.4,206.3 120.8,240.4 107.4,240.4 96,206.3 	"/>
	<path d="M104.6,190.9H92.5C60.6,148.4,41.6,101.6,41.6,65c0-26.4,9.7-44.5,29.6-55.2c7-3.8,15.3-6.8,25.1-9
		C85.8,15.2,80.7,36.2,80.7,65C80.7,102.5,89.4,147.8,104.6,190.9z"/>
</g>
</svg>
