<svg id="a18a51ba-0f65-488d-80eb-82d21f8a6e7c" data-name="Calque 1" xmlns="http://www.w3.org/2000/svg" viewBox="0 0 509.52 509.86"><path d="M48,371l-3.3,4.2c-4.8,6.2-10.1,17.6-11.7,25.5-9.6,45.1,30.7,85.3,76,75.8,7.6-1.6,21.1-7.9,26.3-12.2l3.2-2.8-45.3-45.3Z" fill="none"/><path d="M381.55,199.93l-.3-30.9c-.3-29.4-.4-31-2.4-33.6a27.26,27.26,0,0,0-4.8-4.8c-2.6-2-4.2-2.1-33.6-2.4l-30.9-.3L231.45,232c-43,57.3-78.4,104.8-78.7,105.7-.8,2,16.6,19.5,18.8,19,.8-.2,48.4-35.6,105.8-78.6Z" fill="none"/><path d="M129.35,314.53c.6-.6,35.9-47.6,78.6-104.5l77.6-103.4-.3-32.2c-.3-30.8-.4-32.4-2.4-35a27.26,27.26,0,0,0-4.8-4.8c-2.6-2-4.2-2.1-28.4-2.3-28.1-.3-29.7,0-34.2,5.4-1.5,1.7-22.4,53.9-52.9,132.2l-50.4,129.2,8.1,8.2C125.55,312.53,128.75,315.13,129.35,314.53Z" fill="none"/><path d="M470.05,226.63c-2.6-2-4.2-2.1-35-2.4l-32.2-.3-103.4,77.6c-56.9,42.7-103.9,78-104.5,78.6s2,3.8,7.2,9.1l8.2,8.2,129.3-50.5c93.8-36.5,130.2-51.2,132.5-53.2,5-4.4,5.5-7.5,5.1-34.9C477,231.73,477,231.73,470.05,226.63Z" fill="none"/><path d="M477.25,258.83c.4,27.4-.1,30.5-5.1,34.9-2.3,2-38.7,16.7-132.5,53.2l-129.3,50.5-8.2-8.2c-5.2-5.3-7.8-8.5-7.2-9.1s47.6-35.9,104.5-78.6l103.4-77.6,32.2.3c30.8.3,32.4.4,35,2.4C477,231.73,477,231.73,477.25,258.83Z" fill="#fff"/><path d="M381.25,169l.3,30.9-104.2,78.2c-57.4,43-105,78.4-105.8,78.6-2.2.5-19.6-17-18.8-19,.3-.9,35.7-48.4,78.7-105.7l78.1-104.1,30.9.3c29.4.3,31,.4,33.6,2.4a27.26,27.26,0,0,1,4.8,4.8C380.85,138,381,139.63,381.25,169Z" fill="#fff"/><path d="M285.25,74.43l.3,32.2L208,210c-42.7,56.9-78,103.9-78.6,104.5s-3.8-2-9.1-7.2l-8.1-8.2,50.4-129.2c30.5-78.3,51.4-130.5,52.9-132.2,4.5-5.4,6.1-5.7,34.2-5.4,24.2.2,25.8.3,28.4,2.3a27.26,27.26,0,0,1,4.8,4.8C284.85,42,285,43.63,285.25,74.43Z" fill="#fff"/><path d="M184,416l-11.3,11.2-11.2,11.3-23,23-3.2,2.8c-5.2,4.3-18.7,10.6-26.3,12.2-45.3,9.5-85.6-30.7-76-75.8,1.6-7.9,6.9-19.3,11.7-25.5L48,371,70.28,348.6,82,337c6-6,11.2-11,11.5-11s20.8,20.2,45.5,45Z" fill="#fff"/><path d="M508,228.73c2.1,8,2.1,57.3,0,65.2-3.4,12.8-12.8,24.9-23.6,30.3-3,1.5-64.8,25.9-137.3,54.2l-131.9,51.5-30.1,29.9c-32.5,32.4-38.7,37.4-53.6,43.2-11.5,4.4-19.1,6-31.5,6.7-45.3,2.4-85.5-27.4-97.7-72.6-2.8-10.2-3-34.2-.5-44.5a106.74,106.74,0,0,1,11.6-28.1c3.9-6.8,9.3-12.7,35.5-39.2l30.8-31.2L132,160.33c28.7-73.7,53.4-135.8,54.9-138.2,5.9-9.3,17.2-17.4,28.7-20.5,7.9-2.1,57.2-2.2,65.2-.1a48.92,48.92,0,0,1,35.2,35c1.2,4.6,1.5,11.9,1.5,32.7V96h26.8c29,0,33.5.6,43.4,5.6,7.1,3.6,15.9,12.3,19.7,19.3,5.5,10.4,6.1,14.7,6.1,44.3V192h26.8c20.8,0,28.1.3,32.7,1.5A48.93,48.93,0,0,1,508,228.73Zm-35.8,65c5-4.4,5.5-7.5,5.1-34.9-.3-27.1-.3-27.1-7.2-32.2-2.6-2-4.2-2.1-35-2.4l-32.2-.3-103.4,77.6c-56.9,42.7-103.9,78-104.5,78.6s2,3.8,7.2,9.1l8.2,8.2,129.3-50.5C433.45,310.43,469.85,295.73,472.15,293.73Zm-90.6-93.8-.3-30.9c-.3-29.4-.4-31-2.4-33.6a27.26,27.26,0,0,0-4.8-4.8c-2.6-2-4.2-2.1-33.6-2.4l-30.9-.3L231.45,232c-43,57.3-78.4,104.8-78.7,105.7-.8,2,16.6,19.5,18.8,19,.8-.2,48.4-35.6,105.8-78.6Zm-96-93.3-.3-32.2c-.3-30.8-.4-32.4-2.4-35a27.26,27.26,0,0,0-4.8-4.8c-2.6-2-4.2-2.1-28.4-2.3-28.1-.3-29.7,0-34.2,5.4-1.5,1.7-22.4,53.9-52.9,132.2l-50.4,129.2,8.1,8.2c5.3,5.2,8.5,7.8,9.1,7.2s35.9-47.6,78.6-104.5Zm-112.9,320.6L184,416l-45-45c-24.7-24.8-45.2-45-45.5-45S88,331,82,337L70.28,348.6,48,371l-3.3,4.2c-4.8,6.2-10.1,17.6-11.7,25.5-9.6,45.1,30.7,85.3,76,75.8,7.6-1.6,21.1-7.9,26.3-12.2l3.2-2.8,23-23Z"/></svg>