<svg xmlns="http://www.w3.org/2000/svg" viewBox="0 0 509.52116 509.86094"><defs><style>.a{fill:none;}.b{fill:#fff;}</style></defs><title>badminton</title><path class="a" d="M50.5,371l-3.3,4.2c-4.8,6.2-10.1,17.6-11.7,25.5-9.6,45.1,30.7,85.3,76,75.8,7.6-1.6,21.1-7.9,26.3-12.2l3.2-2.8L95.7,416.2Z" transform="translate(-2.55384 0.02589)"/><path class="a" d="M384.1,199.9l-.3-30.9c-.3-29.4-.4-31-2.4-33.6a27.26145,27.26145,0,0,0-4.8-4.8c-2.6-2-4.2-2.1-33.6-2.4l-30.9-.3L234,232c-43,57.3-78.4,104.8-78.7,105.7-.8,2,16.6,19.5,18.8,19,.8-.2,48.4-35.6,105.8-78.6Z" transform="translate(-2.55384 0.02589)"/><path class="a" d="M131.9,314.5c.6-.6,35.9-47.6,78.6-104.5l77.6-103.4-.3-32.2c-.3-30.8-.4-32.4-2.4-35a27.26111,27.26111,0,0,0-4.8-4.8c-2.6-2-4.2-2.1-28.4-2.3-28.1-.3-29.7,0-34.2,5.4-1.5,1.7-22.4,53.9-52.9,132.2L114.7,299.1l8.1,8.2C128.1,312.5,131.3,315.1,131.9,314.5Z" transform="translate(-2.55384 0.02589)"/><path class="a" d="M472.6,226.6c-2.6-2-4.2-2.1-35-2.4l-32.2-.3L302,301.5c-56.9,42.7-103.9,78-104.5,78.6s2,3.8,7.2,9.1l8.2,8.2,129.3-50.5c93.8-36.5,130.2-51.2,132.5-53.2,5-4.4,5.5-7.5,5.1-34.9C479.5,231.7,479.5,231.7,472.6,226.6Z" transform="translate(-2.55384 0.02589)"/><path class="b" d="M479.8,258.8c.4,27.4-.1,30.5-5.1,34.9-2.3,2-38.7,16.7-132.5,53.2L212.9,397.4l-8.2-8.2c-5.2-5.3-7.8-8.5-7.2-9.1s47.6-35.9,104.5-78.6l103.4-77.6,32.2.3c30.8.3,32.4.4,35,2.4C479.5,231.7,479.5,231.7,479.8,258.8Z" transform="translate(-2.55384 0.02589)"/><path class="b" d="M383.8,169l.3,30.9L279.9,278.1c-57.4,43-105,78.4-105.8,78.6-2.2.5-19.6-17-18.8-19,.3-.9,35.7-48.4,78.7-105.7l78.1-104.1,30.9.3c29.4.3,31,.4,33.6,2.4a27.259,27.259,0,0,1,4.8,4.8C383.4,138,383.5,139.6,383.8,169Z" transform="translate(-2.55384 0.02589)"/><path class="b" d="M287.8,74.4l.3,32.2L210.5,210c-42.7,56.9-78,103.9-78.6,104.5s-3.8-2-9.1-7.2l-8.1-8.2,50.4-129.2C195.6,91.6,216.5,39.4,218,37.7c4.5-5.4,6.1-5.7,34.2-5.4,24.2.2,25.8.3,28.4,2.3a27.259,27.259,0,0,1,4.8,4.8C287.4,42,287.5,43.6,287.8,74.4Z" transform="translate(-2.55384 0.02589)"/><path class="b" d="M186.5,416l-11.3,11.2L164,438.5l-23,23-3.2,2.8c-5.2,4.3-18.7,10.6-26.3,12.2-45.3,9.5-85.6-30.7-76-75.8,1.6-7.9,6.9-19.3,11.7-25.5l3.3-4.2,22.33-22.43L84.5,337c6-6,11.2-11,11.5-11s20.8,20.2,45.5,45Z" transform="translate(-2.55384 0.02589)"/><path d="M510.5,228.7c2.1,8,2.1,57.3,0,65.2-3.4,12.8-12.8,24.9-23.6,30.3-3,1.5-64.8,25.9-137.3,54.2L217.7,429.9l-30.1,29.9c-32.5,32.4-38.7,37.4-53.6,43.2-11.5,4.4-19.1,6-31.5,6.7C57.2,512.1,17,482.3,4.8,437.1c-2.8-10.2-3-34.2-.5-44.5a107.17991,107.17991,0,0,1,11.6-28.1c3.9-6.8,9.3-12.7,35.5-39.2l30.8-31.2,52.3-133.8c28.7-73.7,53.4-135.8,54.9-138.2,5.9-9.3,17.2-17.4,28.7-20.5,7.9-2.1,57.2-2.2,65.2-.1a48.93272,48.93272,0,0,1,35.2,35c1.2,4.6,1.5,11.9,1.5,32.7V96h26.8c29,0,33.5.6,43.4,5.6,7.1,3.6,15.9,12.3,19.7,19.3,5.5,10.4,6.1,14.7,6.1,44.3V192h26.8c20.8,0,28.1.3,32.7,1.5A48.93272,48.93272,0,0,1,510.5,228.7Zm-35.8,65c5-4.4,5.5-7.5,5.1-34.9-.3-27.1-.3-27.1-7.2-32.2-2.6-2-4.2-2.1-35-2.4l-32.2-.3L302,301.5c-56.9,42.7-103.9,78-104.5,78.6s2,3.8,7.2,9.1l8.2,8.2,129.3-50.5C436,310.4,472.4,295.7,474.7,293.7Zm-90.6-93.8-.3-30.9c-.3-29.4-.4-31-2.4-33.6a27.259,27.259,0,0,0-4.8-4.8c-2.6-2-4.2-2.1-33.6-2.4l-30.9-.3L234,232c-43,57.3-78.4,104.8-78.7,105.7-.8,2,16.6,19.5,18.8,19,.8-.2,48.4-35.6,105.8-78.6Zm-96-93.3-.3-32.2c-.3-30.8-.4-32.4-2.4-35a27.259,27.259,0,0,0-4.8-4.8c-2.6-2-4.2-2.1-28.4-2.3-28.1-.3-29.7,0-34.2,5.4-1.5,1.7-22.4,53.9-52.9,132.2L114.7,299.1l8.1,8.2c5.3,5.2,8.5,7.8,9.1,7.2s35.9-47.6,78.6-104.5ZM175.2,427.2,186.5,416l-45-45c-24.7-24.8-45.2-45-45.5-45s-5.5,5-11.5,11L72.83,348.57,50.5,371l-3.3,4.2c-4.8,6.2-10.1,17.6-11.7,25.5-9.6,45.1,30.7,85.3,76,75.8,7.6-1.6,21.1-7.9,26.3-12.2l3.2-2.8,23-23Z" transform="translate(-2.55384 0.02589)"/></svg>