<svg id="b3beaa2e-6676-44d2-b3d1-a728aaa759ea" data-name="Calque 1" xmlns="http://www.w3.org/2000/svg" viewBox="0 0 494.69 494.74"><path d="M134,153c.35,1.58-15.3,28.51-24.75,42.65-11.27,16.88-24.59,34.79-39,52.37-11.28,13.9-35.29,41-39.88,45.18-2.52,2.29-2.66,2.28-3.32-.09-.29-1.36-1.4-7.92-2.35-14.76A228,228,0,0,1,43.25,152.69l3.64-8,12.78.68C91.57,147.27,133.77,151.61,134,153Z" fill="#fff" stroke="#000" stroke-miterlimit="10" stroke-width="10"/><path d="M440.58,132.14c23.42,39,35.51,91.38,31,134.84l-1.12,10.21-2.3-3.72c-4.55-7.22-26.12-29.91-35.4-37.29-32.67-26-80.28-49.05-135.2-65.6-19.89-6-19-4.52-9.78-16.25,10.26-13.25,27.93-26.21,47.17-34.64,10.05-4.41,30.51-10.45,44-13.13,16.15-3.06,39.69-5.41,41-4C423.8,106.85,435.14,123,440.58,132.14Z" fill="#fff" stroke="#000" stroke-miterlimit="10" stroke-width="10"/><path d="M462.58,293.24l3.66,6.55-2.15,8c-3.54,13.35-13.12,36.25-20.7,49.77a225,225,0,0,1-81,82.94c-6,3.54-11.28,6.61-11.85,6.73-1.43.21-1.69-.22-13.14-18.46-54.18-85.9-80.36-166.57-72.1-221.25,1.55-10.34,5.94-26.62,7.56-28.1.89-.81,14.17,2.79,34.32,9.34Q426,227.8,462.58,293.24Z" fill="#fff" stroke="#000" stroke-miterlimit="10" stroke-width="10"/><path d="M424.94,85.81c83,91.3,83,231.32-.13,323C368.33,471.26,280,499.77,198,482.07c-41.35-8.91-80.4-28.67-110.82-56a244.16,244.16,0,0,1-46-56.19c-58.32-97-39.42-223.66,44.7-300.16C183.65-19.17,336.07-11.93,424.94,85.81ZM471.55,267c4.54-43.46-7.55-95.85-31-134.84-5.44-9.11-16.78-25.29-20.68-29.58-1.28-1.41-24.82.94-41,4-13.5,2.68-34,8.72-44,13.13-19.24,8.43-36.91,21.39-47.17,34.64-9.19,11.73-10.11,10.27,9.78,16.25,54.92,16.55,102.53,39.63,135.2,65.6,9.28,7.38,30.85,30.07,35.4,37.29l2.3,3.72Zm-5.31,32.81-3.66-6.55Q425.89,227.69,307.21,188.8c-20.15-6.55-33.43-10.15-34.32-9.34-1.62,1.48-6,17.76-7.56,28.1-8.26,54.68,17.92,135.35,72.1,221.25,11.45,18.24,11.71,18.67,13.14,18.46.57-.12,5.88-3.19,11.85-6.73a225,225,0,0,0,81-82.94c7.58-13.52,17.16-36.42,20.7-49.77Zm-61-212.58c0-1.06-15.94-14.7-25-21.36-19.63-14.46-50.2-29.5-71.46-35L301.64,29l-6.88,6.25c-26.86,24.43-52.26,58.33-71.21,95.16-3.05,6-6.42,12.86-7.52,15.22l-2,4.22,16.26,3.46c8.9,1.91,19.61,4.34,24,5.39l7.56,1.92,5.2-8.11c4.5-6.93,6.82-9.44,18.07-19.81,14.66-13.46,20.65-17.43,39.16-25.61,19-8.37,44.54-15.08,69.6-18.14,6.22-.69,11.41-1.5,11.41-1.72Zm-99,377.14c16-4.41,28.54-9.2,28.47-10.76,0-.7-3.89-7.4-8.7-14.92-36.07-55.87-63.56-118.06-73.38-166-7.81-38.18-7.21-65.76,2.4-96.66.58-1.88-.81-2.38-15.38-5.62-22.34-5.09-31-6.71-31.7-6.18-1.11,1-11.44,29.19-16.36,44.75-18.34,58.3-28,116.53-31.47,188.5-.93,21-1.66,42.47-1.48,47.57l.12,9.35,12,4.33c42.94,15.56,91.83,17.6,135.44,5.66ZM276.66,31.68,283,25l-12.82-1.46c-32-3.64-71,1.44-102.57,13.39-15.07,5.72-14.46,4.9-10.08,12.54,9.66,17,11.81,40.35,5.84,64.7-1.16,5-3.44,12.86-5.08,17.46l-3,8.28,21.28,3.49c11.81,1.83,21.58,3.36,21.86,3.37s3.18-5.59,6.54-12.43C225,93.08,243.27,66.91,276.66,31.68Zm-90.3,146.85,6.57-17.6-6.32-1c-3.51-.59-13.28-2.11-21.78-3.44l-15.47-2.29-5.77,11.19c-20.77,40.92-57.14,89.67-106.3,142.48l-5.15,5.63,3.5,9.79a234,234,0,0,0,31.8,59.07,230.15,230.15,0,0,0,46.32,45.88c10,7.34,28.49,18.69,29.3,17.95.22-.2.66-10.87.77-23.67,1.2-84.75,17-175,42.53-244Zm-36-69.81c4.22-20.19,1.9-40-6.41-52.83-2-3.21-4-5.79-4.47-5.81-1.41-.07-17.76,10.34-26.71,17A222.53,222.53,0,0,0,66,114.34c-4.15,5.53-8,11.36-8.68,12.89l-1.34,2.84,15.88,1.11c8.68.62,27.71,2.38,42.15,3.84s26.64,2.54,27.08,2.14c1.55-1.41,7.28-19,9.28-28.44Zm-41.09,87c9.45-14.14,25.1-41.07,24.75-42.65-.21-1.42-42.41-5.76-74.31-7.7l-12.78-.68-3.64,8A228,228,0,0,0,24.67,278.38c.95,6.84,2.06,13.4,2.35,14.76.66,2.37.8,2.38,3.32.09,4.59-4.17,28.6-31.28,39.88-45.18,14.42-17.58,27.74-35.49,39-52.37Z" stroke="#000" stroke-miterlimit="10" stroke-width="15"/><path d="M380.3,65.85c9,6.66,24.95,20.3,25,21.36,0,.22-5.19,1-11.41,1.72-25.06,3.06-50.58,9.77-69.6,18.14-18.51,8.18-24.5,12.15-39.16,25.61-11.25,10.37-13.57,12.88-18.07,19.81l-5.2,8.11-7.56-1.92c-4.34-1.05-15.05-3.48-24-5.39l-16.26-3.46,2-4.22c1.1-2.36,4.47-9.21,7.52-15.22,18.95-36.83,44.35-70.73,71.21-95.16L301.64,29l7.2,1.83C330.1,36.35,360.67,51.39,380.3,65.85Z" fill="#fff" stroke="#000" stroke-miterlimit="10" stroke-width="10"/><path d="M334.69,453.59c.07,1.56-12.48,6.35-28.47,10.76-43.61,11.94-92.5,9.9-135.44-5.66l-12-4.33-.12-9.35c-.18-5.1.55-26.59,1.48-47.57,3.49-72,13.13-130.2,31.47-188.5,4.92-15.56,15.25-43.74,16.36-44.75.73-.53,9.36,1.09,31.7,6.18,14.57,3.24,16,3.74,15.38,5.62-9.61,30.9-10.21,58.48-2.4,96.66,9.82,48,37.31,110.15,73.38,166C330.8,446.19,334.72,452.89,334.69,453.59Z" fill="#fff" stroke="#000" stroke-miterlimit="10" stroke-width="10"/><path d="M283,25l-6.34,6.7C243.27,66.91,225,93.08,205,134.32c-3.36,6.84-6.25,12.43-6.54,12.43s-10-1.54-21.86-3.37l-21.28-3.49,3-8.28c1.64-4.6,3.92-12.49,5.08-17.46,6-24.35,3.82-47.67-5.84-64.7-4.38-7.64-5-6.82,10.08-12.54,31.57-11.95,70.61-17,102.57-13.39Z" fill="#fff" stroke="#000" stroke-miterlimit="10" stroke-width="10"/><path d="M192.93,160.93l-6.57,17.6c-25.57,68.94-41.33,159.23-42.53,244-.11,12.8-.55,23.47-.77,23.67-.81.74-19.25-10.61-29.3-17.95a230.15,230.15,0,0,1-46.32-45.88,234,234,0,0,1-31.8-59.07l-3.5-9.79,5.15-5.63c49.16-52.81,85.53-101.56,106.3-142.48l5.77-11.19,15.47,2.29c8.5,1.33,18.27,2.85,21.78,3.44Z" fill="#fff" stroke="#000" stroke-miterlimit="10" stroke-width="10"/><path d="M143.91,55.89c8.31,12.85,10.63,32.64,6.41,52.83-2,9.39-7.73,27-9.28,28.44-.44.4-12.65-.53-27.08-2.14s-33.47-3.22-42.15-3.84l-15.88-1.11,1.34-2.84c.64-1.53,4.53-7.36,8.68-12.89a222.53,222.53,0,0,1,46.78-47.26c9-6.66,25.3-17.07,26.71-17C139.87,50.1,141.94,52.68,143.91,55.89Z" fill="#fff" stroke="#000" stroke-miterlimit="10" stroke-width="10"/></svg>