<svg xmlns="http://www.w3.org/2000/svg" viewBox="0 0 494.6896 494.74349"><defs><style>.a{fill:#fff;stroke-width:10px;}.a,.b{stroke:#000;stroke-miterlimit:10;}.b{stroke-width:15px;}</style></defs><title>sal_bask</title><path class="a" d="M139.48084,156.529c.35,1.58-15.3,28.51-24.75,42.65-11.27,16.88-24.59,34.79-39.01,52.37-11.28,13.9-35.29,41.01-39.88,45.18-2.52,2.29-2.66,2.28-3.32-.09-.29-1.36-1.4-7.92-2.35-14.76a227.99894,227.99894,0,0,1,18.58-125.69l3.64-8.04,12.78.68C97.07085,150.769,139.27084,155.109,139.48084,156.529Z" transform="translate(-5.50001 -3.50001)"/><path class="a" d="M446.08085,135.639c23.42,38.99,35.51,91.38,30.97,134.84l-1.12,10.21-2.3-3.72c-4.55-7.22-26.12-29.91-35.4-37.29-32.67-25.97-80.28-49.05-135.2-65.6-19.89-5.98-18.97-4.52-9.78-16.25,10.26-13.25,27.93-26.21,47.17-34.64,10.05-4.41,30.51-10.45,44.01-13.13,16.15-3.06,39.69-5.41,40.97-4C429.30085,110.349,440.64085,126.529,446.08085,135.639Z" transform="translate(-5.50001 -3.50001)"/><path class="a" d="M468.08085,296.739l3.66,6.55-2.15,8.04c-3.54,13.35-13.12,36.25-20.7,49.77a224.96923,224.96923,0,0,1-80.97,82.94c-5.97,3.54-11.28,6.61-11.85,6.73-1.43.21-1.69-.22-13.14-18.46-54.18-85.9-80.36-166.57-72.1-221.25,1.55-10.34,5.94-26.62,7.56-28.1.89-.81,14.17,2.79,34.32,9.34Q431.48082,231.299,468.08085,296.739Z" transform="translate(-5.50001 -3.50001)"/><path class="b" d="M430.44084,89.309c83.02,91.3,83.02,231.32-.13,323.01-56.48,62.44-144.77,90.95-226.82,73.25-41.35-8.91-80.4-28.67-110.82-56.03a244.08844,244.08844,0,0,1-45.96-56.19c-58.32-97-39.42-223.66,44.7-300.16C189.15083-15.671,341.57084-8.431,430.44084,89.309Zm46.61,181.17c4.54-43.46-7.55-95.85-30.97-134.84-5.44-9.11-16.78-25.29-20.68-29.58-1.28-1.41-24.82.94-40.97,4-13.5,2.68-33.96,8.72-44.01,13.13-19.24,8.43-36.91,21.39-47.17,34.64-9.19,11.73-10.11,10.27,9.78,16.25,54.92,16.55,102.53,39.63,135.2,65.6,9.28,7.38,30.85,30.07,35.4,37.29l2.3,3.72Zm-5.31,32.81-3.66-6.55q-36.69-65.55-155.37-104.44c-20.15-6.55-33.43-10.15-34.32-9.34-1.62,1.48-6.01,17.76-7.56,28.1-8.26,54.68,17.92,135.35,72.1,221.25,11.45,18.24,11.71,18.67,13.14,18.46.57-.12,5.88-3.19,11.85-6.73a224.96976,224.96976,0,0,0,80.97-82.94c7.58-13.52,17.16-36.42,20.7-49.77Zm-60.97-212.58c-.02-1.06-15.94-14.7-24.97-21.36-19.63-14.46-50.2-29.5-71.46-35.04l-7.2-1.83-6.88,6.25c-26.86,24.43-52.26,58.33-71.21,95.16-3.05,6.01-6.42,12.86-7.52,15.22l-1.97,4.22,16.26,3.46c8.9,1.91,19.61,4.34,23.95,5.39l7.56,1.92,5.2-8.11c4.5-6.93,6.82-9.44,18.07-19.81,14.66-13.46,20.65-17.43,39.16-25.61,19.02-8.37,44.54-15.08,69.6-18.14,6.22-.69,11.41-1.5,11.41-1.72Zm-99.05,377.14c15.99-4.41,28.54-9.2,28.47-10.76.03-.7-3.89-7.4-8.7-14.92-36.07-55.87-63.56-118.06-73.38-166.02-7.81-38.18-7.21-65.76,2.4-96.66.58-1.88-.81-2.38-15.38-5.62-22.34-5.09-30.97-6.71-31.7-6.18-1.11,1.01-11.44,29.19-16.36,44.75-18.34,58.3-27.98,116.53-31.47,188.5-.93,20.98-1.66,42.47-1.48,47.57l.12,9.35,12.04,4.33c42.94006,15.56,91.83008,17.6,135.44006,5.66Zm-29.56-432.67,6.34-6.7-12.82-1.46c-31.96-3.64-71,1.44-102.57,13.39-15.07,5.72-14.46,4.9-10.08,12.54,9.66,17.03,11.81,40.35,5.84,64.7-1.16,4.97-3.44,12.86-5.08,17.46l-3.01,8.28,21.28,3.49c11.81,1.83,21.58,3.36,21.86,3.37.29,0,3.18-5.59,6.54-12.43,20.08008-41.24,38.31007-67.41,71.70006-102.64Zm-90.3,146.85,6.57-17.6-6.32-1.01c-3.51-.59-13.28-2.11-21.78-3.44l-15.47-2.29-5.77,11.19c-20.77,40.92-57.14,89.67-106.3,142.48l-5.15,5.63,3.5,9.79a233.78791,233.78791,0,0,0,31.8,59.07,229.96225,229.96225,0,0,0,46.32,45.88c10.05,7.34,28.49,18.69,29.3,17.95.22-.2.66-10.87.77-23.67,1.2-84.75,16.96-175.04,42.53-243.98Zm-36.04-69.81c4.22-20.19,1.9-39.98-6.41-52.83-1.97-3.21-4.04-5.79-4.47-5.81-1.41-.07-17.76,10.34-26.71,17a222.44354,222.44354,0,0,0-46.78,47.26c-4.15,5.53-8.04,11.36-8.68,12.89l-1.34,2.84,15.88,1.11c8.68.62,27.71,2.38,42.15,3.84,14.43,1.61,26.64,2.54,27.08,2.14,1.55-1.41,7.28-19.05,9.28-28.44Zm-41.09,86.96c9.45-14.14,25.1-41.07,24.75-42.65-.21-1.42-42.41-5.76-74.31-7.7l-12.78-.68-3.64,8.04a227.99894,227.99894,0,0,0-18.58,125.69c.95,6.84,2.06,13.4,2.35,14.76.66,2.37.8,2.38,3.32.09,4.59-4.17,28.6-31.28,39.88-45.18,14.42-17.58,27.74-35.49,39.01-52.37Z" transform="translate(-5.50001 -3.50001)"/><path class="a" d="M385.80085,69.349c9.03,6.66,24.95,20.3,24.97,21.36,0,.22-5.19,1.03-11.41,1.72-25.06,3.06-50.58,9.77-69.6,18.14-18.51,8.18-24.5,12.15-39.16,25.61-11.25,10.37-13.57,12.88-18.07,19.81l-5.2,8.11-7.56-1.92c-4.34-1.05-15.05-3.48-23.95-5.39l-16.26-3.46,1.97-4.22c1.1-2.36,4.47-9.21,7.52-15.22,18.95-36.83,44.35-70.73,71.21-95.16l6.88-6.25,7.2,1.83C335.60084,39.849,366.17085,54.889,385.80085,69.349Z" transform="translate(-5.50001 -3.50001)"/><path class="a" d="M340.19084,457.089c.07,1.56-12.48,6.35-28.47,10.76-43.61,11.94-92.5,9.9-135.44-5.66l-12.04-4.33-.12-9.35c-.18-5.1.55-26.59,1.48-47.57,3.49-71.97,13.13-130.2,31.47-188.5,4.92-15.56,15.25-43.74,16.36-44.75.73-.53,9.36,1.09,31.7,6.18,14.57,3.24,15.96,3.74,15.38,5.62-9.61,30.9-10.21,58.48-2.4,96.66,9.82,47.96,37.31,110.15,73.38,166.02C336.30085,449.689,340.22083,456.389,340.19084,457.089Z" transform="translate(-5.50001 -3.50001)"/><path class="a" d="M288.50083,28.479l-6.34,6.7c-33.39,35.23-51.62,61.4-71.7,102.64-3.36,6.84-6.25,12.43-6.54,12.43-.28-.01-10.05-1.54-21.86-3.37l-21.28-3.49,3.01-8.28c1.64-4.6,3.92-12.49,5.08-17.46,5.97-24.35,3.82-47.67-5.84-64.7-4.38-7.64-4.99-6.82,10.08-12.54,31.57-11.95,70.61-17.03,102.57-13.39Z" transform="translate(-5.50001 -3.50001)"/><path class="a" d="M198.43083,164.429l-6.57,17.6c-25.57,68.94-41.33,159.23-42.53,243.98-.11,12.8-.55,23.47-.77,23.67-.81.74-19.25-10.61-29.3-17.95a229.9623,229.9623,0,0,1-46.32-45.88,233.78727,233.78727,0,0,1-31.8-59.07l-3.5-9.79,5.15-5.63c49.16-52.81,85.53-101.56,106.3-142.48l5.77-11.19,15.47,2.29c8.5,1.33,18.27,2.85,21.78,3.44Z" transform="translate(-5.50001 -3.50001)"/><path class="a" d="M149.41084,59.389c8.31,12.85,10.63,32.64,6.41,52.83-2,9.39-7.73,27.03-9.28,28.44-.44.4-12.65-.53-27.08-2.14-14.44-1.46-33.47-3.22-42.15-3.84l-15.88-1.11,1.34-2.84c.64-1.53,4.53-7.36,8.68-12.89a222.44354,222.44354,0,0,1,46.78-47.26c8.95-6.66,25.3-17.07,26.71-17C145.37084,53.599,147.44084,56.179,149.41084,59.389Z" transform="translate(-5.50001 -3.50001)"/></svg>