<?xml version="1.0" encoding="utf-8"?>
<!-- Generator: Adobe Illustrator 25.4.1, SVG Export Plug-In . SVG Version: 6.00 Build 0)  -->
<svg version="1.1" id="Calque_1" xmlns="http://www.w3.org/2000/svg" xmlns:xlink="http://www.w3.org/1999/xlink" x="0px" y="0px"
	 viewBox="0 0 36 36" style="enable-background:new 0 0 36 36;" xml:space="preserve">
<style type="text/css">
	.st0{fill:#FFFFFF;}
</style>
<circle cx="18" cy="18" r="18"/>
<circle class="st0" cx="18" cy="18" r="9"/>
<path d="M13.7,20.2c0-1.4,0.8-2.4,1.9-3c-0.8-0.6-1.3-1.4-1.3-2.5c0-2.1,1.7-3.4,3.8-3.4c2,0,3.8,1.3,3.8,3.4c0,1-0.5,2-1.4,2.5
	c1.2,0.6,1.9,1.7,1.9,3c0,2.4-2,4-4.3,4C15.6,24.2,13.7,22.6,13.7,20.2z M16.4,20c0,0.9,0.5,1.8,1.6,1.8c1,0,1.6-0.9,1.6-1.8
	c0-1.1-0.6-1.8-1.6-1.8C17,18.3,16.4,19,16.4,20z M16.8,14.9c0,0.8,0.5,1.3,1.3,1.3s1.3-0.5,1.3-1.3s-0.5-1.3-1.3-1.3
	S16.8,14.2,16.8,14.9z"/>
</svg>
