<svg id="a9d12edb-ea35-44cb-b737-b978d99f47ec" data-name="Calque 1" xmlns="http://www.w3.org/2000/svg" viewBox="0 0 36 36"><circle cx="18" cy="18" r="18"/><circle cx="18" cy="18" r="9" fill="#fff"/><path d="M13.7,20.2a3.35,3.35,0,0,1,1.9-3,3,3,0,0,1-1.3-2.5c0-2.1,1.7-3.4,3.8-3.4a3.53,3.53,0,0,1,3.8,3.4,2.85,2.85,0,0,1-1.4,2.5,3.29,3.29,0,0,1,1.9,3,4.08,4.08,0,0,1-4.3,4C15.6,24.2,13.7,22.6,13.7,20.2Zm2.7-.2A1.63,1.63,0,0,0,18,21.8,1.69,1.69,0,0,0,19.6,20,1.58,1.58,0,0,0,18,18.2,1.69,1.69,0,0,0,16.4,20Zm.4-5.1a1.21,1.21,0,0,0,1.3,1.3,1.21,1.21,0,0,0,1.3-1.3,1.21,1.21,0,0,0-1.3-1.3A1.26,1.26,0,0,0,16.8,14.9Z"/></svg>