<?xml version="1.0" encoding="utf-8"?>
<!-- Generator: Adobe Illustrator 24.0.0, SVG Export Plug-In . SVG Version: 6.00 Build 0)  -->
<svg version="1.1" id="Calque_1" xmlns="http://www.w3.org/2000/svg" xmlns:xlink="http://www.w3.org/1999/xlink" x="0px" y="0px"
	 viewBox="0 0 50 50" style="enable-background:new 0 0 50 50;" xml:space="preserve">
<style type="text/css">
	.st0{fill:#FFFFFF;}
</style>
<g id="XMLID_1_">
	<g>
		<polygon class="st0" points="43.2,20 34.9,20 35.5,18 42.6,18 		"/>
		<polygon class="st0" points="35.9,14 42.2,14 42.1,16 35.9,16 		"/>
		<path d="M34.9,20h8.3c1.5,4.5,3.8,10.6,3.8,14c0,5-1,11-1,11c0,1.1-3.1,2-7,2s-7-0.9-7-2c0,0-0.1-0.5-0.2-1.4
			C34.4,40.5,36,36.4,36,32c0-3.2-0.8-6.1-2.2-8.7C34.2,22.2,34.6,21.1,34.9,20z"/>
		<path d="M42.1,16c0.1,0.6,0.3,1.2,0.5,2h-7.1c0.2-0.7,0.3-1.4,0.4-2H42.1z"/>
		<path d="M34,8c0-2.8,2.2-5,5-5s5,2.2,5.1,5c0,1.7-1.5,4.1-1.9,6h-6.3C35.4,12.1,34,9.7,34,8z"/>
		<circle class="st0" cx="24" cy="27" r="2"/>
		<circle class="st0" cx="18" cy="31" r="2"/>
		<path class="st0" d="M19.7,22.3c0.2,0.4,0.3,0.8,0.3,1.2s-0.1,0.8-0.3,1.2c-0.2,0.4-0.6,0.7-1,1C18.4,25.9,18,26,17.5,26
			c-0.4,0-0.8-0.1-1.2-0.3c-0.4-0.2-0.8-0.6-1-1c-0.2-0.4-0.3-0.8-0.3-1.2s0.1-0.8,0.3-1.2c0.2-0.4,0.6-0.8,1-1
			c0.4-0.2,0.8-0.3,1.2-0.3s0.8,0.1,1.2,0.3C19.1,21.5,19.5,21.9,19.7,22.3z"/>
		<path d="M18,29c-1.1,0-2,0.9-2,2c0,1.1,0.9,2,2,2s2-0.9,2-2C20,29.9,19.1,29,18,29z M20,23.5c0-0.4-0.1-0.8-0.3-1.2
			c-0.2-0.4-0.6-0.8-1-1c-0.4-0.2-0.8-0.3-1.2-0.3s-0.8,0.1-1.2,0.3c-0.4,0.2-0.8,0.6-1,1c-0.2,0.4-0.3,0.8-0.3,1.2s0.1,0.8,0.3,1.2
			c0.2,0.4,0.6,0.8,1,1c0.4,0.2,0.8,0.3,1.2,0.3c0.5,0,0.9-0.1,1.3-0.3c0.4-0.2,0.7-0.6,1-1C19.9,24.3,20,23.9,20,23.5z M24,29
			c1.1,0,2-0.9,2-2s-0.9-2-2-2s-2,0.9-2,2S22.9,29,24,29z M18,16c8.9,0,16,7.1,16,16s-7.1,16-16,16S2,40.9,2,32S9.1,16,18,16z"/>
	</g>
	<g>
	</g>
</g>
</svg>
