<svg id="bfc4f4cb-4c50-4472-b825-7219a863297b" data-name="Calque 1" xmlns="http://www.w3.org/2000/svg" viewBox="0 0 45 45"><polygon points="41.2 17 32.9 17 33.5 15 40.6 15 41.2 17" fill="#fff"/><polygon points="33.9 11 40.2 11 40.1 13 33.9 13 33.9 11" fill="#fff"/><path d="M32.9,17h8.3C42.7,21.5,45,27.6,45,31a79.67,79.67,0,0,1-1,11c0,1.1-3.1,2-7,2s-7-.9-7-2c0,0-.1-.5-.2-1.4a18.19,18.19,0,0,0,2-20.3C32.2,19.2,32.6,18.1,32.9,17Z"/><path d="M40.1,13c.1.6.3,1.2.5,2H33.5a17.66,17.66,0,0,0,.4-2Z"/><path d="M32,5a5,5,0,0,1,5-5,5.1,5.1,0,0,1,5.1,5c0,1.7-1.5,4.1-1.9,6H33.9C33.4,9.1,32,6.7,32,5Z"/><circle cx="22" cy="24" r="2" fill="#fff"/><circle cx="16" cy="28" r="2" fill="#fff"/><path d="M17.7,19.3a2.55,2.55,0,0,1,0,2.4,3.18,3.18,0,0,1-1,1,2.13,2.13,0,0,1-1.2.3,2.66,2.66,0,0,1-1.2-.3,2.41,2.41,0,0,1-1-1,2.55,2.55,0,0,1,0-2.4,2.41,2.41,0,0,1,1-1,2.55,2.55,0,0,1,2.4,0A2.41,2.41,0,0,1,17.7,19.3Z" fill="#fff"/><path d="M16,26a2,2,0,1,0,2,2A2,2,0,0,0,16,26Zm2-5.5a2.66,2.66,0,0,0-.3-1.2,2.41,2.41,0,0,0-1-1,2.55,2.55,0,0,0-2.4,0,2.41,2.41,0,0,0-1,1,2.55,2.55,0,0,0,0,2.4,2.41,2.41,0,0,0,1,1,2.66,2.66,0,0,0,1.2.3,2.77,2.77,0,0,0,1.3-.3,3.18,3.18,0,0,0,1-1A5,5,0,0,0,18,20.5ZM22,26a2,2,0,1,0-2-2A2,2,0,0,0,22,26ZM16,13a16,16,0,0,1,0,32,16,16,0,0,1,0-32Z"/></svg>