<svg id="a84faf43-f37b-49cb-8df0-e2af0e1f30f2" data-name="Calque 1" xmlns="http://www.w3.org/2000/svg" viewBox="0 0 50.11 50"><path d="M25.11,18a7,7,0,1,0,7,7A7,7,0,0,0,25.11,18Zm-2-10a2,2,0,0,0,4,0V7.1A17.88,17.88,0,0,1,43,23h-1.1a2,2,0,1,0,.2,4H43a17.88,17.88,0,0,1-15.9,15.9V42a2,2,0,0,0-2-2h-.3A2,2,0,0,0,23,42v.9A17.87,17.87,0,0,1,7.21,27h.9a2,2,0,0,0,0-4h-.9A17.88,17.88,0,0,1,23.11,7.1Z" fill="#fff"/><circle cx="25.11" cy="25" r="7"/><path d="M27.11,8a2,2,0,0,1-4,0V7.1A17.88,17.88,0,0,0,7.21,23h.9a2,2,0,0,1,0,4h-.9A17.87,17.87,0,0,0,23,42.9V42a2,2,0,0,1,1.8-2h.3a2,2,0,0,1,2,2v.9A17.88,17.88,0,0,0,43,27h-.9a2,2,0,1,1-.2-4H43A17.88,17.88,0,0,0,27.11,7.1V8Zm23,16.9a2,2,0,0,1-2,2H47a22.08,22.08,0,0,1-19.9,19.9V48a2,2,0,0,1-4,0V46.9A22,22,0,0,1,3.21,27H2.11a2,2,0,0,1-.2-4h1.3A22,22,0,0,1,23.11,3.1V2a2,2,0,0,1,1.8-2h.2a2,2,0,0,1,2,2V3.1a21.8,21.8,0,0,1,19.8,19.8h1.2A2,2,0,0,1,50.11,24.9Z"/></svg>