<?xml version="1.0" encoding="utf-8"?>
<!-- Generator: Adobe Illustrator 24.0.0, SVG Export Plug-In . SVG Version: 6.00 Build 0)  -->
<svg version="1.1" id="Calque_1" xmlns="http://www.w3.org/2000/svg" xmlns:xlink="http://www.w3.org/1999/xlink" x="0px" y="0px"
	 viewBox="0 0 50 50" style="enable-background:new 0 0 50 50;" xml:space="preserve">
<style type="text/css">
	.st0{fill:#FFFFFF;}
</style>
<g id="XMLID_1_">
	<g>
		<path class="st0" d="M25,18c-3.9,0-7,3.1-7,7s3.1,7,7,7s7-3.1,7-7S28.9,18,25,18z M23,8c0,1.1,0.9,2,2,2s2-0.9,2-2c0,0,0,0,0-0.1
			V7.1C35.4,8,42,14.6,42.9,23H42c-0.1,0-0.1,0-0.2,0c-1.1,0.1-2,1-1.9,2.1c0.1,1.1,1,2,2.1,1.9h0.9C42,35.4,35.4,42,27,42.9V42
			c0-1.1-0.9-2-2-2c0,0,0,0-0.1,0s-0.1,0-0.2,0c-1,0.1-1.8,1-1.8,2v0.9C14.6,42,8,35.4,7.1,27H8c1.1,0,2-0.9,2-2s-0.9-2-2-2
			c0,0,0,0-0.1,0H7.1C8,14.6,14.6,8,23,7.1V8z"/>
		<circle cx="25" cy="25" r="7"/>
		<path d="M27,8c0,1.1-0.9,2-2,2s-2-0.9-2-2V7.1C14.6,8,8,14.6,7.1,23h0.8C8,23,8,23,8,23c1.1,0,2,0.9,2,2s-0.9,2-2,2H7.1
			c0.9,8.4,7.5,15,15.8,15.9V42c0-1,0.8-1.9,1.8-2c0.1,0,0.1,0,0.2,0s0.1,0,0.1,0c1.1,0,2,0.9,2,2v0.9C35.4,42,42,35.4,42.9,27H42
			c-1.1,0.1-2-0.8-2.1-1.9c-0.1-1.1,0.8-2,1.9-2.1c0.1,0,0.1,0,0.2,0h0.9C42,14.6,35.4,8,27,7.1V8C27,8,27,8,27,8z M50,24.9
			c0,1.1-0.9,2-2,2h-1.1C46,37.4,37.5,45.8,27,46.8v1.1c0,0.1,0,0.1,0,0.1c0,1.1-0.9,2-2,2s-2-0.9-2-2v-1.1C12.5,46,4,37.5,3.1,27H2
			c-1.1,0.1-2-0.8-2.1-1.9s0.8-2,1.9-2.1c0.1,0,0.1,0,0.2,0h1.1C4,12.5,12.5,4,23,3.1V2c0-1,0.8-1.9,1.8-2h0.1C25,0,25,0,25,0
			c1.1,0,2,0.9,2,2v1.1C37.5,4,46,12.5,46.8,22.9h1.1c0.1,0,0.1,0,0.1,0C49.1,22.9,50,23.8,50,24.9z"/>
	</g>
	<g>
	</g>
</g>
</svg>
