<?xml version="1.0" encoding="utf-8"?>
<!-- Generator: Adobe Illustrator 24.0.0, SVG Export Plug-In . SVG Version: 6.00 Build 0)  -->
<svg version="1.1" id="Calque_1" xmlns="http://www.w3.org/2000/svg" xmlns:xlink="http://www.w3.org/1999/xlink" x="0px" y="0px"
	 viewBox="0 0 512 512" style="enable-background:new 0 0 512 512;" xml:space="preserve">
<style type="text/css">
	.st0{fill:#FFFFFF;}
</style>
<rect x="25.4" y="303.5" class="st0" width="460.3" height="53"/>
<path d="M159.6,77.5c-3.1,0-9.2,3.9-14.2,11.7c-3.4,5.3-6,11.9-7.5,18.3h168l22.5,62H127.6c-3.5,0-9.8,3.7-14.8,10.4
	c-2.7,3.5-4.8,7.7-6.2,11.6h297.2c-1.6-3.3-3.9-6.8-6.8-9.9c-5.9-6.3-13.5-10.1-17.4-10.1h-5.5l-48-94H159.6z M111.6,209.5
	c-28.2,0-49.5,17.5-64.5,40c-12.1,18.2-19.3,39.6-21.7,54h460.4c-2.4-14.4-9.6-35.8-21.7-54c-15-22.5-36.3-40-64.5-40H111.6z
	 M25.4,356.5c2.3,14.4,9.6,35.8,21.6,54c15,22.5,36.3,40,64.5,40h288c28.2,0,49.5-17.5,64.5-40c12.1-18.2,19.3-39.6,21.7-54H25.4z"
	/>
</svg>
