<svg id="be1dc8c2-624a-4bb5-b17c-af8e0cb6b3a3" data-name="Calque 1" xmlns="http://www.w3.org/2000/svg" viewBox="0 0 460.4 373"><rect y="226" width="460.3" height="53" fill="#fff"/><path d="M134.2,0C131.1,0,125,3.9,120,11.7A60.34,60.34,0,0,0,112.5,30h168L303,92H102.2c-3.5,0-9.8,3.7-14.8,10.4A43.43,43.43,0,0,0,81.2,114H378.4a40.75,40.75,0,0,0-6.8-9.9C365.7,97.8,358.1,94,354.2,94h-5.5l-48-94Zm-48,132c-28.2,0-49.5,17.5-64.5,40C9.6,190.2,2.4,211.6,0,226H460.4c-2.4-14.4-9.6-35.8-21.7-54-15-22.5-36.3-40-64.5-40ZM0,279c2.3,14.4,9.6,35.8,21.6,54,15,22.5,36.3,40,64.5,40h288c28.2,0,49.5-17.5,64.5-40,12.1-18.2,19.3-39.6,21.7-54Z"/></svg>