<?xml version="1.0" encoding="utf-8"?>
<!-- Generator: Adobe Illustrator 25.4.1, SVG Export Plug-In . SVG Version: 6.00 Build 0)  -->
<svg version="1.1" id="Calque_1" xmlns="http://www.w3.org/2000/svg" xmlns:xlink="http://www.w3.org/1999/xlink" x="0px" y="0px"
	 viewBox="0 0 24 24" style="enable-background:new 0 0 24 24;" xml:space="preserve">
<style type="text/css">
	.st0{fill:#FFFFFF;stroke:#FFFFFF;stroke-miterlimit:10;}
</style>
<path d="M16.5,1C13.3,1,11,4,11,4c4.6-1.1,4.1,2,5.5,2S19,4.9,19,3.5S17.9,1,16.5,1z M12.9,5C12.9,5,12.8,5,12.9,5l-0.1,0h-0.3
	c-0.8,0-1.6,0.5-2.7,1.3C9,6.9,8,7.6,6.8,8.5c-1.1,0.8-1,2.5,0.1,3.2l5,2.8L11,18.8c-0.2,0.5,0.1,1.1,0.6,1.3s1.1-0.1,1.3-0.6
	c0-0.1,0.1-0.2,0.1-0.3l1-5c0.1-0.3-0.1-0.6-0.3-0.9c0,0,0-0.1-0.1-0.1l-0.5-0.4l-2.5-2.2l3.2-2.1l1.6,1.3l0.9,0.9
	c0.2,0.2,0.5,0.3,0.7,0.3h4c0.6,0,1-0.4,1-1c0-0.6-0.4-1-1-1c0,0,0,0,0,0h-3.6l-3.7-3.7C13.5,5.1,13.2,4.9,12.9,5z M4.5,14
	C2,14,0,16,0,18.5S2,23,4.5,23S9,21,9,18.5S7,14,4.5,14z M19.5,14C17,14,15,16,15,18.5s2,4.5,4.5,4.5s4.5-2,4.5-4.5S22,14,19.5,14z
	 M19.5,15.5c1.7,0,3,1.3,3,3s-1.3,3-3,3s-3-1.3-3-3S17.8,15.5,19.5,15.5z M4.5,17C5.3,17,6,17.7,6,18.5S5.3,20,4.5,20S3,19.3,3,18.5
	S3.7,17,4.5,17z"/>
<circle class="st0" cx="4.5" cy="18.5" r="1"/>
<circle class="st0" cx="19.5" cy="18.5" r="2.6"/>
</svg>
