<svg id="b65842ce-b5b9-450d-86eb-a310e40982e8" data-name="Calque 1" xmlns="http://www.w3.org/2000/svg" viewBox="0 0 24 22"><path d="M16.5,0C13.3,0,11,3,11,3c4.6-1.1,4.1,2,5.5,2A2.48,2.48,0,0,0,19,2.5,2.48,2.48,0,0,0,16.5,0ZM12.9,4h-.4A5.06,5.06,0,0,0,9.8,5.3C9,5.9,8,6.6,6.8,7.5a2,2,0,0,0,.1,3.2l5,2.8L11,17.8a1,1,0,1,0,1.9.7c0-.1.1-.2.1-.3l1-5c.1-.3-.1-.6-.3-.9a.1.1,0,0,0-.1-.1l-.5-.4L10.6,9.6l3.2-2.1,1.6,1.3.9.9a1.08,1.08,0,0,0,.7.3h4a.94.94,0,0,0,1-1,.94.94,0,0,0-1-1H17.4L13.7,4.3A.83.83,0,0,0,12.9,4ZM4.5,13A4.5,4.5,0,1,0,9,17.5,4.48,4.48,0,0,0,4.5,13Zm15,0A4.5,4.5,0,1,0,24,17.5,4.48,4.48,0,0,0,19.5,13Zm0,1.5a3,3,0,1,1-3,3A2.95,2.95,0,0,1,19.5,14.5ZM4.5,16a1.5,1.5,0,0,1,0,3,1.5,1.5,0,0,1,0-3Z"/><circle cx="4.5" cy="17.5" r="1" fill="#fff" stroke="#fff" stroke-miterlimit="10"/><circle cx="19.5" cy="17.5" r="2.6" fill="#fff" stroke="#fff" stroke-miterlimit="10"/></svg>