<svg id="e384fd2d-7ebc-4247-8345-1560b3610075" data-name="Layer 1" xmlns="http://www.w3.org/2000/svg" viewBox="0 0 330 281.03"><path d="M231.2,160.93l-45-45,90.3-90.3A15,15,0,0,0,255.3,4.42L165,94.73,74.7,4.53a15,15,0,0,0-21.2,21.2L129.8,102h0l35.2,35.2h0l45,45a75,75,0,0,0,9.6,94.4,15,15,0,0,0,21.2,0l31.8-31.8,24.7,24.7a15,15,0,0,0,21.2,0,14.91,14.91,0,0,0,0-21.2l-24.7-24.8,31.8-31.8a15,15,0,0,0,0-21.21,74.44,74.44,0,0,0-53-22A75.2,75.2,0,0,0,231.2,160.93Z"/><path d="M36.2,223.53l-24.7,24.7a14.91,14.91,0,0,0,0,21.2,15,15,0,0,0,21.2,0l24.7-24.8,31.8,31.9a15,15,0,0,0,21.2,0,75,75,0,0,0,9.6-94.4l23.8-23.8-21.2-21.2-23.8,23.8a75.11,75.11,0,0,0-41.4-12.4,74.27,74.27,0,0,0-53,22,15,15,0,0,0,0,21.2Z"/><path d="M15.4,175c-.7-6.5,23.9-13.6,25.8-14.2,7.4-2.1,30.4-8.6,38.4,2.5,2.1,3,3.9,8.4,2.1,12.6C74.6,192.23,16.5,184.73,15.4,175Z" fill="#fff" stroke="#000" stroke-miterlimit="10"/><path d="M320.9,175.33c-.5,6.4-28,8.4-30,8.5-8.2.5-33.7,2.2-40-10.4-1.7-3.3-2.6-8.9.4-12.7C262,146.63,321.7,165.73,320.9,175.33Z" fill="#fff" stroke="#000" stroke-miterlimit="10"/></svg>