<?xml version="1.0" encoding="utf-8"?>
<!-- Generator: Adobe Illustrator 24.0.0, SVG Export Plug-In . SVG Version: 6.00 Build 0)  -->
<svg version="1.1" id="Layer_1" xmlns="http://www.w3.org/2000/svg" xmlns:xlink="http://www.w3.org/1999/xlink" x="0px" y="0px"
	 viewBox="0 0 330 330" style="enable-background:new 0 0 330 330;" xml:space="preserve">
<style type="text/css">
	.st0{fill:#FFFFFF;stroke:#000000;stroke-miterlimit:10;}
</style>
<g id="XMLID_532_">
	<path id="XMLID_533_" d="M231.2,185.4l-45-45l90.3-90.3c5.9-5.9,5.9-15.4,0-21.2c-5.9-5.9-15.4-5.9-21.2,0L165,119.2L74.7,29
		c-5.9-5.9-15.4-5.9-21.2,0s-5.9,15.4,0,21.2l76.3,76.3l0,0l35.2,35.2l0,0l45,45c-8.1,12.2-12.4,26.4-12.4,41.4c0,20,7.8,38.9,22,53
		c2.8,2.8,6.6,4.4,10.6,4.4s7.8-1.6,10.6-4.4l31.8-31.8l24.7,24.7c2.9,2.9,6.8,4.4,10.6,4.4c3.8,0,7.7-1.5,10.6-4.4
		c5.9-5.9,5.9-15.4,0-21.2L293.8,248l31.8-31.8c2.8-2.8,4.4-6.6,4.4-10.6s-1.6-7.8-4.4-10.6c-14.2-14.2-33-22-53-22
		C257.6,173,243.4,177.4,231.2,185.4z"/>
	<path id="XMLID_534_" d="M36.2,248l-24.7,24.7c-5.9,5.9-5.9,15.4,0,21.2c2.9,2.9,6.8,4.4,10.6,4.4s7.7-1.5,10.6-4.4l24.7-24.8
		L89.2,301c2.9,2.9,6.8,4.4,10.6,4.4c3.8,0,7.7-1.5,10.6-4.4c14.2-14.2,22-33,22-53c0-14.9-4.3-29.2-12.4-41.4l23.8-23.8l-21.2-21.2
		l-23.8,23.8c-12.2-8-26.4-12.4-41.4-12.4c-20,0-38.9,7.8-53,22c-2.8,2.8-4.4,6.6-4.4,10.6s1.6,7.8,4.4,10.6L36.2,248z"/>
</g>
<path class="st0" d="M15.4,199.5c-0.7-6.5,23.9-13.6,25.8-14.2c7.4-2.1,30.4-8.6,38.4,2.5c2.1,3,3.9,8.4,2.1,12.6
	C74.6,216.7,16.5,209.2,15.4,199.5z"/>
<path class="st0" d="M320.9,199.8c-0.5,6.4-28,8.4-30,8.5c-8.2,0.5-33.7,2.2-40-10.4c-1.7-3.3-2.6-8.9,0.4-12.7
	C262,171.1,321.7,190.2,320.9,199.8z"/>
</svg>
