<svg id="f07294ab-18b1-4356-adc2-1e28d43dd159" data-name="Calque 1" xmlns="http://www.w3.org/2000/svg" viewBox="0 0 1037.86 1037.06"><path d="M638.38,85.76l-2.5,1.9c-4.9,3.8-77.3,35.4-111.6,48.9l-5.1,2-16.9-6.8c-36.5-14.7-101.4-44.3-101.4-46.1,0-2.2,57.7-12.9,77-14.3,14.6-1.1,75.7-.5,88,.8,20.3,2.1,62.3,9.7,69.8,12.6Z" fill="#fff"/><path d="M895.88,274.66c12.2,17.9,29.1,50.4,38.8,74.5a462.77,462.77,0,0,1,29.2,110c2.1,14.8,3.9,42.5,2.7,42.5-.4,0-73.4-83.8-86.7-99.5-1.6-1.8-1.6-3.1-.4-14.5.7-6.9,3.1-33.4,5.3-59s4.4-49.5,4.7-53.3,1-6.7,1.5-6.7S893.58,271.36,895.88,274.66Z" fill="#fff"/><path d="M960.18,556.86l5.9,6.8-1.7,12.7c-5.9,46.1-22.9,101.8-43.5,143.1-8.2,16.4-13,23.2-17.7,25-2.6,1.1-91.2,21.7-142.3,33.1l-22.4,5.1-3.8-2.6c-4.7-3.3-13.6-12.6-33.9-35.4-21-23.7-27.9-32.1-27.9-34,0-3.5,68.5-214.2,70.7-217.6.5-.7,3.2-2.6,6-4.3,17.2-10.1,99.6-53,101.9-53.1.6,0,4.2,3.3,8,7.2,11.3,11.9,31.1,34.1,63.9,71.8C940.38,534.16,956.88,553.16,960.18,556.86Z" fill="#fff"/><path d="M684.38,936.26c-6,2.3-11.1,4.1-11.3,3.9s19.5-34.2,48.9-83.7c17-28.5,19.2-31.7,22.1-32.7,1.8-.5,17.9-4.4,35.8-8.6,92.7-21.6,92-21.5,92-19.7,0,1.4-12.5,16.4-23.6,28.4C802.68,872.86,743.38,913.56,684.38,936.26Z" fill="#fff"/><path d="M653.88,753.86c30.6,34.1,48,54.1,48,55.2,0,2.1-60.8,104.3-81.7,137.3l-6.8,10.8-8.7,2.2c-19.7,4.9-45.9,7.3-82.3,7.3-43.8,0-83.2-3.8-95.1-9.2-1.6-.8-5.5-6-10.6-14.2-10.8-17.3-71.4-118.2-76.2-126.9l-3.8-6.8,7.5-9.2c4.2-5,17.8-20.9,30.4-35.2l22.9-26,111.9-.5c61.6-.3,116.1-.6,121-.7l9-.3Z" fill="#fff"/><path d="M297.68,825.86c2.7,2.3,68.7,113.7,67.8,114.5s-7.4-1.7-26.9-10.4c-23.1-10.2-29.7-13.6-44-22-39.9-23.6-78.2-54.4-106.5-85.6-13.1-14.4-23.2-26.4-23.2-27.6,0-.8,11.4,1.6,61,13C267.18,817.26,296.08,824.56,297.68,825.86Z" fill="#fff"/><path d="M135.68,284.16c7.6-12.5,10.2-15.9,11.4-14.7.6.6,1.6,5.7,2.4,11.4,1.3,10.7,6.1,61.8,9.1,98.5,1.7,21,1.7,21.3-.2,23.7-1.1,1.4-21.3,24.8-45,52-27.3,31.4-43.1,48.9-43.4,47.8-.5-2.5,1.8-29.2,4-45.1A455.08,455.08,0,0,1,135.68,284.16Z" fill="#fff"/><path d="M366.88,711.86c0,.7-5.3,7.1-11.7,14.3-17.9,20-52.4,57.5-52.8,57.5-.6,0-46.5-10.6-116.4-26.9-47.7-11.1-55.7-13.2-57.1-15.1-2.9-3.8-15.6-28.9-20.5-40.5-7.4-17.3-16.2-41.5-20.5-56.3-6.9-23.5-15-64.8-15-76.2.1-5.2-4-.2,71.3-86.8,36.2-41.7,42.2-48.2,44.1-47.6,1.1.3,16.1,7.4,33.1,15.6s40.3,19.7,51.7,25.4l20.7,10.3,10.4,32.3c5.8,17.8,22.3,68.4,36.6,112.5S366.88,711.16,366.88,711.86Z" fill="#fff"/><path d="M700.88,477.16c2.7,3.2-.5,14-39,132.5-13.9,42.6-25.8,79.5-26.6,82l-1.3,4.5-114.3-.3c-62.9-.2-114.5-.5-114.7-.7-1.5-1.6-69.1-213-69.1-216.2,0-1.6,9.7-8.8,84-62.4,82-59.3,98.4-70.9,99.6-70.9.6,0,7.4,4.4,15,9.8C586.68,392.36,698.08,473.86,700.88,477.16Z" fill="#fff"/><path d="M498.68,241.36l.2,66.9-70.7,51.6c-39,28.4-81.5,59.3-94.5,68.7l-23.8,17.1-6.2-2.4c-8.5-3.2-100.7-47.4-102.6-49.1-.2-.2-3.9-40.1-8.2-88.7l-7.8-88.3,9.6-9.8c38.5-39.2,93.3-78,136.2-96.4,3.8-1.6,6.8-2.2,9.5-1.9,2.2.2,21.3,7.6,42.5,16.5s55.8,23.4,77,32.4l38.5,16.4Z" fill="#fff"/><path d="M845.68,210.66l7.4,8.5-.5,9.5c-.9,14-11.4,127.7-13.7,147.9-1.1,9.6-2.5,18-3.1,18.7-2.7,3.2-81.4,44.7-98.2,51.7l-3.7,1.6-38.7-27.8c-21.4-15.2-55.7-40-76.3-55.1s-46.6-33.9-57.7-41.9L541,309.16v-67.5l-.1-67.5,7.8-3.2c4.2-1.7,31.6-13.4,60.7-25.8,69.9-30,88.5-37.5,91-36.9,1.1.4,5.6,2.2,10,4.1C753.48,131.46,816.18,177,845.68,210.66Z" fill="#fff"/><path d="M1002.28,439.66c23.4,141.1-16.2,284.3-109.2,395.5-10.3,12.3-46.5,48.3-58.7,58.4-50.2,41.6-104.4,71.7-163.5,90.9-35.1,11.4-66.1,17.8-108,22.4-15.3,1.6-70.8,1.6-87,0-96.7-9.8-178.7-41.7-254.2-98.9-35.3-26.7-71.3-63.3-97.4-98.8-107.6-146.6-125.4-339.4-46.6-503.9,57-118.7,164.8-212.4,290.7-252.9,41.2-13.2,74.6-19.4,124-23.1,11-.8,61.9.4,75,1.8,104.8,11.2,197.5,51.6,275.5,120.2,12.9,11.3,39.9,38.7,50.1,50.9C950.78,271.16,987.68,351.16,1002.28,439.66Zm-35.7,62c1.2,0-.6-27.7-2.7-42.5a462.77,462.77,0,0,0-29.2-110c-9.7-24.1-26.6-56.6-38.8-74.5-2.3-3.3-4.5-6-4.9-6s-1.2,3-1.5,6.7-2.4,27.7-4.7,53.3-4.6,52.1-5.3,59c-1.2,11.4-1.2,12.7.4,14.5C893.18,417.86,966.18,501.66,966.58,501.66Zm-.5,62-5.9-6.8c-3.3-3.7-19.8-22.7-36.8-42.2-32.8-37.7-52.6-59.9-63.9-71.8-3.8-3.9-7.4-7.2-8-7.2-2.3.1-84.7,43-101.9,53.1-2.8,1.7-5.5,3.6-6,4.3-2.2,3.4-70.7,214.1-70.7,217.6,0,1.9,6.9,10.3,27.9,34,20.3,22.8,29.2,32.1,33.9,35.4l3.8,2.6,22.4-5.1c51.1-11.4,139.7-32,142.3-33.1,4.7-1.8,9.5-8.6,17.7-25,20.6-41.3,37.6-97,43.5-143.1Zm-94.2,231.8c0-1.8.7-1.9-92,19.7-17.9,4.2-34,8.1-35.8,8.6-2.9,1-5.1,4.2-22.1,32.7-29.4,49.5-49.2,83.4-48.9,83.7s5.3-1.6,11.3-3.9c59-22.7,118.3-63.4,163.9-112.4C859.38,811.86,871.88,796.86,871.88,795.46Zm-18.8-576.3-7.4-8.5c-29.5-33.7-92.2-79.2-135.3-98.3-4.4-1.9-8.9-3.7-10-4.1-2.5-.6-21.1,6.9-91,36.9-29.1,12.4-56.5,24.1-60.7,25.8l-7.8,3.2.1,67.5v67.5l20.2,14.6c11.1,8,37.1,26.9,57.7,41.9s54.9,39.9,76.3,55.1l38.7,27.8,3.7-1.6c16.8-7,95.5-48.5,98.2-51.7.6-.7,2-9.1,3.1-18.7,2.3-20.2,12.8-133.9,13.7-147.9Zm-191.2,390.5c38.5-118.5,41.7-129.3,39-132.5s-114.2-84.8-166.4-121.7c-7.6-5.4-14.4-9.8-15-9.8-1.2,0-17.6,11.6-99.6,70.9-74.3,53.6-84,60.8-84,62.4,0,3.2,67.6,214.6,69.1,216.2.2.2,51.8.5,114.7.7l114.3.3,1.3-4.5C636.08,689.16,648,652.26,661.88,609.66Zm40,199.4c0-1.1-17.4-21.1-48-55.2l-14.5-16.2-9,.3c-4.9.1-59.4.4-121,.7l-111.9.5-22.9,26c-12.6,14.3-26.2,30.2-30.4,35.2l-7.5,9.2,3.8,6.8c4.8,8.7,65.4,109.6,76.2,126.9,5.1,8.2,9,13.4,10.6,14.2,11.9,5.4,51.3,9.2,95.1,9.2,36.4,0,62.6-2.4,82.3-7.3l8.7-2.2,6.8-10.8C641.08,913.36,701.88,811.16,701.88,809.06Zm-66-721.4,2.5-1.9-2.7-1c-7.5-2.9-49.5-10.5-69.8-12.6-12.3-1.3-73.4-1.9-88-.8-19.3,1.4-77,12.1-77,14.3,0,1.8,64.9,31.4,101.4,46.1l16.9,6.8,5.1-2C558.58,123.06,631,91.46,635.88,87.66Zm-137,220.6-.2-66.9-.3-67L459.88,158c-21.2-9-55.8-23.6-77-32.4s-40.3-16.3-42.5-16.5c-2.7-.3-5.7.3-9.5,1.9-42.9,18.4-97.7,57.2-136.2,96.4l-9.6,9.8,7.8,88.3c4.3,48.6,8,88.5,8.2,88.7,1.9,1.7,94.1,45.9,102.6,49.1l6.2,2.4,23.8-17.1c13-9.4,55.5-40.3,94.5-68.7Zm-133.4,632.1c.9-.8-65.1-112.2-67.8-114.5-1.6-1.3-30.5-8.6-71.8-18.1-49.6-11.4-61-13.8-61-13,0,1.2,10.1,13.2,23.2,27.6,28.3,31.2,66.6,62,106.5,85.6,14.3,8.4,20.9,11.8,44,22C358.08,938.66,364.68,941.16,365.48,940.36Zm-10.3-214.2c6.4-7.2,11.7-13.6,11.7-14.3s-11.7-37.4-26.1-81.5-30.8-94.7-36.6-112.5l-10.4-32.3-20.7-10.3c-11.4-5.7-34.6-17.1-51.7-25.4s-32-15.3-33.1-15.6c-1.9-.6-7.9,5.9-44.1,47.6-75.3,86.6-71.2,81.6-71.3,86.8,0,11.4,8.1,52.7,15,76.2,4.3,14.8,13.1,39,20.5,56.3,4.9,11.6,17.6,36.7,20.5,40.5,1.4,1.9,9.4,4,57.1,15.1,69.9,16.3,115.8,26.9,116.4,26.9C302.78,783.66,337.28,746.16,355.18,726.16Zm-196.8-323.1c1.9-2.4,1.9-2.7.2-23.7-3-36.7-7.8-87.8-9.1-98.5-.8-5.7-1.8-10.8-2.4-11.4-1.2-1.2-3.8,2.2-11.4,14.7A455.08,455.08,0,0,0,74,457.76c-2.2,15.9-4.5,42.6-4,45.1.3,1.1,16.1-16.4,43.4-47.8C137.08,427.86,157.28,404.46,158.38,403.06Z"/><path d="M492.38,29.26c-49.4,3.7-82.8,9.9-124,23.1-125.9,40.5-233.7,134.2-290.7,252.9-78.8,164.5-61,357.3,46.6,503.9,26.1,35.5,62.1,72.1,97.4,98.8,75.5,57.2,157.5,89.1,254.2,98.9,16.2,1.6,71.7,1.6,87,0,41.9-4.6,72.9-11,108-22.4,59.1-19.2,113.3-49.3,163.5-90.9,12.2-10.1,48.4-46.1,58.7-58.4,93-111.2,132.6-254.4,109.2-395.5-14.6-88.5-51.5-168.5-109.3-237.5-10.2-12.2-37.2-39.6-50.1-50.9-78-68.6-170.7-109-275.5-120.2C554.28,29.66,503.38,28.46,492.38,29.26Z" fill="none" stroke="#000" stroke-miterlimit="10" stroke-width="58"/><path d="M565.88,72.16c20.3,2.1,62.3,9.7,69.8,12.6l2.7,1-2.5,1.9c-4.9,3.8-77.3,35.4-111.6,48.9l-5.1,2-16.9-6.8c-36.5-14.7-101.4-44.3-101.4-46.1,0-2.2,57.7-12.9,77-14.3C492.48,70.26,553.58,70.86,565.88,72.16Z" fill="none" stroke="#000" stroke-miterlimit="10" stroke-width="5"/><path d="M710.38,112.36c43.1,19.1,105.8,64.6,135.3,98.3l7.4,8.5-.5,9.5c-.9,14-11.4,127.7-13.7,147.9-1.1,9.6-2.5,18-3.1,18.7-2.7,3.2-81.4,44.7-98.2,51.7l-3.7,1.6-38.7-27.8c-21.4-15.2-55.7-40-76.3-55.1s-46.6-33.9-57.7-41.9L541,309.16v-67.5l-.1-67.5,7.8-3.2c4.2-1.7,31.6-13.4,60.7-25.8,69.9-30,88.5-37.5,91-36.9C701.48,108.66,706,110.46,710.38,112.36Z" fill="none" stroke="#000" stroke-miterlimit="10" stroke-width="5"/><path d="M382.88,125.56c21.2,8.8,55.8,23.4,77,32.4l38.5,16.4.3,67,.2,66.9-70.7,51.6c-39,28.4-81.5,59.3-94.5,68.7l-23.8,17.1-6.2-2.4c-8.5-3.2-100.7-47.4-102.6-49.1-.2-.2-3.9-40.1-8.2-88.7l-7.8-88.3,9.6-9.8c38.5-39.2,93.3-78,136.2-96.4,3.8-1.6,6.8-2.2,9.5-1.9C342.58,109.26,361.68,116.66,382.88,125.56Z" fill="none" stroke="#000" stroke-miterlimit="10" stroke-width="5"/><path d="M149.48,280.86c1.3,10.7,6.1,61.8,9.1,98.5,1.7,21,1.7,21.3-.2,23.7-1.1,1.4-21.3,24.8-45,52-27.3,31.4-43.1,48.9-43.4,47.8-.5-2.5,1.8-29.2,4-45.1a455.08,455.08,0,0,1,61.7-173.6c7.6-12.5,10.2-15.9,11.4-14.7C147.68,270.06,148.68,275.16,149.48,280.86Z" fill="none" stroke="#000" stroke-miterlimit="10" stroke-width="5"/><path d="M895.88,274.66c12.2,17.9,29.1,50.4,38.8,74.5a462.77,462.77,0,0,1,29.2,110c2.1,14.8,3.9,42.5,2.7,42.5-.4,0-73.4-83.8-86.7-99.5-1.6-1.8-1.6-3.1-.4-14.5.7-6.9,3.1-33.4,5.3-59s4.4-49.5,4.7-53.3,1-6.7,1.5-6.7S893.58,271.36,895.88,274.66Z" fill="none" stroke="#000" stroke-miterlimit="10" stroke-width="5"/><path d="M534.48,355.46c52.2,36.9,163.6,118.4,166.4,121.7s-.5,14-39,132.5c-13.9,42.6-25.8,79.5-26.6,82l-1.3,4.5-114.3-.3c-62.9-.2-114.5-.5-114.7-.7-1.5-1.6-69.1-213-69.1-216.2,0-1.6,9.7-8.8,84-62.4,82-59.3,98.4-70.9,99.6-70.9C520.08,345.66,526.88,350.06,534.48,355.46Z" fill="none" stroke="#000" stroke-miterlimit="10" stroke-width="5"/><path d="M221.38,449.86c17.1,8.3,40.3,19.7,51.7,25.4l20.7,10.3,10.4,32.3c5.8,17.8,22.3,68.4,36.6,112.5s26.1,80.8,26.1,81.5-5.3,7.1-11.7,14.3c-17.9,20-52.4,57.5-52.8,57.5-.6,0-46.5-10.6-116.4-26.9-47.7-11.1-55.7-13.2-57.1-15.1-2.9-3.8-15.6-28.9-20.5-40.5-7.4-17.3-16.2-41.5-20.5-56.3-6.9-23.5-15-64.8-15-76.2.1-5.2-4-.2,71.3-86.8,36.2-41.7,42.2-48.2,44.1-47.6C189.38,434.56,204.38,441.66,221.38,449.86Z" fill="none" stroke="#000" stroke-miterlimit="10" stroke-width="5"/><path d="M859.48,442.86c11.3,11.9,31.1,34.1,63.9,71.8,17,19.5,33.5,38.5,36.8,42.2l5.9,6.8-1.7,12.7c-5.9,46.1-22.9,101.8-43.5,143.1-8.2,16.4-13,23.2-17.7,25-2.6,1.1-91.2,21.7-142.3,33.1l-22.4,5.1-3.8-2.6c-4.7-3.3-13.6-12.6-33.9-35.4-21-23.7-27.9-32.1-27.9-34,0-3.5,68.5-214.2,70.7-217.6.5-.7,3.2-2.6,6-4.3,17.2-10.1,99.6-53,101.9-53.1C852.08,435.66,855.68,439,859.48,442.86Z" fill="none" stroke="#000" stroke-miterlimit="10" stroke-width="5"/><path d="M653.88,753.86c30.6,34.1,48,54.1,48,55.2,0,2.1-60.8,104.3-81.7,137.3l-6.8,10.8-8.7,2.2c-19.7,4.9-45.9,7.3-82.3,7.3-43.8,0-83.2-3.8-95.1-9.2-1.6-.8-5.5-6-10.6-14.2-10.8-17.3-71.4-118.2-76.2-126.9l-3.8-6.8,7.5-9.2c4.2-5,17.8-20.9,30.4-35.2l22.9-26,111.9-.5c61.6-.3,116.1-.6,121-.7l9-.3Z" fill="none" stroke="#000" stroke-miterlimit="10" stroke-width="5"/><path d="M225.88,807.76c41.3,9.5,70.2,16.8,71.8,18.1,2.7,2.3,68.7,113.7,67.8,114.5s-7.4-1.7-26.9-10.4c-23.1-10.2-29.7-13.6-44-22-39.9-23.6-78.2-54.4-106.5-85.6-13.1-14.4-23.2-26.4-23.2-27.6C164.88,794,176.28,796.36,225.88,807.76Z" fill="none" stroke="#000" stroke-miterlimit="10" stroke-width="5"/><path d="M871.88,795.46c0,1.4-12.5,16.4-23.6,28.4-45.6,49-104.9,89.7-163.9,112.4-6,2.3-11.1,4.1-11.3,3.9s19.5-34.2,48.9-83.7c17-28.5,19.2-31.7,22.1-32.7,1.8-.5,17.9-4.4,35.8-8.6C872.58,793.56,871.88,793.66,871.88,795.46Z" fill="none" stroke="#000" stroke-miterlimit="10" stroke-width="5"/></svg>