<svg id="b6485733-8032-4ea0-8cec-3173eb2c5253" data-name="Calque 1" xmlns="http://www.w3.org/2000/svg" viewBox="0 0 428.98 499.7"><path d="M339.11,92.94c0-3-2.12-43.19-1-47.49s-8.48-25-8.68-25.54c-.67-1.67-7.82,3.13-14.93,8.18-10.48,7.43-19,14-25.07,18.88a2,2,0,0,0-.56.64L271.54,68.94c-.49.81-5.06,2.93-6,3.23-7.34,2.45-3.1,2-8.91,1.53-17.44-1.25-46.24-4.38-79.8,4.4-30.2,7.9-38.5,11.4-60,25.8-12.6,8.4-24.5,18-24.5,19.9,0,1.3,5.5,1.1,13-.6,7.2-1.6,25-2,25-.6,0,.5-4.2,3.5-9.2,6.6-18,11.2-47.9,35.6-63.8,52.1C39.17,200.2,28,216.2,15.27,242c-1.9,3.8,6.9.3,19.2-7.6,5.6-3.6,18.4-8.1,20-7.1s1,3.2-2.2,10.7c-6.2,14.4-9.3,31.2-9.2,50.7,0,32,8.3,59.3,28.4,93.7,14.6,24.8,38.9,47.2,70.8,64.8,27.1,15,67.2,28.5,97,32.6a175.94,175.94,0,0,1,18.5,3.4,38.12,38.12,0,0,0,10.4,1.5c7.4,0,7,.5,10.8-16,3.4-15,4.6-31.7,3.4-44.9-1.9-20.2-6.8-34.3-18-52.2-14.1-22.6-25.1-49-28.5-68.3-1.9-11.1-1.9-26,0-35.1,3.1-14.8,13.9-30.9,26.3-39l2.63-1.71a2.4,2.4,0,0,1,3.05.35l12.82,13.36c7.8,8.2,17.7,17.5,22.1,20.7,10.7,8,26.2,15.3,36.7,17.3,2.1.4,3,1.8,5.8,9.2,2.7,6.9,4.4,9.7,8.5,13.8,10.3,10.3,20.9,11,40.9,2.5,6.5-2.7,8.5-4.1,11.1-7.8,3.5-4.8,5.7-10.8,7.6-20.7,1.1-5.5.9-6.8-1.8-16.5-2.4-8.9-4-12.3-9.8-21-7.5-11.5-9.3-15.5-14.9-33.5-10-32.3-27-67.3-43.5-89.5Z" fill="#fff"/><path d="M426,255.74c-2.8-10.35-5.11-15.34-11.75-25.3-6.45-9.9-7.74-12.49-13.09-29.67-10-32.4-27-67.7-43.71-91.15l-3.41-18.26c0-1.27-.13-3.27-.27-6.64-.33-7.79-1.32-31-1-36.41,1.13-5,.59-11.72-9.53-34.06l-.13-.3a15.48,15.48,0,0,0-9.87-8.73c-8.46-2.49-15.26,1.93-27.51,10.63C297,22.1,288.33,28.63,280.05,35.24a16.64,16.64,0,0,0-3.22,3.38l-15.43,19c-.34.17-.68.32-.93.43-.8.27-1.49.51-2.08.73l-.64,0-4.08-.31c-18.77-1.43-47.14-3.59-80.6,5.16-32,8.38-41.7,12.55-64.52,27.83-6.42,4.28-13,9.1-18.1,13.22-7.66,6.2-13.08,11.21-13.08,19.16a15.41,15.41,0,0,0,5.85,12.11A17,17,0,0,0,84.78,137c-14.16,11.22-28.62,23.92-38.21,33.88C27.16,191.05,15,208.53,1.86,235.29a15.89,15.89,0,0,0,3.32,19.19c8.3,7.47,18.67,2.69,22.58.9,1.22-.56,2.51-1.2,3.88-1.92a157.56,157.56,0,0,0-3.57,35.24c0,34.46,9.11,64.74,30.47,101.31C74.59,417.27,101,441.58,135,460.32c28.69,15.89,70.73,30,102.19,34.34,7.5,1,14.4,2.4,16.06,2.85a53.37,53.37,0,0,0,14.91,2.19h1c4.29,0,12.55-.25,18.06-8.28,2.83-4.13,3.87-8.63,5.92-17.59l.42-1.81c3.73-16.45,5.08-34.52,3.71-49.62-2.11-22.39-7.78-38.87-20.21-58.74-13-20.84-23.39-45.56-26.44-62.89-1.59-9.24-1.63-22.2-.11-29.49,1.81-8.64,7.5-18.37,14.24-25l5,5.23c7.35,7.72,18.25,18.18,24.06,22.43a124.85,124.85,0,0,0,36.92,18.54c.14.36.3.76.46,1.2l.06.16c3.09,7.88,5.65,12.72,11.86,18.94,18.58,18.58,39.4,13.33,57.32,5.72,8-3.33,12.71-6.13,17.49-12.9s7.79-14.4,10.12-26.54C429.85,270.25,428.94,266.16,426,255.74Zm-27.38,17.52,0,.11c-1.8,9.39-3.53,12.7-5,14.69l-.15.22c-.27.38-.43.58-.5.67a29.61,29.61,0,0,1-4.08,1.9l-.12,0c-17.63,7.49-20.48,4.64-24.42.69-2.27-2.26-3-3.09-5.11-8.58-2.93-7.75-6.28-16.5-17-18.54-8.3-1.58-21.71-8-30.53-14.58l-.16-.12c-3.17-2.31-12.19-10.64-20.1-19l-12.82-13.37a17.42,17.42,0,0,0-22.05-2.53L254,216.64c-15.68,10.24-28.85,29.73-32.78,48.5-2.29,10.95-2.33,27.68-.09,40.76,3.74,21.21,15.44,49.43,30.55,73.66,10,15.95,14.12,27.9,15.78,45.6,1.08,11.88-.07,26.92-3.08,40.17l-.41,1.78-.48,2.09c-.35-.07-.63-.13-.82-.19l-.33-.11c-3.78-1.2-13.63-2.93-21-4-27.78-3.82-66.38-16.8-91.8-30.87-25-13.78-45-30.7-58.62-49.39h0c1.54-9-3.53-49.69,1.15-61.27,5.68-17.83,8.89-30.18,27.58-58.21,11.32-17,10.63-19.84,35.91-47.92,46.47-52.33,65.23-66.64,80.68-78.21,8.42-6.3,21.46-13.29,37.18-25,4.34-3.25,6.8-8.5,9.1-15.16,2.64-7.63,1.75-12.42,5-21.76a62.54,62.54,0,0,1,4-9l8.36-10.3C307,52.11,314.45,46.53,322,41.16c.58,1.66.9,2.76,1.08,3.43-.49,4.48-.41,13.65.78,41.4.13,3.08.26,6.26.28,7v1.34l5.14,27.55,2.07,2.78c15.51,20.87,31.69,54.23,41.22,85,6,19.23,8.32,24.45,16.66,37.23l.08.13c5,7.44,5.83,9.3,7.8,16.59l0,.11c.64,2.31,1.84,6.6,1.88,7.55,0,.11-.05.53-.34,2Z"/></svg>