<svg xmlns="http://www.w3.org/2000/svg" viewBox="0 0 428.98436 495.16916"><defs><style>.a,.b{fill:#fff;}.b{stroke:#000;stroke-miterlimit:10;stroke-width:30px;}</style></defs><title>horse</title><path class="a" d="M339.086,88.40429c0-3-2.12125-43.18937-1.02127-47.48938,1.2-4.3-8.48087-25.0319-8.68085-25.5319-.6683-1.67089-7.825,3.12378-14.93619,8.17021-10.47922,7.43655-18.96753,14.00326-25.06988,18.88141a2.367,2.367,0,0,0-.55762.64138L271.51151,64.40429c-.48452.81134-5.06094,2.93521-5.95745,3.234-7.34043,2.4468-3.10065,1.95017-8.91275,1.53189-17.44162-1.25525-46.24265-4.3782-79.8,4.4-30.2,7.9-38.5,11.4-60,25.8-12.6,8.4-24.5,18-24.5,19.9,0,1.3,5.5,1.1,13-.6,7.2-1.6,25-2,25-.6,0,.5-4.2,3.5-9.2,6.6-18,11.2-47.9,35.6-63.8,52.1-18.2,18.9-29.4,34.9-42.1,60.7-1.9,3.8,6.9.3,19.2-7.6,5.6-3.6,18.4-8.1,20-7.1,1.5.9,1,3.2-2.2,10.7-6.2,14.4-9.3,31.2-9.2,50.7,0,32,8.3,59.3,28.4,93.7,14.6,24.8,38.9,47.2,70.8,64.8,27.1,15,67.2,28.5,97,32.6a175.808,175.808,0,0,1,18.5,3.4,38.17218,38.17218,0,0,0,10.4,1.5c7.4,0,7,.5,10.8-16,3.4-15,4.6-31.7,3.4-44.9-1.9-20.2-6.8-34.3-18-52.2-14.1-22.6-25.1-49-28.5-68.3-1.9-11.1-1.9-26,0-35.1,3.1-14.8,13.9-30.9,26.3-39l2.63311-1.7146a2.402,2.402,0,0,1,3.044.34988l12.82291,13.36469c7.8,8.2,17.7,17.5,22.1,20.7,10.7,8,26.2,15.3,36.7,17.3,2.1.4,3,1.8,5.8,9.2,2.7,6.9,4.4,9.7,8.5,13.8,10.3,10.3,20.9,11,40.9,2.5,6.5-2.7,8.5-4.1,11.1-7.8,3.5-4.8,5.7-10.8,7.6-20.7,1.1-5.5.9-6.8-1.8-16.5-2.4-8.9-4-12.3-9.8-21-7.5-11.5-9.3-15.5-14.9-33.5-10-32.3-27-67.3-43.5-89.5Z" transform="translate(0.0278 -0.00003)"/><path class="b" d="M291.85194-4.5319" transform="translate(0.0278 -0.00003)"/><path d="M426.01044,251.20923c-2.8-10.35-5.11-15.34-11.75-25.3-6.45-9.9-7.74-12.49-13.09-29.67-10.03-32.4-27-67.7-43.71-91.15l-3.41-18.25995c-.04-1.27-.12995-3.27-.27-6.64-.33-7.79-1.32-31.01-.97-36.41,1.13-5.00994.59-11.72-9.53-34.06l-.13-.3a15.465,15.465,0,0,0-9.87-8.73c-8.46-2.49-15.26,1.93-27.51,10.63-8.81,6.25-17.47,12.78-25.75,19.39a16.9059,16.9059,0,0,0-3.22,3.38l-15.43,19.00995c-.34.17005-.68.32-.93.43006-.8.27-1.49.50994-2.08.73-.2-.02-.42-.03-.64-.05-1.3-.09-2.66-.2-4.08-.31-18.77-1.43-47.14-3.59-80.6,5.16-32.05,8.38-41.7,12.55-64.52,27.83-6.42,4.28-13.02,9.1-18.1,13.22-7.66,6.2-13.08,11.21-13.08,19.16a15.42236,15.42236,0,0,0,5.85,12.11,16.97455,16.97455,0,0,0,1.56,1.11c-14.16,11.22-28.62,23.92-38.21,33.88-19.41,20.15-31.54,37.63-44.71,64.39a15.88759,15.88759,0,0,0,3.32,19.19c8.3,7.47,18.67,2.69,22.58.9,1.22-.56006,2.51-1.2,3.87994-1.92a158.0848,158.0848,0,0,0-3.57,35.24c0,34.46,9.11,64.74,30.47,101.31,16.05,27.26,42.5,51.57,76.47,70.31,28.69,15.89,70.73,30.01,102.19,34.34,7.5,1.04,14.4,2.4,16.06,2.85a53.39844,53.39844,0,0,0,14.91,2.18994h1.03c4.29,0,12.55-.24994,18.06-8.28,2.83-4.13,3.87-8.63006,5.92-17.59l.42-1.81c3.73-16.45,5.08-34.52,3.71-49.62-2.11-22.39-7.78-38.87-20.21-58.74-13.01-20.84-23.39-45.56006-26.44-62.89-1.59-9.24-1.63-22.2-.11-29.49,1.81-8.64,7.5-18.37,14.24-24.97l5.01,5.23005c7.35,7.72,18.25,18.18,24.06,22.43a124.86159,124.86159,0,0,0,36.92,18.54c.14.36.3.76.46,1.2l.06.16c3.09,7.88,5.65,12.72,11.86,18.94,18.58,18.57995,39.4,13.32995,57.32,5.72,8.02-3.33,12.71-6.13,17.49-12.9,4.85-6.69,7.79-14.4,10.12-26.54C429.82043,265.71924,428.9104,261.62921,426.01044,251.20923Zm-27.38013,17.52-.02.11c-1.8,9.39-3.53,12.7-4.99,14.69l-.15.22c-.27.38-.43.58-.5.67a29.91482,29.91482,0,0,1-4.08,1.9l-.12.05c-17.63,7.49-20.48,4.64-24.42.69-2.27-2.26-2.96-3.09-5.11-8.57995-2.93-7.75-6.28-16.5-16.99-18.54-8.3-1.58-21.71-7.99-30.53-14.58l-.16-.12c-3.17-2.31-12.19-10.64-20.1-18.95l-12.82-13.37a17.41467,17.41467,0,0,0-22.05-2.53l-2.65,1.72c-15.68,10.24-28.85,29.73-32.78,48.5-2.29,10.95-2.33,27.68-.09,40.76,3.74,21.21,15.44,49.43,30.55,73.66,9.99,15.95,14.12,27.9,15.78,45.6,1.08,11.88-.07,26.92-3.08,40.17l-.41,1.78c-.16.7-.32,1.4-.48,2.09-.35-.07-.63-.13-.82-.19l-.32995-.11c-3.78-1.2-13.63-2.93-20.99-3.96-27.78-3.82-66.38-16.8-91.8-30.87-24.97-13.78-45.01-30.7-58.62-49.39v-.01l-.00067-.00091.00073.00085c1.54-8.97-3.53-49.69,1.15-61.27,5.68-17.83,8.89-30.18,27.58-58.21,11.32-16.98,10.63-19.84,35.91-47.92,46.47-52.33,65.23-66.64,80.68005-78.21,8.42-6.3,21.46-13.29,37.18-25.03,4.34-3.25,6.8-8.5,9.1-15.16,2.64-7.63,1.75-12.42,5.04-21.76a61.93775,61.93775,0,0,1,4.03-9.05l8.35986-10.3c7.11-5.65,14.52-11.23,22.05-16.6.57995,1.66.9,2.76,1.07995,3.43-.49,4.48005-.41,13.65.78,41.4.13,3.07995.26,6.26.28,6.99v1.34l5.14,27.55005,2.07,2.78c15.51,20.87,31.69,54.23,41.22,85.01,5.98,19.23,8.32,24.45,16.66,37.23l.08.13c4.96,7.44,5.83,9.3,7.8,16.59l.03.11c.64,2.31,1.84,6.6,1.88,7.55C398.96027,266.84918,398.92029,267.26917,398.63031,268.72919Z" transform="translate(0.0278 -0.00003)"/></svg>