<svg id="a683ce16-0ed1-4d2d-ac35-044bf78bd7ec" data-name="Calque 1" xmlns="http://www.w3.org/2000/svg" viewBox="0 0 513.12 479.31"><path d="M494.1,432c-.37,5.56-14.45,13.14-43.4,19.21-95.05,20-264.87,5.82-347.73,10.2-9.17.49-43.08,2.56-61.29-15.81-8-8.13-16.39-23.63-19.28-31.1a62,62,0,0,1-3.4-13,49.77,49.77,0,0,1-.4-7c0-8.6,2.2-16,4.9-16,.6,0,5.9,1,11.8,2.2l10.7,2.2.6,3.7c1.5,8.6,12.6,22.5,22.9,28.8,9.7,5.8,18.6,8.3,32.5,8.9,14.8.6,25-.7,41.6-5.4,15-4.3,16.6-5.7,18.4-16.7l1.2-7.7h22.1l-.7,10.3c-.8,12.1.3,15.7,5.6,17.6,4.5,1.6,201.3,1.6,205.8,0,3.9-1.4,4.9-3.3,9.5-18.1,2-6.5,4-11.9,4.4-12.2a67.18,67.18,0,0,1,8-1.1l7.2-.7v12.6c0,14,.8,16.8,5.4,18.9,1.8.9,14.3,2.6,29.6,4.2,28.29,2.79,33.08,3.23,33.86,4.66A2.13,2.13,0,0,1,494.1,432Z" fill="#fff"/><path d="M18.6,327.82l4,1.4c19.8,6.8,106.9,16.7,147,16.7,39-.1,65.8-6.2,89.5-20.2,14.5-8.6,28.7-14,54.5-20.5,35.5-9.1,77.9-16.3,132-22.5l15-1.7,2.2-7.7c9.7-34.2,3-72.3-18.7-105.9l-4-6.2v-41.3c0-39.8-.1-41.5-2.2-47.1-3.3-9.1-13.8-18.8-31.8-29.5-21.2-12.5-40.7-22.5-47.5-24.3-9.4-2.4-15.6-1.6-25,3.3-4.7,2.4-13.2,10.9-16.9,17-4.7,7.6-9.1,8-17.2,1.6a61.75,61.75,0,0,0-11-6.9c-5-2.3-20.9-5.4-21.9-4.3-.3.3-.8,4.4-1.2,9l-.6,8.5,7.7.6c16.9,1.5,33.9,7.8,46.7,17.5,12.3,9.3,14.8,15,9.3,20.6-4.2,4.1-8.1,3.6-15.1-2.2-13.3-11-27.3-16.9-42.3-17.9l-8.7-.6-1.1,7.1c-1.7,10.1-1.8,9.7,4.2,11.1,6.4,1.4,18.4,7.4,25.9,13,8.8,6.5,17.4,14.9,17.9,17.5.6,3.2-1.5,8.2-4.1,9.5-4.5,2.5-7.6,1.3-15.8-5.6-12.2-10.4-21.5-15.7-31-17.7-3.1-.7-3.1-.7-4.8,5.1-.9,3.2-2.9,9.5-4.5,14.1s-3,8.5-3,8.8.9.4,2,.4c3.9,0,18.2,6.2,25.5,11.1,11.1,7.5,21.5,20.5,21.5,27,0,5.8-7.8,10.7-12.9,8a25.53,25.53,0,0,1-5.4-6.4c-6.7-10.4-18.4-18.5-32.3-22.1a54,54,0,0,0-5.9-1.3c-.1.1-2.5,4.7-5.4,10.1s-6.3,11.5-7.7,13.5l-2.4,3.5,4.3,2.7c10.1,6.3,24.1,26.9,24.1,35.6a8.3,8.3,0,0,1-8.1,8.3c-5.4,0-7-1.5-11.5-10.6-4.6-9.5-11.1-17.5-15.9-19.4-3.1-1.3-3.2-1.3-7.7,4.1-2.6,3-9.5,10.4-15.5,16.5L182,220.22l9,6.6c7.6,5.5,9.1,7.1,9.6,10,.8,3.9-1.4,9-4,10.1-5,1.9-7.4.9-20-8.4l-9.1-6.7-7.1,5.1c-3.9,2.8-9.2,6.4-11.8,7.9l-4.7,2.8L149,253c6,6.4,9.5,13.2,8.5,17-.9,3.5-5,6.5-8.9,6.5-3.5,0-4.9-1.2-10.7-8.9a29,29,0,0,0-7.9-6.9l-4.6-2.6-12.4,5.7c-6.8,3.1-13.6,6.1-15.1,6.6l-2.7,1,2.4,4.3c1.4,2.4,2.5,5.1,2.5,6.1,0,3.3-2.8,7.4-6,8.7-4.8,2-9-.5-13-7.5-2.4-4.3-3.6-5.5-4.9-5-.9.4-9.7,2.7-19.6,5.1-38.6,9.6-38.7,9.7-38.3,31.8ZM511,417.76c3.34,4.86,1.85,11.15,1.06,13.76-3.29,17.75-1.43,18.42-4.21,22.27-4.05,5.62-12.76,8.17-12.76,8.17-48.44,13.39-55.92,13.53-55.92,13.53-281.08,5.15-304.32,4.2-350.81,2.3-13.51-.56-47.05-1.84-66.63-24.51-6.83-7.9-10.43-16.63-13-22.76-11.75-28.42-6.57-52.37-5.2-55,1.2-2.3,1-2.8-1.1-5.4L0,367.32l.3-35.2c.3-34.2.4-35.2,2.6-40.2,2.8-6.2,10-13.4,16.7-16.8,5.3-2.6,9.5-3.8,30-8.6,58.3-13.7,109-43.5,143.1-84.3,31.9-38,50.2-86.3,54.4-143.2.6-8.3,1.3-16.4,1.6-18.1.7-4.9,4-7.2,12.2-8.4,12.4-2,28.5,1.1,40.1,7.6l4.8,2.8,5.4-5.5c9.3-9.5,16.9-13.9,28.4-16.5,7.5-1.7,18.3-1,26.7,1.7,12.7,4.1,55.7,28.1,68.5,38.1a65.66,65.66,0,0,1,17.1,19.8c5.9,10.4,6.2,13.4,6.2,56.3v38.8l5.1,8.5c15.8,26.2,22.6,51.9,21.6,81.3-.5,16.5-1.9,24.5-6.9,40-2.8,8.7-3.2,12.4-6.2,50.3-3.9,48.4-2.3,44.2-18.3,48.4l-10.3,2.7v19.3l27.8,2.8c27.09,2.73,33.88,3.51,37.46,6.1A11.81,11.81,0,0,1,511,417.76ZM494.1,432a2.13,2.13,0,0,0-.14-1.34c-.78-1.43-5.57-1.87-33.86-4.66-15.3-1.6-27.8-3.3-29.6-4.2-4.6-2.1-5.4-4.9-5.4-18.9v-12.6l-7.2.7a69.3,69.3,0,0,0-8,1.1c-.4.3-2.4,5.7-4.4,12.2-4.6,14.8-5.6,16.7-9.5,18.1-4.5,1.6-201.3,1.6-205.8,0-5.3-1.9-6.4-5.5-5.6-17.6l.7-10.3H163.2l-1.2,7.7c-1.8,11-3.4,12.4-18.4,16.7-16.6,4.7-26.8,6-41.6,5.4-13.9-.6-22.8-3.1-32.5-8.9-10.3-6.3-21.4-20.2-22.9-28.8l-.6-3.7-10.7-2.2c-5.9-1.2-11.2-2.2-11.8-2.2-2.7,0-4.9,7.4-4.9,16a49.77,49.77,0,0,0,.4,7,62,62,0,0,0,3.4,13c2.89,7.47,11.23,23,19.28,31.1C59.89,464,93.8,461.92,103,461.43c82.86-4.38,252.68,9.76,347.73-10.2C479.65,445.16,493.73,437.58,494.1,432Zm-104.6-36.8c.6-2.7.6-2.7-4.6-2.7a120.64,120.64,0,0,1-12.3-1c-16.9-2.4-16.5-1.6-16.5-29.3,0-19.1-.1-20.7-1.7-20.6-3.8.2-18.3,3.1-27,5.4-25.6,6.8-57.2,22.5-75.3,37.5a52.64,52.64,0,0,1-6.5,4.7c-1.9,1-15.1,2.5-33.7,3.9l-8.8.7v11.7l91.6-.2,91.7-.3,1.2-3.5C388.3,399.62,389.1,396.82,389.5,395.22Zm-245,2.9c1.2-4.5,1-4.6-8.1-4.6-10.9,0-27.7-1.4-49.3-4.1-9.1-1.1-17.6-2.3-18.9-2.6l-2.4-.6,1.9,3.3c4.1,7,14.6,13.7,25.2,15.9,11.2,2.3,27.9,1,44.9-3.5C142.4,400.62,144.1,399.72,144.5,398.12Z"/><path d="M76.2,278c1.3-.5,2.5.7,4.9,5,4,7,8.2,9.5,13,7.5,3.2-1.3,6-5.4,6-8.7,0-1-1.1-3.7-2.5-6.1l-2.4-4.3,2.7-1c1.5-.5,8.3-3.5,15.1-6.6l12.4-5.7,4.6,2.6a29,29,0,0,1,7.9,6.9c5.8,7.7,7.2,8.9,10.7,8.9,3.9,0,8-3,8.9-6.5,1-3.8-2.5-10.6-8.5-17l-5.1-5.4,4.7-2.8c2.6-1.5,7.9-5.1,11.8-7.9l7.1-5.1,9.1,6.7c12.6,9.3,15,10.3,20,8.4,2.6-1.1,4.8-6.2,4-10.1-.5-2.9-2-4.5-9.6-10l-9-6.6,10.8-11.1c6-6.1,12.9-13.5,15.5-16.5,4.5-5.4,4.6-5.4,7.7-4.1,4.8,1.9,11.3,9.9,15.9,19.4,4.5,9.1,6.1,10.6,11.5,10.6a8.3,8.3,0,0,0,8.1-8.3c0-8.7-14-29.3-24.1-35.6l-4.3-2.7,2.4-3.5c1.4-2,4.8-8,7.7-13.5s5.3-10,5.4-10.1a54,54,0,0,1,5.9,1.3c13.9,3.6,25.6,11.7,32.3,22.1a25.53,25.53,0,0,0,5.4,6.4c5.1,2.7,12.9-2.2,12.9-8,0-6.5-10.4-19.5-21.5-27-7.3-4.9-21.6-11.1-25.5-11.1-1.1,0-2-.2-2-.4s1.3-4.2,3-8.8,3.6-10.9,4.5-14.1c1.7-5.8,1.7-5.8,4.8-5.1,9.5,2,18.8,7.3,31,17.7,8.2,6.9,11.3,8.1,15.8,5.6,2.6-1.3,4.7-6.3,4.1-9.5-.5-2.6-9.1-11-17.9-17.5-7.5-5.6-19.5-11.6-25.9-13-6-1.4-5.9-1-4.2-11.1l1.1-7.1,8.7.6c15,1,29,6.9,42.3,17.9,7,5.8,10.9,6.3,15.1,2.2,5.5-5.6,3-11.3-9.3-20.6-12.8-9.7-29.8-16-46.7-17.5l-7.7-.6.6-8.5c.4-4.6.9-8.7,1.2-9,1-1.1,16.9,2,21.9,4.3a61.75,61.75,0,0,1,11,6.9c8.1,6.4,12.5,6,17.2-1.6,3.7-6.1,12.2-14.6,16.9-17,9.4-4.9,15.6-5.7,25-3.3,6.8,1.8,26.3,11.8,47.5,24.3,18,10.7,28.5,20.4,31.8,29.5,2.1,5.6,2.2,7.3,2.2,47.1v41.3l4,6.2c21.7,33.6,28.4,71.7,18.7,105.9l-2.2,7.7-15,1.7c-54.1,6.2-96.5,13.4-132,22.5-25.8,6.5-40,11.9-54.5,20.5-23.7,14-50.5,20.1-89.5,20.2-40.1,0-127.2-9.9-147-16.7l-4-1.4-.3-12.9c-.4-22.1-.3-22.2,38.3-31.8C66.5,280.72,75.3,278.42,76.2,278Z" fill="#fff"/></svg>