<?xml version="1.0" encoding="utf-8"?>
<!-- Generator: Adobe Illustrator 24.0.0, SVG Export Plug-In . SVG Version: 6.00 Build 0)  -->
<svg version="1.1" id="Capa_1" xmlns="http://www.w3.org/2000/svg" xmlns:xlink="http://www.w3.org/1999/xlink" x="0px" y="0px"
	 viewBox="0 0 493.2 493.2" style="enable-background:new 0 0 493.2 493.2;" xml:space="preserve">
<style type="text/css">
	.st0{fill:#FFFFFF;}
</style>
<g id="XMLID_1_">
	<g>
		<path class="st0" d="M348.2,224.6c4.6,21.2-33.1,47.6-85.5,60.7l-22.3,4l52.9-89.4l18.4,2.5C332,205.7,345.8,213.3,348.2,224.6z"
			/>
		<path class="st0" d="M251.9,203.2L199.3,292l-19.2-0.9c-20.3-3.3-34.1-10.9-36.6-22.1c-4.6-21.2,33.1-47.6,85.5-60.7L251.9,203.2z
			"/>
		<path d="M487,194.5c1.3,6.3-0.6,12.8-5.1,16.9c-35.6,32.8-114.9,96-218,118.4c-10.3,2.2-20.5,3.9-30.6,5.2l29.4-49.7
			c52.4-13.1,90.1-39.5,85.5-60.7c-2.4-11.3-16.2-18.9-36.5-22.2l27.8-46.9c58,3.1,107.2,16.3,135.9,25.7
			C481.2,183.1,485.6,188.2,487,194.5z"/>
		<path d="M408,45.5c0.8,3.5,0.2,7.1-1.5,10l-28.9,49c-5.5,9.4-14.4,16-24.7,18.2c-4.7,1-9.4,1-14.1,0.2l-45.5,77l-52.9,89.4
			l-59.6,100.8c2.6,4.3,4.6,9,5.7,14c2.4,11.1,0.7,22.6-4.9,32l-28.9,49c-3.6,6.1-11.3,7.8-17.1,3.8l-46.5-32.5
			c-2.8-2-4.7-5-5.5-8.5c-0.8-3.5-0.2-7,1.5-10l29-49c8.5-14.3,23.8-20.9,38.8-18.4l46.4-78.5l52.5-88.8l59-99.8
			c-8.3-13.7-9.2-31.7-0.7-46l28.9-49c3.6-6.1,11.3-7.8,17.1-3.7L402.5,37C405.3,39,407.3,42,408,45.5z"/>
		<path d="M258.4,158.6L229,208.3c-52.4,13.1-90.1,39.5-85.5,60.7c2.5,11.2,16.3,18.8,36.6,22.1l-27.8,47
			c-58-3.1-107.2-16.3-135.9-25.7c-5.8-1.9-10.2-7-11.6-13.3c-1.4-6.3,0.5-12.8,5-16.9c35.5-32.8,114.9-96,218-118.4
			C238.1,161.6,248.3,159.9,258.4,158.6z"/>
	</g>
	<g>
	</g>
</g>
</svg>
