<svg id="e62e8612-69f0-4efd-9ac6-1494a367aba0" data-name="Capa 1" xmlns="http://www.w3.org/2000/svg" viewBox="0 0 483.05 488.6"><path d="M343.85,222.14c4.6,21.2-33.1,47.6-85.5,60.7l-22.3,4,52.9-89.4,18.4,2.5C327.65,203.24,341.45,210.84,343.85,222.14Z" fill="#fff"/><path d="M247.55,200.74,195,289.54l-19.2-.9c-20.3-3.3-34.1-10.9-36.6-22.1-4.6-21.2,33.1-47.6,85.5-60.7Z" fill="#fff"/><path d="M482.65,192a17.94,17.94,0,0,1-5.1,16.9c-35.6,32.8-114.9,96-218,118.4-10.3,2.2-20.5,3.9-30.6,5.2l29.4-49.7c52.4-13.1,90.1-39.5,85.5-60.7-2.4-11.3-16.2-18.9-36.5-22.2l27.8-46.9c58,3.1,107.2,16.3,135.9,25.7A17.88,17.88,0,0,1,482.65,192Z"/><path d="M403.65,43a13.78,13.78,0,0,1-1.5,10l-28.9,49a37.92,37.92,0,0,1-24.7,18.2,37.17,37.17,0,0,1-14.1.2l-45.5,77-52.9,89.4-59.6,100.8a46.38,46.38,0,0,1,5.7,14,44.31,44.31,0,0,1-4.9,32l-28.9,49a11.83,11.83,0,0,1-17.1,3.8l-46.5-32.5a14.16,14.16,0,0,1-5.5-8.5,13.86,13.86,0,0,1,1.5-10l29-49c8.5-14.3,23.8-20.9,38.8-18.4l46.4-78.5,52.5-88.8,59-99.8c-8.3-13.7-9.2-31.7-.7-46l28.9-49a11.73,11.73,0,0,1,17.1-3.7l46.4,32.3A13.74,13.74,0,0,1,403.65,43Z"/><path d="M254.05,156.14l-29.4,49.7c-52.4,13.1-90.1,39.5-85.5,60.7,2.5,11.2,16.3,18.8,36.6,22.1l-27.8,47c-58-3.1-107.2-16.3-135.9-25.7a17.88,17.88,0,0,1-11.6-13.3,17.66,17.66,0,0,1,5-16.9c35.5-32.8,114.9-96,218-118.4C233.75,159.14,244,157.44,254.05,156.14Z"/></svg>