<?xml version="1.0" encoding="utf-8"?>
<!-- Generator: Adobe Illustrator 24.0.0, SVG Export Plug-In . SVG Version: 6.00 Build 0)  -->
<svg version="1.1" id="Calque_1" xmlns="http://www.w3.org/2000/svg" xmlns:xlink="http://www.w3.org/1999/xlink" x="0px" y="0px"
	 viewBox="0 0 50 50" style="enable-background:new 0 0 50 50;" xml:space="preserve">
<style type="text/css">
	.st0{fill:#FFFFFF;}
</style>
<g id="XMLID_1_">
	<g>
		<path class="st0" d="M4.4,39.8c-1.5-3.2,0-7,3.2-8.5c2-0.9,4.3-0.7,6,0.5l-2.9,3.3c-0.5-0.1-1-0.1-1.4,0.1c-1.1,0.5-1.5,1.7-1,2.8
			s1.7,1.6,2.8,1.1c0.8-0.4,1.3-1.2,1.2-2.1l3.6-2.5v0.1c1.5,3.2,0.1,7-3.1,8.4S5.9,43,4.4,39.8z"/>
		<path class="st0" d="M39.2,24.1c0.5,1.1,1.7,1.6,2.8,1.1s1.5-1.7,1-2.8s-1.7-1.6-2.8-1.1c-0.3,0.1-0.6,0.4-0.8,0.6
			c-0.2-0.1-0.4-0.2-0.6-0.3c-0.1-0.1-0.4-0.4-0.9-0.8c-0.5-0.4-1.1-1-1.8-1.6c0.6-0.7,1.4-1.3,2.3-1.8c3.2-1.4,6.9,0,8.4,3.2
			s0.1,7-3.1,8.4s-6.9,0-8.4-3.2c-0.7-1.6-0.7-3.3-0.2-4.8c1.1,1,2.1,1.9,2.4,2.2C38,23.6,38.6,23.9,39.2,24.1z"/>
		<path d="M7.6,31.3c-3.2,1.5-4.7,5.3-3.2,8.5s5.2,4.6,8.4,3.2s4.6-5.2,3.1-8.4v-0.1L12.3,37c0.1,0.9-0.4,1.7-1.2,2.1
			c-1.1,0.5-2.3,0-2.8-1.1s-0.1-2.3,1-2.8c0.4-0.2,0.9-0.2,1.4-0.1l2.9-3.3C11.9,30.6,9.6,30.4,7.6,31.3z M46.8,20.6
			c-1.5-3.2-5.2-4.6-8.4-3.2c-0.9,0.5-1.7,1.1-2.3,1.8c0.7,0.6,1.3,1.2,1.8,1.6c0.5,0.4,0.8,0.7,0.9,0.8c0.2,0.1,0.4,0.2,0.6,0.3
			c0.2-0.2,0.5-0.5,0.8-0.6c1.1-0.5,2.3,0,2.8,1.1s0.1,2.3-1,2.8s-2.3,0-2.8-1.1c-0.6-0.2-1.2-0.5-1.7-0.9c-0.3-0.3-1.3-1.2-2.4-2.2
			c-0.5,1.5-0.5,3.2,0.2,4.8c1.5,3.2,5.2,4.6,8.4,3.2S48.3,23.8,46.8,20.6z M40,14.6c0.8-0.1,1.7-0.1,2.5,0L42.4,15
			c0.4,0.1,0.8,0.2,1.2,0.3l0.1-0.4c0.8,0.3,1.6,0.6,2.3,1.1l-0.2,0.3c0.4,0.2,0.7,0.4,1,0.7l0.2-0.3c0.6,0.5,1.1,1.2,1.6,1.9
			l-0.3,0.2c0.2,0.4,0.4,0.7,0.6,1.1l0.3-0.2c0.3,0.7,0.6,1.6,0.7,2.4l-0.4,0.1c0.1,0.4,0.1,0.8,0.1,1.2H50c0,0.8-0.2,1.7-0.4,2.5
			l-0.4-0.1c-0.1,0.4-0.2,0.7-0.4,1.1l0.3,0.2c-0.2,0.4-0.4,0.7-0.6,1.1c-0.2,0.4-0.4,0.7-0.7,1l-0.3-0.3c-0.3,0.3-0.6,0.6-0.9,0.9
			l0.2,0.3c-0.6,0.5-1.3,1-2.1,1.3l-0.2-0.3c-0.3,0.2-0.7,0.3-1.1,0.4l0.1,0.4c-0.8,0.2-1.7,0.3-2.5,0.3v-0.4c-0.4,0-0.8,0-1.2-0.1
			l-0.1,0.4c-0.8-0.1-1.6-0.3-2.4-0.7l0.2-0.4c-0.4-0.2-0.8-0.4-1.1-0.6l-0.2,0.3c-0.7-0.5-1.4-1.1-1.9-1.7l0.3-0.2
			c-0.2-0.3-0.5-0.7-0.7-1L33.6,28c-0.4-0.7-0.8-1.5-1-2.3l0.4-0.1c-0.2-0.4-0.2-0.8-0.3-1.2l-0.4,0.1c-0.1-0.8-0.1-1.7,0-2.5
			l0.4,0.1c0.1-0.4,0.2-0.8,0.3-1.2l-0.4-0.1c0.1-0.5,0.3-1,0.5-1.4c-1.3-1.1-2.5-2.3-3.9-3.6c-0.3-0.4-0.3-0.4-0.7-0.7
			c-0.4,3-1.8,4.8-2.3,5.4c-0.2,0.2-0.5,0.4-0.8,0.5c-2.6,1.2-4.9,0.3-4.9,0.3l-1.9,1.1c0,0.2,0,0.3,0,0.5l-0.5,4.8l4.9-0.9l-1.4-3
			c1.2,0.1,2.9,0,4.7-0.8c0.2-0.1,0.4-0.2,0.6-0.3l1.8,3.9c0.7,1.6,0,3.5-1.6,4.2l-1,0.4l-5.7,0.2L18,33c0.1,0.2,0.2,0.5,0.3,0.7
			L18,33.8c0.2,0.4,0.3,0.8,0.4,1.2h0.3c0.2,0.8,0.3,1.7,0.3,2.5h-0.4c0,0.4,0,0.8-0.1,1.2l0.4,0.1c-0.2,0.8-0.4,1.6-0.8,2.4
			L17.8,41c-0.2,0.3-0.4,0.7-0.6,1l0.3,0.2c-0.5,0.7-1,1.4-1.7,1.9l-0.2-0.3c-0.3,0.3-0.7,0.5-1,0.7l0.2,0.3c-0.7,0.5-1.5,0.8-2.3,1
			l-0.1-0.4c-0.4,0.1-0.8,0.2-1.2,0.2V46c-0.8,0.1-1.7,0-2.5-0.1l0.1-0.4c-0.4-0.1-0.8-0.2-1.2-0.3l-0.1,0.4C6.7,45.3,6,45,5.3,44.5
			l0.2-0.3c-0.4-0.3-0.7-0.5-1-0.8l-0.3,0.3c-0.3-0.3-0.6-0.6-0.9-0.9c-0.2-0.3-0.5-0.6-0.7-1l0.3-0.2c-0.2-0.3-0.4-0.6-0.5-0.9
			c0-0.1-0.1-0.1-0.1-0.2L2,40.6c-0.3-0.8-0.5-1.7-0.6-2.5h0.4c0-0.4,0-0.8,0-1.2H1.4c0-0.9,0.1-1.7,0.4-2.5l0.4,0.1
			c0.1-0.4,0.2-0.7,0.4-1.1l-0.3-0.2c0.4-0.8,0.8-1.5,1.4-2.1L4,31.4c0.3-0.3,0.6-0.5,0.9-0.8l-0.2-0.3c0.6-0.5,1.3-1,2.1-1.3
			L7,29.5c0.3-0.2,0.7-0.3,1.1-0.4L8,28.7c0.8-0.2,1.7-0.3,2.5-0.3v0.4c0.4,0,0.8,0,1.2,0.1l0.1-0.4c0.8,0.2,1.6,0.4,2.4,0.8
			L14,29.6c0.3,0.2,0.7,0.4,1,0.6l0.3-0.4c0,0.1,0.1,0.1,0.1,0.1l0.4-0.5l0.6-5.8L14,25l-6.9,0.5l-1.9-1.2l-3.5,1.6
			c-0.5,0.2-1.2-0.1-1.4-0.6c-0.3-0.5,0-1.2,0.5-1.4l16-7.2l2.5-3.6c0.7-1,1.6-1.8,2.7-2.3l1.2-0.5c-0.1-0.1-0.7-0.7-0.8-0.8l-2.2,1
			c-0.5,0.2-1.2-0.1-1.4-0.6c-0.3-0.5,0-1.2,0.5-1.4l2.9-1.3C22.6,7,23,7.1,23.6,7.4c0,0,2.9,2.6,5.4,5l6.1-2.8
			c0.5-0.2,1.2,0.1,1.4,0.6c0.3,0.5,0,1.2-0.5,1.4L30.7,14c0.1,0.1,0.1,0.1,0.2,0.2c1.3,1.2,2.4,2.3,3.6,3.4c0.3-0.3,0.6-0.7,1-1
			l0.2,0.3c0.3-0.2,0.7-0.5,1-0.7l-0.2-0.3c0.7-0.4,1.5-0.8,2.3-1l0.1,0.4c0.4-0.2,0.8-0.2,1.2-0.3L40,14.6z"/>
	</g>
	<g>
	</g>
</g>
</svg>
