<?xml version="1.0" encoding="utf-8"?>
<!-- Generator: Adobe Illustrator 24.0.0, SVG Export Plug-In . SVG Version: 6.00 Build 0)  -->
<svg version="1.1" id="Capa_1" xmlns="http://www.w3.org/2000/svg" xmlns:xlink="http://www.w3.org/1999/xlink" x="0px" y="0px"
	 viewBox="0 0 427.9 427.9" style="enable-background:new 0 0 427.9 427.9;" xml:space="preserve">
<style type="text/css">
	.st0{fill:#FFFFFF;}
</style>
<g id="XMLID_1_">
	<g>
		<path class="st0" d="M157,241c77.2,5.3,183.4,1.7,263.7-43.1l4.4,3.2c-34.7,28-76.8,47.4-125.4,57.7c-27.6,5.8-57.3,8.8-88.7,8.9
			c-0.4,0-0.7,0-1.1,0c-17.6,0-35.7-0.9-54.3-2.7c-70.8-6.8-130-25.1-151.6-32.5l-0.1-15.1C24.5,222.4,84.7,236,157,241z"/>
		<path class="st0" d="M347.2,140.2c0,0,52.1,40.3,24.6,40.3C340.5,180.6,347.2,140.2,347.2,140.2z"/>
		<path d="M420.7,197.9C340.4,242.7,234.2,246.3,157,241c-72.3-5-132.5-18.6-153.1-23.6c2.1-10.7,6-20.3,6-20.3H125
			c0-26,16.2-47.1,36.2-47.1h82.5c0,0,4.6-29.4,17-49.9c-16.6-8.4-29.4-12.8-33.2-14H210c-6.4,0-11.6-6.8-11.6-15.1
			c0-8.4,5.2-15.1,11.6-15.1h18.7c0.8,0,1.7,0.2,2.5,0.4c1.9,0.6,25.3,7.6,54.2,24.6c4.3-0.3,9,0.5,14.1,2.8
			C339.7,102.1,390.1,159.1,420.7,197.9z M371.8,180.5c27.5,0-24.6-40.3-24.6-40.3S340.5,180.6,371.8,180.5z"/>
		<path d="M211,267.7c31.4-0.1,61.1-3.1,88.7-8.9c48.6-10.3,90.7-29.7,125.4-57.7c11.3,36.4-33.9,86.7-98.6,115.7
			c-0.5-0.3-1.1-0.5-1.6-0.7c-5.3-2.4-9.9-6-14.5-11.3c-2.1-2.6-4-5.6-6.1-8.7c-0.8-1.3-1.7-2.6-2.6-3.9c-1.4-1.9-3-2.9-4.6-2.9
			c-1.4,0-2.8,0.7-4,2.1c-1.1,1.4-2.2,2.8-3.3,4.1c-3.6,4.4-6.9,8.5-10.7,11.5c-6.4,5-14,7.6-22.6,7.8c-0.1,0-0.3,0-0.5,0
			c-8.2,0-17.3-4.3-23.8-11.2c-0.1-0.1-0.1-0.1-0.1-0.1c-4.3-4.4-7.4-10.8-10.7-17.6c-0.7-1.4-1.3-2.8-2-4.1
			c-0.2-0.5-0.5-0.9-0.7-1.4l-0.8-1.6l-1.6-3.1c-0.7-1.4-1.5-2.4-2.4-3.1c-0.9-0.7-1.9-1.1-2.9-1.1L211,267.7z"/>
		<path d="M209.9,267.7c0.4,0,0.7,0,1.1,0l0,3.8c-2,0-3.9,1.6-5.3,4.3l-9.3,18.6c-2.4,4.7-5.7,8.9-9.8,12.5
			c-3.3,2.8-7.2,4.9-12.8,6.8h-0.1c-2.7,0.9-5.6,1.4-8.7,1.4c-5.6,0-11.7-1.6-17-4.4c-4.9-2.5-9-6.7-13.1-11.3
			c-0.9-1.1-1.9-2.2-2.8-3.3c-1-1.1-1.9-2.2-2.9-3.3c-1.1-1.3-2.5-2-3.8-2c-1.6,0-3.2,1-4.5,2.9c-0.8,1.1-1.5,2.3-2.3,3.4
			c-3.4,5.1-6.7,10-10.7,13.4c-3.7,3.2-7.8,5.6-12.1,7.2c-40.9-16-73.8-40.5-89.2-73.4c-1.5-3.2-2.3-7.3-2.6-11.8
			c21.6,7.4,80.8,25.7,151.6,32.5C174.2,266.8,192.3,267.7,209.9,267.7z"/>
		<path d="M55.4,320.5c3.9,3.7,7.8,7.4,12.4,9.7c5.1,2.6,10.3,4.2,15.9,4.8c1.1,0.1,2.2,0.2,3.3,0.2c9.6,0,18.9-4.1,26.6-10.9
			c5.7-5.1,9.8-12.3,14.1-19c6.2,7.4,12.1,15.5,20.1,20c5.6,3.1,12.2,5.1,18.6,5.1c3.3,0,6.7-0.5,9.8-1.7c5.2-1.8,10-4.2,14.3-8.1
			c4.7-4.4,8.7-9.7,11.7-16c3-6.4,6.1-12.7,9.1-19.1c0.8,1.6,1.5,3.2,2.3,4.8c4.3,8.9,8.4,19.3,14.8,26.3c7,7.8,17,13.3,26.8,13.3
			c0.2,0,0.4,0,0.6,0c8.9-0.2,17.3-2.9,24.8-9.1c5.6-4.6,10.1-11.2,14.8-17c3,4.5,5.8,9.4,9.1,13.7c4.8,5.8,10,10.4,16.4,13.4
			c3.1,1.5,6.3,2.5,9.6,3c7.2,1.1,12.3,0.2,15.8-0.7c5.7-1.5,11.3-4.4,16.1-8.4c5-4.2,8.9-9.4,13-14.8c2.9,5.2,5.7,10.4,9.3,14.9
			c7.5,9.3,17.3,14.7,28,17c0.5,0.1,1,0.2,1.5,0.3v0.4c-1.3,0-2.6,0.1-3.9,0.1c-4.7,0-9.4-0.7-14-2.4c-7.7-2.9-14.9-7.9-20.7-14.7
			c-8,12.4-19.7,20.9-32.5,23.9c-3.6,0.8-7.1,1.2-10.7,1.2c-10.3,0-20.7-3.4-29.6-10c-1.9-1.3-3.8-2.8-5.5-4.5
			c-0.7-0.6-1.4-1.3-2.1-2c-0.5,0.5-0.9,1-1.4,1.5c-1.9,2-3.8,3.8-5.9,5.4c-6.5,5.2-13.7,8.5-21.3,10.5c-3.7,0.9-7.4,1.4-11.1,1.4
			c-16.4,0-33.2-8.8-43.9-23.5c-7.2,9.8-17,16.4-27.3,20.3c-5,1.9-10.5,2.8-16,2.8c-4,0-7.8-0.5-11.5-1.4c-7.2-1.8-14.1-5-20.3-9.8
			c-2.1-1.6-4.2-3.4-6.1-5.4c-0.5-0.6-1.1-1.1-1.6-1.7c-0.3-0.3-0.3-0.4-0.4-0.4c-0.1,0-0.1,0.1-0.4,0.4c-0.4,0.4-0.8,0.8-1.2,1.2
			c-1.7,1.6-3.3,3-5.1,4.3c-8.3,6.2-18.7,10.4-28.7,10.4c-1.3,0-2.6-0.1-3.9-0.2c-8.1-0.9-16.2-2.9-23.3-7.9
			c-3.8-2.6-7.2-5.5-10.5-9c-0.9-1-3-3.3-3-3.3s-0.7,0.7-1.2,1.1c-0.3,0.3-0.7,0.6-1.1,0.9c-1.7,1.5-3.5,2.8-5.4,4
			c-4,2.5-8.4,4.7-12.8,5.7c-3.6,0.9-7.1,1.2-10.7,1.2c-1.2,0-2.5,0-3.7-0.1v-0.3c3.8-0.8,7.5-1.7,11.2-3.4c3.1-1.4,6-3.1,8.8-5.1
			c3.4-2.6,6.4-5.6,9.4-8.9c1.9-2.1,5.6-7.2,5.6-7.2S54.8,319.9,55.4,320.5z"/>
	</g>
	<g>
	</g>
</g>
</svg>
