<svg id="f0e932e8-b7a5-40ec-99b3-dcde465f4c77" data-name="Capa 1" xmlns="http://www.w3.org/2000/svg" viewBox="0 0 422.93 297.1"><path d="M153.1,185.1c77.2,5.3,183.4,1.7,263.7-43.1l4.4,3.2c-34.7,28-76.8,47.4-125.4,57.7a438.6,438.6,0,0,1-88.7,8.9H206q-26.4,0-54.3-2.7A697.82,697.82,0,0,1,.1,176.6L0,161.5A955.06,955.06,0,0,0,153.1,185.1Z" fill="#fff"/><path d="M343.3,84.3s52.1,40.3,24.6,40.3C336.6,124.7,343.3,84.3,343.3,84.3Z" fill="#fff"/><path d="M416.8,142c-80.3,44.8-186.5,48.4-263.7,43.1A955.06,955.06,0,0,1,0,161.5a125.15,125.15,0,0,1,6-20.3H121.1c0-26,16.2-47.1,36.2-47.1h82.5s4.6-29.4,17-49.9a236.9,236.9,0,0,0-33.2-14H206.1c-6.4,0-11.6-6.8-11.6-15.1S199.7,0,206.1,0h18.7a10.86,10.86,0,0,1,2.5.4C229.2,1,252.6,8,281.5,25a29.09,29.09,0,0,1,14.1,2.8C335.8,46.2,386.2,103.2,416.8,142Zm-48.9-17.4c27.5,0-24.6-40.3-24.6-40.3S336.6,124.7,367.9,124.6Z"/><path d="M207.1,211.8a438.6,438.6,0,0,0,88.7-8.9c48.6-10.3,90.7-29.7,125.4-57.7,11.3,36.4-33.9,86.7-98.6,115.7a11.11,11.11,0,0,0-1.6-.7,41.86,41.86,0,0,1-14.5-11.3c-2.1-2.6-4-5.6-6.1-8.7-.8-1.3-1.7-2.6-2.6-3.9-1.4-1.9-3-2.9-4.6-2.9a5.33,5.33,0,0,0-4,2.1c-1.1,1.4-2.2,2.8-3.3,4.1-3.6,4.4-6.9,8.5-10.7,11.5a37.23,37.23,0,0,1-22.6,7.8h-.5c-8.2,0-17.3-4.3-23.8-11.2l-.1-.1c-4.3-4.4-7.4-10.8-10.7-17.6-.7-1.4-1.3-2.8-2-4.1-.2-.5-.5-.9-.7-1.4l-.8-1.6-1.6-3.1a8.79,8.79,0,0,0-2.4-3.1,4.77,4.77,0,0,0-2.9-1.1Z"/><path d="M206,211.8h1.1v3.8c-2,0-3.9,1.6-5.3,4.3l-9.3,18.6a42.08,42.08,0,0,1-9.8,12.5c-3.3,2.8-7.2,4.9-12.8,6.8h-.1a27.35,27.35,0,0,1-8.7,1.4,37.41,37.41,0,0,1-17-4.4c-4.9-2.5-9-6.7-13.1-11.3-.9-1.1-1.9-2.2-2.8-3.3s-1.9-2.2-2.9-3.3a5.15,5.15,0,0,0-3.8-2c-1.6,0-3.2,1-4.5,2.9-.8,1.1-1.5,2.3-2.3,3.4-3.4,5.1-6.7,10-10.7,13.4a39.6,39.6,0,0,1-12.1,7.2c-40.9-16-73.8-40.5-89.2-73.4A33.67,33.67,0,0,1,.1,176.6a697.82,697.82,0,0,0,151.6,32.5Q179.6,211.8,206,211.8Z"/><path d="M51.5,264.6c3.9,3.7,7.8,7.4,12.4,9.7a45,45,0,0,0,15.9,4.8c1.1.1,2.2.2,3.3.2,9.6,0,18.9-4.1,26.6-10.9,5.7-5.1,9.8-12.3,14.1-19,6.2,7.4,12.1,15.5,20.1,20a39.33,39.33,0,0,0,18.6,5.1,27.34,27.34,0,0,0,9.8-1.7,40.07,40.07,0,0,0,14.3-8.1,53,53,0,0,0,11.7-16c3-6.4,6.1-12.7,9.1-19.1.8,1.6,1.5,3.2,2.3,4.8,4.3,8.9,8.4,19.3,14.8,26.3,7,7.8,17,13.3,26.8,13.3h.6a39.17,39.17,0,0,0,24.8-9.1c5.6-4.6,10.1-11.2,14.8-17,3,4.5,5.8,9.4,9.1,13.7,4.8,5.8,10,10.4,16.4,13.4a33.44,33.44,0,0,0,9.6,3,37.87,37.87,0,0,0,15.8-.7,42.24,42.24,0,0,0,16.1-8.4c5-4.2,8.9-9.4,13-14.8,2.9,5.2,5.7,10.4,9.3,14.9a48.2,48.2,0,0,0,28,17l1.5.3v.4c-1.3,0-2.6.1-3.9.1a40.05,40.05,0,0,1-14-2.4,51,51,0,0,1-20.7-14.7c-8,12.4-19.7,20.9-32.5,23.9a48.75,48.75,0,0,1-10.7,1.2,49.8,49.8,0,0,1-29.6-10,38.67,38.67,0,0,1-5.5-4.5c-.7-.6-1.4-1.3-2.1-2-.5.5-.9,1-1.4,1.5a49.65,49.65,0,0,1-5.9,5.4,56.62,56.62,0,0,1-21.3,10.5,46.89,46.89,0,0,1-11.1,1.4c-16.4,0-33.2-8.8-43.9-23.5a59.8,59.8,0,0,1-27.3,20.3,45.29,45.29,0,0,1-16,2.8,48.29,48.29,0,0,1-11.5-1.4,54.58,54.58,0,0,1-20.3-9.8,51.28,51.28,0,0,1-6.1-5.4c-.5-.6-1.1-1.1-1.6-1.7-.3-.3-.3-.4-.4-.4s-.1.1-.4.4l-1.2,1.2a50.53,50.53,0,0,1-5.1,4.3c-8.3,6.2-18.7,10.4-28.7,10.4-1.3,0-2.6-.1-3.9-.2-8.1-.9-16.2-2.9-23.3-7.9a63.38,63.38,0,0,1-10.5-9l-3-3.3s-.7.7-1.2,1.1a10.63,10.63,0,0,1-1.1.9,41.87,41.87,0,0,1-5.4,4,43,43,0,0,1-12.8,5.7,43.37,43.37,0,0,1-10.7,1.2c-1.2,0-2.5,0-3.7-.1v-.3A51.46,51.46,0,0,0,24.7,283a51.63,51.63,0,0,0,8.8-5.1,71.45,71.45,0,0,0,9.4-8.9c1.9-2.1,5.6-7.2,5.6-7.2S50.9,264,51.5,264.6Z"/></svg>