<svg id="b2dc21d7-6ad6-4049-93fc-0eb9f2949edd" data-name="Calque 1" xmlns="http://www.w3.org/2000/svg" viewBox="0 0 49.82 38.95"><path d="M4.22,32.7a6.44,6.44,0,0,1,3.2-8.5,6.1,6.1,0,0,1,6,.5L10.52,28a2.2,2.2,0,0,0-1.4.1,2,2,0,0,0-1,2.8,2.08,2.08,0,0,0,4-1l3.6-2.5v.1a6.25,6.25,0,0,1-3.1,8.4A6.41,6.41,0,0,1,4.22,32.7Z" fill="#fff"/><path d="M39,17a2.09,2.09,0,0,0,2.8,1.1,2,2,0,0,0,1-2.8A2.09,2.09,0,0,0,40,14.2a2.41,2.41,0,0,0-.8.6l-.6-.3a10.53,10.53,0,0,0-.9-.8c-.5-.4-1.1-1-1.8-1.6a8.36,8.36,0,0,1,2.3-1.8,6.41,6.41,0,0,1,8.4,3.2,6.25,6.25,0,0,1-3.1,8.4,6.41,6.41,0,0,1-8.4-3.2,6.66,6.66,0,0,1-.2-4.8c1.1,1,2.1,1.9,2.4,2.2A5.56,5.56,0,0,0,39,17Z" fill="#fff"/><path d="M7.42,24.2a6.4,6.4,0,0,0,5.2,11.7,6.25,6.25,0,0,0,3.1-8.4v-.1l-3.6,2.5a2.08,2.08,0,0,1-4,1,2,2,0,0,1,1-2.8,2.2,2.2,0,0,1,1.4-.1l2.9-3.3A6.1,6.1,0,0,0,7.42,24.2Zm39.2-10.7a6.41,6.41,0,0,0-8.4-3.2,8.36,8.36,0,0,0-2.3,1.8c.7.6,1.3,1.2,1.8,1.6a10.53,10.53,0,0,1,.9.8l.6.3a2.41,2.41,0,0,1,.8-.6,2.09,2.09,0,0,1,2.8,1.1,2,2,0,0,1-1,2.8A2.09,2.09,0,0,1,39,17a5.56,5.56,0,0,1-1.7-.9c-.3-.3-1.3-1.2-2.4-2.2a6.66,6.66,0,0,0,.2,4.8,6.41,6.41,0,0,0,8.4,3.2A6.25,6.25,0,0,0,46.62,13.5Zm-6.8-6a10.45,10.45,0,0,1,2.5,0l-.1.4,1.2.3.1-.4a9.73,9.73,0,0,1,2.3,1.1l-.2.3a3.59,3.59,0,0,1,1,.7l.2-.3a10,10,0,0,1,1.6,1.9l-.3.2c.2.4.4.7.6,1.1l.3-.2a9.51,9.51,0,0,1,.7,2.4l-.4.1a4.87,4.87,0,0,1,.1,1.2h.4a10.86,10.86,0,0,1-.4,2.5l-.4-.1a4.87,4.87,0,0,1-.4,1.1l.3.2c-.2.4-.4.7-.6,1.1a3.59,3.59,0,0,1-.7,1l-.3-.3-.9.9.2.3a7.43,7.43,0,0,1-2.1,1.3l-.2-.3a3.58,3.58,0,0,1-1.1.4l.1.4a10.68,10.68,0,0,1-2.5.3v-.4a4.87,4.87,0,0,1-1.2-.1l-.1.4a7.28,7.28,0,0,1-2.4-.7l.2-.4a10.91,10.91,0,0,1-1.1-.6l-.2.3a10.46,10.46,0,0,1-1.9-1.7l.3-.2c-.2-.3-.5-.7-.7-1l-.3.2a9.43,9.43,0,0,1-1-2.3l.4-.1a5.27,5.27,0,0,1-.3-1.2l-.4.1a10.45,10.45,0,0,1,0-2.5l.4.1.3-1.2-.4-.1a5.78,5.78,0,0,1,.5-1.4c-1.3-1.1-2.5-2.3-3.9-3.6a2.34,2.34,0,0,0-.7-.7A10.49,10.49,0,0,1,26,13.4a2.18,2.18,0,0,1-.8.5,6.72,6.72,0,0,1-4.9.3l-1.9,1.1v.5l-.5,4.8,4.9-.9-1.4-3a9.65,9.65,0,0,0,4.7-.8l.6-.3,1.8,3.9a3.19,3.19,0,0,1-1.6,4.2l-1,.4-5.7.2-2.4,1.6c.1.2.2.5.3.7l-.3.1a5.64,5.64,0,0,1,.4,1.2h.3a10.68,10.68,0,0,1,.3,2.5h-.4a4.87,4.87,0,0,1-.1,1.2l.4.1a11.28,11.28,0,0,1-.8,2.4l-.3-.2c-.2.3-.4.7-.6,1l.3.2a7.72,7.72,0,0,1-1.7,1.9l-.2-.3a6.07,6.07,0,0,1-1,.7l.2.3a6.71,6.71,0,0,1-2.3,1l-.1-.4a5,5,0,0,1-1.2.2v.4a10.48,10.48,0,0,1-2.5-.1l.1-.4-1.2-.3-.1.4a9.06,9.06,0,0,1-2.2-1.1l.2-.3a8.74,8.74,0,0,1-1-.8l-.3.3-.9-.9a8.65,8.65,0,0,1-.7-1l.3-.2a4.05,4.05,0,0,1-.5-.9c0-.1-.1-.1-.1-.2l-.3.1a11.36,11.36,0,0,1-.6-2.5h.4V29.8h-.4a6.9,6.9,0,0,1,.4-2.5l.4.1a4.87,4.87,0,0,1,.4-1.1l-.3-.2A7.71,7.71,0,0,1,3.52,24l.3.3c.3-.3.6-.5.9-.8l-.2-.3a7.43,7.43,0,0,1,2.1-1.3l.2.5a3.58,3.58,0,0,1,1.1-.4l-.1-.4a10.68,10.68,0,0,1,2.5-.3v.4a4.87,4.87,0,0,1,1.2.1l.1-.4a11.28,11.28,0,0,1,2.4.8l-.2.3c.3.2.7.4,1,.6l.3-.4a.1.1,0,0,0,.1.1l.4-.5.6-5.8-2.4,1.4-6.9.5L5,17.2l-3.5,1.6a1.16,1.16,0,0,1-1.4-.6,1,1,0,0,1,.5-1.4l16-7.2L19.12,6a6.67,6.67,0,0,1,2.7-2.3L23,3.2l-.8-.8L20,3.4a1.16,1.16,0,0,1-1.4-.6,1,1,0,0,1,.5-1.4L22,.1c.4-.2.8-.1,1.4.2,0,0,2.9,2.6,5.4,5l6.1-2.8a1.16,1.16,0,0,1,1.4.6,1,1,0,0,1-.5,1.4l-5.3,2.4.2.2c1.3,1.2,2.4,2.3,3.6,3.4a9.43,9.43,0,0,1,1-1l.2.3c.3-.2.7-.5,1-.7l-.2-.3a9.43,9.43,0,0,1,2.3-1l.1.4a5.27,5.27,0,0,1,1.2-.3Z"/></svg>