<?xml version="1.0" encoding="utf-8"?>
<!-- Generator: Adobe Illustrator 24.0.0, SVG Export Plug-In . SVG Version: 6.00 Build 0)  -->
<svg version="1.1" id="Calque_1" xmlns="http://www.w3.org/2000/svg" xmlns:xlink="http://www.w3.org/1999/xlink" x="0px" y="0px"
	 viewBox="0 0 50 50" style="enable-background:new 0 0 50 50;" xml:space="preserve">
<style type="text/css">
	.st0{fill:#FFFFFF;}
</style>
<rect x="45" y="22" class="st0" width="2" height="6"/>
<rect x="3" y="22" class="st0" width="2" height="6"/>
<rect x="38" y="13" class="st0" width="2" height="24"/>
<rect x="10" y="13" class="st0" width="2" height="24"/>
<path d="M14,9c-1.1,0-2,0.9-2,2v28c0,1.1,0.9,2,2,2h2c1.1,0,2-0.9,2-2V28h14v11c0,1.1,0.9,2,2,2h2c1.1,0,2-0.9,2-2V11
	c0-1.1-0.9-2-2-2h-2c-1.1,0-2,0.9-2,2v11H18V11c0-1.1-0.9-2-2-2H14z M7,13c-1.1,0-2,0.9-2,2v20c0,1.1,0.9,2,2,2h3V13H7z M40,13v24h3
	c1.1,0,2-0.9,2-2V15c0-1.1-0.9-2-2-2H40z M1,22c-0.6,0-1,0.4-1,1v4c0,0.6,0.4,1,1,1h2v-6H1z M47,22v6h2c0.6,0,1-0.4,1-1v-4
	c0-0.6-0.4-1-1-1H47z"/>
</svg>
