<svg id="af5aa6f7-4183-484e-9051-46a598e2e12f" data-name="Calque 1" xmlns="http://www.w3.org/2000/svg" viewBox="0 0 50 32"><rect x="45" y="13" width="2" height="6" fill="#fff"/><rect x="3" y="13" width="2" height="6" fill="#fff"/><rect x="38" y="4" width="2" height="24" fill="#fff"/><rect x="10" y="4" width="2" height="24" fill="#fff"/><path d="M14,0a2,2,0,0,0-2,2V30a2,2,0,0,0,2,2h2a2,2,0,0,0,2-2V19H32V30a2,2,0,0,0,2,2h2a2,2,0,0,0,2-2V2a2,2,0,0,0-2-2H34a2,2,0,0,0-2,2V13H18V2a2,2,0,0,0-2-2ZM7,4A2,2,0,0,0,5,6V26a2,2,0,0,0,2,2h3V4ZM40,4V28h3a2,2,0,0,0,2-2V6a2,2,0,0,0-2-2ZM1,13a.94.94,0,0,0-1,1v4a.94.94,0,0,0,1,1H3V13Zm46,0v6h2a.94.94,0,0,0,1-1V14a.94.94,0,0,0-1-1Z"/></svg>