<?xml version="1.0" encoding="utf-8"?>
<!-- Generator: Adobe Illustrator 24.0.0, SVG Export Plug-In . SVG Version: 6.00 Build 0)  -->
<svg version="1.1" id="Calque_1" xmlns="http://www.w3.org/2000/svg" xmlns:xlink="http://www.w3.org/1999/xlink" x="0px" y="0px"
	 viewBox="0 0 32 32" style="enable-background:new 0 0 32 32;" xml:space="preserve">
<style type="text/css">
	.st0{fill:#FFFFFF;}
</style>
<g id="XMLID_1_">
	<g>
		<circle class="st0" cx="20" cy="7" r="1"/>
		<path d="M20,8c0.6,0,1-0.4,1-1s-0.4-1-1-1s-1,0.4-1,1S19.4,8,20,8z M20.9,21.1c0,3.8-3.1,6.9-6.9,6.9h-0.1C10.1,28,7,24.9,7,21.1
			c0-1.9,0.7-3.6,2-4.9l1.3-1.3l1.7-1.7v6l-1.6-1.6c-0.9,1-1.4,2.2-1.4,3.5c0,2.7,2.2,4.9,5,4.8h0.1c2.7,0,4.9-2.2,4.9-4.9V9.8
			c-1.2-0.4-2-1.5-2-2.8c0-1.6,1.4-3,3-3s3,1.4,2.9,3c0,1.3-0.8,2.4-2,2.8V21.1z"/>
	</g>
	<g>
	</g>
</g>
</svg>
