<svg id="a6695d49-067e-455c-8b6e-79917d53967f" data-name="Calque 1" xmlns="http://www.w3.org/2000/svg" viewBox="0 0 15.91 24"><circle cx="13" cy="3" r="1" fill="#fff"/><path d="M13,4a.94.94,0,0,0,1-1,1,1,0,0,0-2,0A.94.94,0,0,0,13,4Zm.9,13.1A6.91,6.91,0,0,1,7,24H6.9A6.91,6.91,0,0,1,0,17.1a6.8,6.8,0,0,1,2-4.9l1.3-1.3L5,9.2v6L3.4,13.6A5.18,5.18,0,0,0,2,17.1a4.79,4.79,0,0,0,5,4.8h.1A4.91,4.91,0,0,0,12,17V5.8A2.91,2.91,0,0,1,10,3a3.08,3.08,0,0,1,3-3,2.92,2.92,0,0,1,2.9,3,2.91,2.91,0,0,1-2,2.8Z"/></svg>