<?xml version="1.0" encoding="utf-8"?>
<!-- Generator: Adobe Illustrator 24.0.0, SVG Export Plug-In . SVG Version: 6.00 Build 0)  -->
<svg version="1.1" id="Calque_1" xmlns="http://www.w3.org/2000/svg" xmlns:xlink="http://www.w3.org/1999/xlink" x="0px" y="0px"
	 viewBox="0 0 540 540" style="enable-background:new 0 0 540 540;" xml:space="preserve">
<style type="text/css">
	.st0{fill:#FFFFFF;}
	.st1{fill:none;stroke:#000000;stroke-miterlimit:10;}
</style>
<g id="XMLID_1_">
	<g>
		<path class="st0" d="M61.7,346.9c-3.7,4.4-6.7,8.3-6.7,8.6l-12.6-20.6l3.7-3.2c2-1.8,5.5-4.7,7.8-6.5l4-3.3l-2.5-5.7
			c-9.5-20.9-13.7-45.4-11.5-65.7c2.5-21.9,10.8-41.6,24.7-58.1l4.3-5.2l-1.5-7.3C67,158.5,65,131.3,66.8,115
			c0.5-4.7,0.8-8.6,0.6-8.8l34.7-33.9c-5.5,5.8-9.8,20.4-12.6,42.9c-1.9,16-1.9,28.6,0,43.5c2.4,18,1.3,16.6,10.3,12.7
			c10.6-4.6,24-6.8,36.7-6.1c22.5,1.3,41.4,9.7,59.3,26.2l7,6.5l8.8-6.1c20.8-14.2,56.6-34.5,89.2-50.5
			c11.6-5.7,21.2-10.6,21.2-10.9s-1.7-4-3.9-8.3c-16.4-32.7-16.9-62.5-1.5-79.2l5.5-5.8L353,52.8c-1.8-0.6-3.3-0.8-5.5-0.8
			c-2.7,0.1-6.7,0.7-8.8,1.4c-4.9,1.8-6.4,3.1-9,8c-1.9,3.6-2.2,5.7-2.2,16.1c0,9.7,0.5,13.4,2.3,19.5c2.4,7.5,11,26,12.1,26
			c0.4,0,4.2-1.4,8.5-3c10.5-4.1,24.5-8.3,44.5-13.5l16.3-4.2l12.1,20.4c-0.5-0.2-3.3,0.1-6.3,0.8c-3,0.6-8.2,1.7-11.5,2.3
			c-9.2,1.8-49.8,14.8-52.4,16.9c-0.2,0.1,2.9,3.8,7,8c32.3,34.2,67.4,52.7,83.8,44.3c4.2-2.1,8.1-6.3,8.1-8.8l7.8,25l-6.6,3.1
			c-6,2.8-7.6,3.1-15.7,3.1c-30.6-0.3-65.6-22.6-96.6-61.4c-2.8-3.6-5.4-6.6-5.8-6.7c-0.3-0.2-7.5,2.9-15.9,6.7
			c-29.2,13.2-62.8,31.7-92.8,51.2l-12.1,7.8l4.3,8.3c5.4,10.4,8.5,18.8,11.5,30.7c2,8.3,2.3,11.9,2.3,28c0,17-0.2,19.3-2.7,28.4
			c-4.4,15.9-11.6,29.8-21.5,41.4c-2.5,3-4.1,5.7-3.6,6c0.5,0.4,5.3,4,10.7,8c23.3,17.5,54.1,33.2,78,39.8c5.6,1.5,5.7,1.6,5.7,5.2
			c0.1,2,0.7,7,1.4,10.9c1,5.9,1,7.3,0,7.3c-2.2,0-24.4-7-33.8-10.6c-24.5-9.4-53.1-26.6-73-43.6c-3.8-3.3-7.4-5.7-8-5.4
			c-18,7.9-25.4,9.6-40.7,9.6c-25.4,0-45.6-9.2-66.7-30.3l-9.8-9.8L61.7,346.9z M212,282.7c0-12.2-1-19.2-4.2-30.2
			c-2.3-7.8-9.4-23.5-10.7-23.5c-0.5,0-5.3,3.2-10.7,7.2c-12.7,9.2-24.9,18.7-40.1,31.1c-10.3,8.5-12.1,10.3-11.2,11.8
			c1.8,3.4,19.3,26.4,26.8,35.4c4.2,4.9,11.8,13.4,17,18.8l9.4,9.8l2.9-2.8c4.6-4.4,11.4-15.3,14.7-23.4
			C210.1,306.3,212,295.8,212,282.7z M184,209.5c0-0.2-3.4-3.1-7.6-6.5c-14.4-11.6-27.2-16-45.3-15.9c-5.9,0-13,0.7-16,1.5
			c-7.6,2-17.1,7.3-17.1,9.4c0,5.5,13.6,40,21.2,53.8l4,7.3l8.1-7.4c12.5-11.2,23.9-20.4,39-31.6C177.8,214.5,184,209.7,184,209.5z
			 M158.8,357.5c12.8-3,12.8-2.3,0.1-16c-12.5-13.5-28-32.4-35.4-43.2c-2.8-4-5.2-7.3-5.5-7.3s-7.8,7.7-16.8,17l-16.4,17l3,3.8
			C105.9,351.6,134.6,363.2,158.8,357.5z M106.9,272.3l-8.3-16.4c-4.5-9-10.5-22.2-13.3-29.3l-5-12.8l-2.2,3.1
			c-3.2,4.5-8.7,16.7-10.5,23.6c-2.4,8.5-3.1,26.4-1.7,36.6c1.2,7.8,5.1,22.2,7.2,26.1c0.8,1.5,3.6-0.9,17.4-14.6L106.9,272.3z"/>
		<circle class="st0" cx="407.3" cy="407.2" r="84.7"/>
		<path d="M460.6,218.7c0.3,4.2,0.4,16.9,0.1,28.2c-0.6,22.1-2.9,37.2-8.1,53.6c-1.4,4.4-2.2,8.1-1.8,8.3c0.4,0.1,4.7,2.6,9.5,5.5
			c26,15.6,43.5,38.8,51.3,68.2c1.5,5.6,1.9,10.5,1.8,24c0,15.1-0.3,18.1-2.6,26.6c-5.2,19-14,34.1-28.3,48.4
			c-14,14.1-29.7,23.2-48.4,28.3c-8.7,2.3-11.3,2.6-27.1,2.6c-15.7,0-18.5-0.3-27.2-2.7c-30.3-8.1-55.3-28.2-68.5-55.2
			c-1.6-3.3-3.2-5.4-4-5.1c-3.9,1.5-27.4,6.7-36.8,8.2c-14.9,2.3-44.1,2.3-59,0c-56.4-8.7-104-35.7-140.8-79.7
			c-5.3-6.5-15.7-21.2-15.7-22.4c0-0.3,3-4.2,6.7-8.6l6.7-8l9.8,9.8c21.1,21.1,41.3,30.3,66.7,30.3c15.3,0,22.7-1.7,40.7-9.6
			c0.6-0.3,4.2,2.1,8,5.4c19.9,17,48.5,34.2,73,43.6c9.4,3.6,31.6,10.6,33.8,10.6c1,0,1-1.4,0-7.3c-0.7-3.9-1.3-8.9-1.4-10.9
			c0-3.6-0.1-3.7-5.7-5.2c-23.9-6.6-54.7-22.3-78-39.8c-5.4-4-10.2-7.6-10.7-8c-0.5-0.3,1.1-3,3.6-6c9.9-11.6,17.1-25.5,21.5-41.4
			c2.5-9.1,2.7-11.4,2.7-28.4c0-16.1-0.3-19.7-2.3-28c-3-11.9-6.1-20.3-11.5-30.7l-4.3-8.3l12.1-7.8c30-19.5,63.6-38,92.8-51.2
			c8.4-3.8,15.6-6.9,15.9-6.7c0.4,0.1,3,3.1,5.8,6.7c31,38.8,66,61.1,96.6,61.4c8.1,0,9.7-0.3,15.7-3.1l6.6-3.1L460.6,218.7z
			 M453.7,478.8c30.8-20.1,45.5-57.8,36.3-92.9c-4.6-17.9-13.8-32.1-28.9-45.1c-7.1-6.1-23.4-14.3-33.1-16.7
			c-19-4.6-39.1-2.7-56.7,5.4c-30.7,14.2-49.7,44.3-49.5,78.5c0.1,14.5,2.4,24,9.2,37.5C353.9,491.2,411,506.7,453.7,478.8z"/>
		<path d="M423.3,122.7c1.5,0.9,12.2,20.1,16.7,30.2c4.9,11,12,30.6,12,33.3c0,2.5-3.9,6.7-8.1,8.8c-16.4,8.4-51.5-10.1-83.8-44.3
			c-4.1-4.2-7.2-7.9-7-8c2.6-2.1,43.2-15.1,52.4-16.9c3.3-0.6,8.5-1.7,11.5-2.3C420,122.8,422.8,122.5,423.3,122.7z"/>
		<path d="M402.7,92.9l8.5,9.4l-16.3,4.2c-20,5.2-34,9.4-44.5,13.5c-4.3,1.6-8.1,3-8.5,3c-1.1,0-9.7-18.5-12.1-26
			c-1.8-6.1-2.3-9.8-2.3-19.5c0-10.4,0.3-12.5,2.2-16.1c2.6-4.9,4.1-6.2,9-8c2.1-0.7,6.1-1.3,8.8-1.4c2.1,0,3.7,0.2,5.5,0.8l0,0
			c1.8,0.7,3.8,1.8,6.9,3.7C373.4,64.8,390.4,79.3,402.7,92.9z"/>
		<path d="M322.1,37.2l-5.5,5.8c-15.4,16.7-14.9,46.5,1.5,79.2c2.2,4.3,3.9,8,3.9,8.3s-9.6,5.2-21.2,10.9
			c-32.6,16-68.4,36.3-89.2,50.5l-8.8,6.1l-7-6.5c-17.9-16.5-36.8-24.9-59.3-26.2c-12.7-0.7-26.1,1.5-36.7,6.1
			c-9,3.9-7.9,5.3-10.3-12.7c-1.9-14.9-1.9-27.5,0-43.5c2.8-22.5,7.1-37.2,12.6-42.9l0.6-0.6c5.9-5.4,20.3-15.3,31.3-21.6
			c24.7-14,50.4-22.6,79.5-26.5c13.9-1.9,39.9-1.9,54.2-0.1c17.7,2.4,34.6,6.4,49.1,11.7L322.1,37.2z"/>
		<path d="M207.8,252.5c3.2,11,4.2,18,4.2,30.2c0,13.1-1.9,23.6-6.1,34.2c-3.3,8.1-10.1,19-14.7,23.4l-2.9,2.8l-9.4-9.8
			c-5.2-5.4-12.8-13.9-17-18.8c-7.5-9-25-32-26.8-35.4c-0.9-1.5,0.9-3.3,11.2-11.8c15.2-12.4,27.4-21.9,40.1-31.1
			c5.4-4,10.2-7.2,10.7-7.2C198.4,229,205.5,244.7,207.8,252.5z"/>
		<path d="M176.4,203c4.2,3.4,7.6,6.3,7.6,6.5s-6.2,5-13.7,10.6c-15.1,11.2-26.5,20.4-39,31.6l-8.1,7.4l-4-7.3
			C111.6,238,98,203.5,98,198c0-2.1,9.5-7.4,17.1-9.4c3-0.8,10.1-1.5,16-1.5C149.2,187,162,191.4,176.4,203z"/>
		<path d="M158.9,341.5c12.7,13.7,12.7,13-0.1,16c-24.2,5.7-52.9-5.9-71-28.7l-3-3.8l16.4-17c9-9.3,16.5-17,16.8-17s2.7,3.3,5.5,7.3
			C130.9,309.1,146.4,328,158.9,341.5z"/>
		<path d="M67.6,240.5c1.8-6.9,7.3-19.1,10.5-23.6l2.2-3.1l5,12.8c2.8,7.1,8.8,20.3,13.3,29.3l8.3,16.4l-16.4,16.3
			c-13.8,13.7-16.6,16.1-17.4,14.6c-2.1-3.9-6-18.3-7.2-26.1C64.5,266.9,65.2,249,67.6,240.5z"/>
		<path d="M67.4,106.2c0.2,0.2-0.1,4.1-0.6,8.8c-1.8,16.3,0.2,43.5,4.6,64.9l1.5,7.3l-4.3,5.2c-13.9,16.5-22.2,36.2-24.7,58.1
			c-2.2,20.3,2,44.8,11.5,65.7l2.5,5.7l-4,3.3c-2.3,1.8-5.8,4.7-7.8,6.5l-3.7,3.2l-4.1-9.7c-19.4-46.2-22.6-100.1-8.7-146
			c6.6-21.9,18.8-46.8,32-65.5C64.7,109.4,67.3,106,67.4,106.2z"/>
	</g>
	<g>
		<circle class="st1" cx="407.3" cy="407.2" r="84.7"/>
	</g>
</g>
</svg>
