<svg id="b4f803c4-8dce-4a7a-962d-3afb9c8aefb0" data-name="Calque 1" xmlns="http://www.w3.org/2000/svg" viewBox="0 0 492.35 490.24"><path d="M40.64,324.74c-3.7,4.4-6.7,8.3-6.7,8.6l-12.6-20.6,3.7-3.2c2-1.8,5.5-4.7,7.8-6.5l4-3.3-2.5-5.7c-9.5-20.9-13.7-45.4-11.5-65.7a107.77,107.77,0,0,1,24.7-58.1l4.3-5.2-1.5-7.3c-4.4-21.4-6.4-48.6-4.6-64.9.5-4.7.8-8.6.6-8.8L81,50.14c-5.5,5.8-9.8,20.4-12.6,42.9a166.64,166.64,0,0,0,0,43.5c2.4,18,1.3,16.6,10.3,12.7,10.6-4.6,24-6.8,36.7-6.1,22.5,1.3,41.4,9.7,59.3,26.2l7,6.5,8.8-6.1c20.8-14.2,56.6-34.5,89.2-50.5,11.6-5.7,21.2-10.6,21.2-10.9A83.3,83.3,0,0,0,297,100c-16.4-32.7-16.9-62.5-1.5-79.2L301,15l30.9,15.6a15.9,15.9,0,0,0-5.5-.8,38.6,38.6,0,0,0-8.8,1.4c-4.9,1.8-6.4,3.1-9,8-1.9,3.6-2.2,5.7-2.2,16.1,0,9.7.5,13.4,2.3,19.5,2.4,7.5,11,26,12.1,26,.4,0,4.2-1.4,8.5-3,10.5-4.1,24.5-8.3,44.5-13.5l16.3-4.2,12.1,20.4c-.5-.2-3.3.1-6.3.8s-8.2,1.7-11.5,2.3c-9.2,1.8-49.8,14.8-52.4,16.9-.2.1,2.9,3.8,7,8,32.3,34.2,67.4,52.7,83.8,44.3,4.2-2.1,8.1-6.3,8.1-8.8l7.8,25-6.6,3.1c-6,2.8-7.6,3.1-15.7,3.1-30.6-.3-65.6-22.6-96.6-61.4-2.8-3.6-5.4-6.6-5.8-6.7s-7.5,2.9-15.9,6.7c-29.2,13.2-62.8,31.7-92.8,51.2l-12.1,7.8,4.3,8.3a129.66,129.66,0,0,1,11.5,30.7c2,8.3,2.3,11.9,2.3,28,0,17-.2,19.3-2.7,28.4a106.94,106.94,0,0,1-21.5,41.4c-2.5,3-4.1,5.7-3.6,6s5.3,4,10.7,8c23.3,17.5,54.1,33.2,78,39.8,5.6,1.5,5.7,1.6,5.7,5.2.1,2,.7,7,1.4,10.9,1,5.9,1,7.3,0,7.3-2.2,0-24.4-7-33.8-10.6-24.5-9.4-53.1-26.6-73-43.6-3.8-3.3-7.4-5.7-8-5.4-18,7.9-25.4,9.6-40.7,9.6-25.4,0-45.6-9.2-66.7-30.3l-9.8-9.8Zm150.3-64.2c0-12.2-1-19.2-4.2-30.2-2.3-7.8-9.4-23.5-10.7-23.5-.5,0-5.3,3.2-10.7,7.2-12.7,9.2-24.9,18.7-40.1,31.1-10.3,8.5-12.1,10.3-11.2,11.8,1.8,3.4,19.3,26.4,26.8,35.4,4.2,4.9,11.8,13.4,17,18.8l9.4,9.8,2.9-2.8c4.6-4.4,11.4-15.3,14.7-23.4C189,284.14,190.94,273.64,190.94,260.54Zm-28-73.2a94.46,94.46,0,0,0-7.6-6.5c-14.4-11.6-27.2-16-45.3-15.9-5.9,0-13,.7-16,1.5-7.6,2-17.1,7.3-17.1,9.4,0,5.5,13.6,40,21.2,53.8l4,7.3,8.1-7.4c12.5-11.2,23.9-20.4,39-31.6C156.74,192.34,162.94,187.54,162.94,187.34Zm-25.2,148c12.8-3,12.8-2.3.1-16-12.5-13.5-28-32.4-35.4-43.2-2.8-4-5.2-7.3-5.5-7.3s-7.8,7.7-16.8,17l-16.4,17,3,3.8C84.84,329.44,113.54,341,137.74,335.34Zm-51.9-85.2-8.3-16.4c-4.5-9-10.5-22.2-13.3-29.3l-5-12.8-2.2,3.1c-3.2,4.5-8.7,16.7-10.5,23.6-2.4,8.5-3.1,26.4-1.7,36.6,1.2,7.8,5.1,22.2,7.2,26.1.8,1.5,3.6-.9,17.4-14.6Z" fill="#fff"/><circle cx="386.24" cy="385.04" r="84.7" fill="#fff"/><path d="M439.54,196.54c.3,4.2.4,16.9.1,28.2-.6,22.1-2.9,37.2-8.1,53.6-1.4,4.4-2.2,8.1-1.8,8.3s4.7,2.6,9.5,5.5c26,15.6,43.5,38.8,51.3,68.2,1.5,5.6,1.9,10.5,1.8,24,0,15.1-.3,18.1-2.6,26.6-5.2,19-14,34.1-28.3,48.4a105.21,105.21,0,0,1-48.4,28.3c-8.7,2.3-11.3,2.6-27.1,2.6s-18.5-.3-27.2-2.7c-30.3-8.1-55.3-28.2-68.5-55.2-1.6-3.3-3.2-5.4-4-5.1-3.9,1.5-27.4,6.7-36.8,8.2-14.9,2.3-44.1,2.3-59,0-56.4-8.7-104-35.7-140.8-79.7-5.3-6.5-15.7-21.2-15.7-22.4,0-.3,3-4.2,6.7-8.6l6.7-8,9.8,9.8c21.1,21.1,41.3,30.3,66.7,30.3,15.3,0,22.7-1.7,40.7-9.6.6-.3,4.2,2.1,8,5.4,19.9,17,48.5,34.2,73,43.6,9.4,3.6,31.6,10.6,33.8,10.6,1,0,1-1.4,0-7.3-.7-3.9-1.3-8.9-1.4-10.9,0-3.6-.1-3.7-5.7-5.2-23.9-6.6-54.7-22.3-78-39.8-5.4-4-10.2-7.6-10.7-8s1.1-3,3.6-6a106.94,106.94,0,0,0,21.5-41.4c2.5-9.1,2.7-11.4,2.7-28.4,0-16.1-.3-19.7-2.3-28a129.66,129.66,0,0,0-11.5-30.7l-4.3-8.3,12.1-7.8c30-19.5,63.6-38,92.8-51.2,8.4-3.8,15.6-6.9,15.9-6.7s3,3.1,5.8,6.7c31,38.8,66,61.1,96.6,61.4,8.1,0,9.7-.3,15.7-3.1l6.6-3.1Zm-6.9,260.1c30.8-20.1,45.5-57.8,36.3-92.9-4.6-17.9-13.8-32.1-28.9-45.1-7.1-6.1-23.4-14.3-33.1-16.7a87,87,0,0,0-56.7,5.4c-30.7,14.2-49.7,44.3-49.5,78.5.1,14.5,2.4,24,9.2,37.5A85,85,0,0,0,432.64,456.64Z"/><path d="M402.24,100.54c1.5.9,12.2,20.1,16.7,30.2,4.9,11,12,30.6,12,33.3,0,2.5-3.9,6.7-8.1,8.8-16.4,8.4-51.5-10.1-83.8-44.3-4.1-4.2-7.2-7.9-7-8,2.6-2.1,43.2-15.1,52.4-16.9,3.3-.6,8.5-1.7,11.5-2.3S401.74,100.34,402.24,100.54Z"/><path d="M381.64,70.74l8.5,9.4-16.3,4.2c-20,5.2-34,9.4-44.5,13.5-4.3,1.6-8.1,3-8.5,3-1.1,0-9.7-18.5-12.1-26-1.8-6.1-2.3-9.8-2.3-19.5,0-10.4.3-12.5,2.2-16.1,2.6-4.9,4.1-6.2,9-8a38.6,38.6,0,0,1,8.8-1.4,16.27,16.27,0,0,1,5.5.8h0a45,45,0,0,1,6.9,3.7C352.34,42.64,369.34,57.14,381.64,70.74Z"/><path d="M301,15l-5.5,5.8c-15.4,16.7-14.9,46.5,1.5,79.2a83.3,83.3,0,0,1,3.9,8.3c0,.3-9.6,5.2-21.2,10.9-32.6,16-68.4,36.3-89.2,50.5l-8.8,6.1-7-6.5c-17.9-16.5-36.8-24.9-59.3-26.2-12.7-.7-26.1,1.5-36.7,6.1-9,3.9-7.9,5.3-10.3-12.7a166.64,166.64,0,0,1,0-43.5c2.8-22.5,7.1-37.2,12.6-42.9l.6-.6c5.9-5.4,20.3-15.3,31.3-21.6a215.37,215.37,0,0,1,79.5-26.5c13.9-1.9,39.9-1.9,54.2-.1A238.72,238.72,0,0,1,295.74,13Z"/><path d="M186.74,230.34c3.2,11,4.2,18,4.2,30.2,0,13.1-1.9,23.6-6.1,34.2-3.3,8.1-10.1,19-14.7,23.4l-2.9,2.8-9.4-9.8c-5.2-5.4-12.8-13.9-17-18.8-7.5-9-25-32-26.8-35.4-.9-1.5.9-3.3,11.2-11.8,15.2-12.4,27.4-21.9,40.1-31.1,5.4-4,10.2-7.2,10.7-7.2C177.34,206.84,184.44,222.54,186.74,230.34Z"/><path d="M155.34,180.84a94.46,94.46,0,0,1,7.6,6.5c0,.2-6.2,5-13.7,10.6-15.1,11.2-26.5,20.4-39,31.6l-8.1,7.4-4-7.3c-7.6-13.8-21.2-48.3-21.2-53.8,0-2.1,9.5-7.4,17.1-9.4,3-.8,10.1-1.5,16-1.5C128.14,164.84,140.94,169.24,155.34,180.84Z"/><path d="M137.84,319.34c12.7,13.7,12.7,13-.1,16-24.2,5.7-52.9-5.9-71-28.7l-3-3.8,16.4-17c9-9.3,16.5-17,16.8-17s2.7,3.3,5.5,7.3C109.84,286.94,125.34,305.84,137.84,319.34Z"/><path d="M46.54,218.34c1.8-6.9,7.3-19.1,10.5-23.6l2.2-3.1,5,12.8c2.8,7.1,8.8,20.3,13.3,29.3l8.3,16.4-16.4,16.3c-13.8,13.7-16.6,16.1-17.4,14.6-2.1-3.9-6-18.3-7.2-26.1C43.44,244.74,44.14,226.84,46.54,218.34Z"/><path d="M46.34,84c.2.2-.1,4.1-.6,8.8-1.8,16.3.2,43.5,4.6,64.9l1.5,7.3-4.3,5.2a107.77,107.77,0,0,0-24.7,58.1c-2.2,20.3,2,44.8,11.5,65.7l2.5,5.7-4,3.3c-2.3,1.8-5.8,4.7-7.8,6.5l-3.7,3.2-4.1-9.7c-19.4-46.2-22.6-100.1-8.7-146a242.88,242.88,0,0,1,32-65.5C43.64,87.24,46.24,83.84,46.34,84Z"/><circle cx="386.24" cy="385.04" r="84.7" fill="none" stroke="#000" stroke-miterlimit="10"/></svg>