<?xml version="1.0" encoding="utf-8"?>
<!-- Generator: Adobe Illustrator 25.4.1, SVG Export Plug-In . SVG Version: 6.00 Build 0)  -->
<svg version="1.1" id="Calque_1" xmlns="http://www.w3.org/2000/svg" xmlns:xlink="http://www.w3.org/1999/xlink" x="0px" y="0px"
	 viewBox="0 0 26 26" style="enable-background:new 0 0 26 26;" xml:space="preserve">
<style type="text/css">
	.st0{fill:#FFFFFF;stroke:#000000;stroke-miterlimit:10;}
</style>
<path class="st0" d="M6.7,7.7c-3.2,4.6-7.1,13.6-4,15.8s14.8-1.2,18-5.8s5.4-13.4,2.2-15.6S9.9,3.1,6.7,7.7z"/>
<path d="M24.2,1.8C21.6-0.8,12.2-0.2,6,6c-6.2,6.2-6.8,15.6-4.2,18.2c2.6,2.6,12,2,18.2-4.2C26.2,13.8,26.8,4.4,24.2,1.8z M7.2,20.2
	l-3.1,3.1c-0.4-0.2-0.7-0.3-0.9-0.5c-0.2-0.2-0.4-0.5-0.5-0.9l3.1-3.1c0.4-0.4,1-0.4,1.4,0S7.6,19.8,7.2,20.2z M19,12.9L18.9,13
	c-0.4,0.4-1,0.4-1.4,0l-1.5-1.5l-1.5,1.5l1.5,1.5c0.4,0.4,0.4,1,0,1.4L15.9,16c-0.4,0.4-1,0.4-1.4,0l-1.5-1.5l-1.5,1.5l1.5,1.5
	c0.4,0.4,0.4,1,0,1.4L12.9,19c-0.4,0.4-1,0.4-1.4,0l-1.5-1.5l-0.7,0.7c-0.2,0.2-0.4,0.3-0.7,0.3S8,18.4,7.8,18.2
	c-0.4-0.4-0.4-1,0-1.4l0.7-0.7L7,14.5c-0.4-0.4-0.4-1,0-1.4L7.1,13c0.4-0.4,1-0.4,1.4,0l1.5,1.5l1.5-1.5L10,11.5
	c-0.4-0.4-0.4-1,0-1.4l0.1-0.1c0.4-0.4,1-0.4,1.4,0l1.5,1.5l1.5-1.5L13,8.5c-0.4-0.4-0.4-1,0-1.4L13.1,7c0.4-0.4,1-0.4,1.4,0
	l1.5,1.5l0.7-0.7c0.4-0.4,1-0.4,1.4,0c0.4,0.4,0.4,1,0,1.4l-0.7,0.7l1.5,1.5C19.4,11.9,19.4,12.5,19,12.9z M20.2,7.2
	c-0.2,0.2-0.5,0.3-0.7,0.3S19,7.4,18.8,7.2c-0.4-0.4-0.4-1,0-1.4l3.1-3.1c0.4,0.2,0.8,0.3,0.9,0.5c0.2,0.2,0.4,0.5,0.5,0.9L20.2,7.2
	z"/>
</svg>
