<svg id="b967cdb7-9618-4eb6-974c-61ef016c94df" data-name="Calque 1" xmlns="http://www.w3.org/2000/svg" viewBox="0 0 25.3 25.3"><path d="M6.35,7.35c-3.2,4.6-7.1,13.6-4,15.8s14.8-1.2,18-5.8,5.4-13.4,2.2-15.6S9.55,2.75,6.35,7.35Z" fill="#fff" stroke="#000" stroke-miterlimit="10"/><path d="M23.85,1.45c-2.6-2.6-12-2-18.2,4.2s-6.8,15.6-4.2,18.2,12,2,18.2-4.2S26.45,4.05,23.85,1.45Zm-17,18.4L3.75,23a3.6,3.6,0,0,1-.9-.5,1.93,1.93,0,0,1-.5-.9l3.1-3.1a1,1,0,1,1,1.4,1.4Zm11.8-7.3-.1.1a1,1,0,0,1-1.4,0l-1.5-1.5-1.5,1.5,1.5,1.5a1,1,0,0,1,0,1.4l-.1.1a1,1,0,0,1-1.4,0l-1.5-1.5-1.5,1.5,1.5,1.5a1,1,0,0,1,0,1.4l-.1.1a1,1,0,0,1-1.4,0l-1.5-1.5-.7.7a.91.91,0,0,1-.7.3,1.14,1.14,0,0,1-.8-.3,1,1,0,0,1,0-1.4l.7-.7-1.5-1.6a1,1,0,0,1,0-1.4l.1-.1a1,1,0,0,1,1.4,0l1.5,1.5,1.5-1.5-1.5-1.5a1,1,0,0,1,0-1.4l.1-.1a1,1,0,0,1,1.4,0l1.5,1.5,1.5-1.5-1.5-1.5a1,1,0,0,1,0-1.4l.1-.1a1,1,0,0,1,1.4,0l1.5,1.5.7-.7a1,1,0,0,1,1.4,1.4l-.7.7,1.5,1.5A1,1,0,0,1,18.65,12.55Zm1.2-5.7a1,1,0,0,1-1.4,0,1,1,0,0,1,0-1.4l3.1-3.1c.4.2.8.3.9.5a1.93,1.93,0,0,1,.5.9Z"/></svg>