<svg id="fa470498-2f52-4dfb-827e-236ea6eda58d" data-name="Calque 1" xmlns="http://www.w3.org/2000/svg" viewBox="0 0 25.6 25.6"><circle cx="12.8" cy="12.8" r="12.3" fill="#fff"/><path d="M12.8,0A12.8,12.8,0,1,0,25.6,12.8,12.76,12.76,0,0,0,12.8,0ZM9.5,2.5,9,3.5l3.8,1.6,3.8-1.7-.5-1a10.32,10.32,0,0,1,5.4,4l-1.1-.2L20,10.4l2.8,3.2.8-.8v.1a10.9,10.9,0,0,1-2.1,6.4l-.1-1.1-4.1.9-2.1,3.6,1,.5a12.76,12.76,0,0,1-3.4.6,9.74,9.74,0,0,1-3.4-.6l1-.5L8.3,19.1l-4.1-.9-.1,1.1A10.9,10.9,0,0,1,2,12.9v-.1l.8.8,2.8-3.2L5.1,6.3,4,6.5A11,11,0,0,1,9.5,2.5Zm3.3,6L8.3,11.8,10,17.1h5.6l1.7-5.3Z"/></svg>