<?xml version="1.0" encoding="utf-8"?>
<!-- Generator: Adobe Illustrator 25.4.1, SVG Export Plug-In . SVG Version: 6.00 Build 0)  -->
<svg version="1.1" id="Calque_1" xmlns="http://www.w3.org/2000/svg" xmlns:xlink="http://www.w3.org/1999/xlink" x="0px" y="0px"
	 viewBox="0 0 26 26" style="enable-background:new 0 0 26 26;" xml:space="preserve">
<style type="text/css">
	.st0{fill:#FFFFFF;}
</style>
<circle class="st0" cx="13" cy="13" r="12.3"/>
<path d="M13,0.2C5.9,0.2,0.2,5.9,0.2,13S5.9,25.8,13,25.8S25.8,20.1,25.8,13S20.1,0.2,13,0.2z M9.7,2.7l-0.5,1L13,5.3l3.8-1.7
	l-0.5-1c2.2,0.7,4.1,2.1,5.4,4l-1.1-0.2l-0.4,4.2l2.8,3.2l0.8-0.8c0,0,0,0,0,0.1c0,2.4-0.8,4.6-2.1,6.4l-0.1-1.1l-4.1,0.9l-2.1,3.6
	l1,0.5c-1.1,0.3-2.2,0.6-3.4,0.6s-2.3-0.2-3.4-0.6l1-0.5l-2.1-3.6l-4.1-0.9l-0.1,1.1c-1.3-1.8-2.1-4-2.1-6.4c0,0,0,0,0-0.1L3,13.8
	l2.8-3.2L5.3,6.5L4.2,6.7C5.6,4.8,7.5,3.4,9.7,2.7z M13,8.7L8.5,12l1.7,5.3h5.6l1.7-5.3L13,8.7z"/>
</svg>
