<?xml version="1.0" encoding="utf-8"?>
<!-- Generator: Adobe Illustrator 24.0.0, SVG Export Plug-In . SVG Version: 6.00 Build 0)  -->
<svg version="1.1" id="Uploaded_to_svgrepo.com" xmlns="http://www.w3.org/2000/svg" xmlns:xlink="http://www.w3.org/1999/xlink"
	 x="0px" y="0px" viewBox="0 0 32 32" style="enable-background:new 0 0 32 32;" xml:space="preserve">
<style type="text/css">
	.st0{fill:#FFFFFF;}
</style>
<g id="XMLID_1_">
	<path class="st0" d="M11,20c-1.7,0-3.2,1.1-3.7,2.6h0L6.5,22c0.7-1.8,2.5-3,4.5-3c1.2,0,2.3,0.4,3.1,1.1L24.2,10l0.5,1.1l-9.8,9.8
		c0.7,0.9,1.1,2,1.1,3.2c0,0.2,0,0.3-0.1,0.5l-1,0.4c0.1-0.3,0.1-0.7,0.1-1C15,21.8,13.2,20,11,20z"/>
	<path d="M29.5,26.6c0.4,0.4,0.6,0.9,0.6,1.5c0,0.5-0.2,1.1-0.6,1.5c-0.8,0.8-2.1,0.7-2.9-0.1l-6.7-7.2c-1.3,1.1-2.7,1.9-4,2.3
		c0.1-0.2,0.1-0.3,0.1-0.5c0-1.2-0.4-2.3-1.1-3.2l9.8-9.8c0.8,2.9,0,5.9-2.4,8.8L29.5,26.6z"/>
	<path d="M7.3,22.6c0.6-1.5,2-2.6,3.7-2.6c2.2,0,4,1.8,4,4c0,0.4-0.1,0.7-0.1,1c-0.4,1.7-2,3-3.9,3c-2.2,0-4-1.8-4-4
		C7,23.5,7.1,23,7.3,22.6z"/>
	<path d="M11,19c-2,0-3.8,1.2-4.5,3c-0.3-0.2-0.6-0.5-0.9-0.8c-5-5-6.5-11.7-1.6-16.8c2.1-2.2,4.9-3.3,7.8-3.3
		c2.3,0,4.7,0.7,6.7,2.2c2.9,2.2,4.8,4.4,5.7,6.7L14.1,20.1C13.3,19.4,12.2,19,11,19z"/>
</g>
</svg>
