<svg id="a886833b-9bfb-4684-bf58-a2f9a1e93511" data-name="Uploaded to svgrepo.com" xmlns="http://www.w3.org/2000/svg" viewBox="0 0 29.1 29.05"><path d="M10,18.9a3.91,3.91,0,0,0-3.7,2.6h0l-.8-.6a4.81,4.81,0,0,1,4.5-3A4.69,4.69,0,0,1,13.1,19L23.2,8.9l.5,1.1-9.8,9.8A5.17,5.17,0,0,1,15,23a.9.9,0,0,1-.1.5l-1,.4a3.4,3.4,0,0,0,.1-1A4,4,0,0,0,10,18.9Z" fill="#fff"/><path d="M28.5,25.5a2,2,0,0,1,.6,1.5,2.2,2.2,0,0,1-.6,1.5,2.05,2.05,0,0,1-2.9-.1l-6.7-7.2a11.77,11.77,0,0,1-4,2.3A.9.9,0,0,0,15,23a5.17,5.17,0,0,0-1.1-3.2L23.7,10c.8,2.9,0,5.9-2.4,8.8Z"/><path d="M6.3,21.5A4,4,0,0,1,14,22.9c0,.4-.1.7-.1,1a4,4,0,0,1-7.9-1A3.19,3.19,0,0,1,6.3,21.5Z"/><path d="M10,17.9a4.81,4.81,0,0,0-4.5,3,6.47,6.47,0,0,1-.9-.8C-.4,15.1-1.9,8.4,3,3.3A10.66,10.66,0,0,1,10.8,0a11.2,11.2,0,0,1,6.7,2.2c2.9,2.2,4.8,4.4,5.7,6.7L13.1,19A4.69,4.69,0,0,0,10,17.9Z"/></svg>