<?xml version="1.0" encoding="utf-8"?>
<!-- Generator: Adobe Illustrator 24.0.0, SVG Export Plug-In . SVG Version: 6.00 Build 0)  -->
<svg version="1.1" id="Capa_1" xmlns="http://www.w3.org/2000/svg" xmlns:xlink="http://www.w3.org/1999/xlink" x="0px" y="0px"
	 viewBox="0 0 40.9 40.9" style="enable-background:new 0 0 40.9 40.9;" xml:space="preserve">
<style type="text/css">
	.st0{fill:#FFFFFF;}
	.st1{fill:#010002;}
</style>
<g id="XMLID_1_">
	<g>
		<path class="st0" d="M15.8,25.1c3.6,3.6,5.8,8.1,6.2,12.2l-2,0.2c-0.5-3.6-2.4-7.6-5.6-10.8c-3.3-3.3-7.3-5.2-10.9-5.7l0.1-2.1
			C7.8,19.4,12.2,21.5,15.8,25.1z"/>
		<path class="st0" d="M26.5,14.3c3.2,3.2,7.3,5.2,10.9,5.7l-0.1,2c-4.2-0.5-8.6-2.6-12.2-6.2s-5.7-8.1-6.2-12.2l2-0.1
			C21.4,7.1,23.3,11.1,26.5,14.3z"/>
		<path class="st1" d="M32.4,8.5c3.2,3.2,4.9,7.3,5,11.5c-3.6-0.5-7.7-2.5-10.9-5.7s-5.1-7.2-5.6-10.8C25.1,3.7,29.2,5.3,32.4,8.5z"
			/>
		<path class="st1" d="M32.4,32.4c-2.9,2.9-6.6,4.5-10.4,4.9c-0.4-4.1-2.6-8.6-6.2-12.2s-8-5.7-12.2-6.2c0.4-3.8,2-7.5,4.9-10.4
			S15.1,4,18.9,3.6c0.5,4.1,2.6,8.6,6.2,12.2s8,5.7,12.2,6.2C36.9,25.8,35.3,29.5,32.4,32.4z"/>
		<path class="st1" d="M14.4,26.7c3.2,3.2,5.1,7.2,5.6,10.8c-4.2-0.2-8.3-1.8-11.5-5s-4.9-7.3-5-11.5C7.1,21.5,11.1,23.4,14.4,26.7z
			"/>
	</g>
	<g>
	</g>
</g>
</svg>
