<svg id="ae6882c0-ef1e-4738-8ffc-1122720b66ff" data-name="Capa 1" xmlns="http://www.w3.org/2000/svg" viewBox="0 0 33.9 34"><path d="M12.3,21.6a20.79,20.79,0,0,1,6.2,12.2l-2,.2a19.54,19.54,0,0,0-5.6-10.8A19.67,19.67,0,0,0,0,17.5l.1-2.1A21.09,21.09,0,0,1,12.3,21.6Z" fill="#fff"/><path d="M23,10.8a20,20,0,0,0,10.9,5.7l-.1,2a21.09,21.09,0,0,1-12.2-6.2A21.38,21.38,0,0,1,15.4.1l2-.1A19.54,19.54,0,0,0,23,10.8Z" fill="#fff"/><path d="M28.9,5a16.77,16.77,0,0,1,5,11.5A20,20,0,0,1,23,10.8,19.54,19.54,0,0,1,17.4,0,17.23,17.23,0,0,1,28.9,5Z" fill="#010002"/><path d="M28.9,28.9a17.15,17.15,0,0,1-10.4,4.9,20.79,20.79,0,0,0-6.2-12.2A21.09,21.09,0,0,0,.1,15.4,17,17,0,0,1,15.4.1a21.38,21.38,0,0,0,6.2,12.2,21.09,21.09,0,0,0,12.2,6.2A17.15,17.15,0,0,1,28.9,28.9Z" fill="#010002"/><path d="M10.9,23.2A19.54,19.54,0,0,1,16.5,34,17.23,17.23,0,0,1,5,29,16.77,16.77,0,0,1,0,17.5,19.67,19.67,0,0,1,10.9,23.2Z" fill="#010002"/></svg>