<?xml version="1.0" encoding="utf-8"?>
<!-- Generator: Adobe Illustrator 24.0.0, SVG Export Plug-In . SVG Version: 6.00 Build 0)  -->
<svg version="1.1" id="Calque_1" xmlns="http://www.w3.org/2000/svg" xmlns:xlink="http://www.w3.org/1999/xlink" x="0px" y="0px"
	 viewBox="0 0 50 50" style="enable-background:new 0 0 50 50;" xml:space="preserve">
<style type="text/css">
	.st0{fill:#FFFFFF;}
</style>
<g id="XMLID_1_">
	<g>
		<path class="st0" d="M9,25c0-8.8,7.2-16,16-16c3.3,0,6.4,1,9,2.8l2-2V8V7.2l0.6-0.6L38.2,5l1.6,1.2L38,8v2.6L24.4,24.2
			C24.2,24.4,24,24.7,24,25c0,0.6,0.4,1,1,1c0.3,0,0.6-0.2,0.8-0.4L39.4,12H42l1.8-1.8l1.2,1.6l-1.6,1.6L42.8,14H42h-1.8l-2,2
			c1.7,2.6,2.8,5.7,2.8,9c0,8.8-7.2,16-16,16S9,33.8,9,25z M16,25c0,5,4,9,9,9s9-4,9-9c0-1.4-0.3-2.7-0.9-3.9l-6,6
			C26.6,27.7,25.8,28,25,28c-1.7,0-3-1.3-3-3c0-0.8,0.3-1.6,0.9-2.1l6-6C27.7,16.3,26.4,16,25,16C20,16,16,20,16,25z"/>
		<path d="M25.8,25.6C25.6,25.8,25.3,26,25,26c-0.6,0-1-0.4-1-1c0-0.3,0.2-0.6,0.4-0.8L38,10.6V8l1.8-1.8L43,3v4h4l-3.2,3.2L42,12
			h-2.6L25.8,25.6z"/>
		<path d="M34,25c0,5-4,9-9,9s-9-4-9-9s4-9,9-9c1.4,0,2.7,0.3,3.9,0.9l-6,6C22.3,23.4,22,24.2,22,25c0,1.7,1.3,3,3,3
			c0.8,0,1.6-0.3,2.1-0.9l6-6C33.7,22.3,34,23.6,34,25z"/>
		<path d="M25,9C16.2,9,9,16.2,9,25s7.2,16,16,16s16-7.2,16-16c0-3.3-1.1-6.4-2.8-9l2-2H42h0.8l0.6-0.6l1.6-1.6
			c2.5,3.8,4,8.3,4,13.2c0,13.3-10.7,24-24,24S1,38.3,1,25S11.7,1,25,1c4.9,0,9.4,1.5,13.2,4l-1.6,1.6L36,7.2V8v1.8l-2,2
			C31.4,10,28.3,9,25,9z"/>
	</g>
	<g>
	</g>
</g>
</svg>
