<svg id="bc5db02a-dbaf-40b8-96fa-af6bcf9fce53" data-name="Calque 1" xmlns="http://www.w3.org/2000/svg" viewBox="0 0 48 48"><path d="M8,24A16,16,0,0,1,24,8a15.73,15.73,0,0,1,9,2.8l2-2V6.2l.6-.6L37.2,4l1.6,1.2L37,7V9.6L23.4,23.2a1.23,1.23,0,0,0-.4.8.94.94,0,0,0,1,1,1.23,1.23,0,0,0,.8-.4L38.4,11H41l1.8-1.8L44,10.8l-1.6,1.6-.6.6H39.2l-2,2A16.51,16.51,0,0,1,40,24,16,16,0,0,1,8,24Zm7,0a9,9,0,0,0,18,0,8.6,8.6,0,0,0-.9-3.9l-6,6A2.72,2.72,0,0,1,24,27a3,3,0,0,1-3-3,2.72,2.72,0,0,1,.9-2.1l6-6A8.6,8.6,0,0,0,24,15,9,9,0,0,0,15,24Z" fill="#fff"/><path d="M24.8,24.6a1.23,1.23,0,0,1-.8.4.94.94,0,0,1-1-1,1.23,1.23,0,0,1,.4-.8L37,9.6V7l1.8-1.8L42,2V6h4L42.8,9.2,41,11H38.4Z"/><path d="M33,24a9,9,0,1,1-9-9,8.6,8.6,0,0,1,3.9.9l-6,6A2.72,2.72,0,0,0,21,24a3,3,0,0,0,3,3,2.72,2.72,0,0,0,2.1-.9l6-6A8.6,8.6,0,0,1,33,24Z"/><path d="M24,8A16,16,0,1,0,40,24a16.51,16.51,0,0,0-2.8-9l2-2h2.6l.6-.6L44,10.8A24.1,24.1,0,1,1,37.2,4L35.6,5.6l-.6.6V8.8l-2,2A15.73,15.73,0,0,0,24,8Z"/></svg>