<svg xmlns="http://www.w3.org/2000/svg" viewBox="0 0 525.82499 526.14519"><defs><style>.a{fill:#fff;}.b{stroke:#000;stroke-miterlimit:10;stroke-width:15px;}</style></defs><title>sal_bv</title><path class="a" d="M221.425,435.82022l-6.2,8c-7.8,10.1-24.4,27-36.1,36.8l-8.9,7.4-6.1-3.3c-42.6-23.4-78.7-61.6-100.7-106.6a235.25488,235.25488,0,0,1-22.4-71.5c-1.7-10.7-3.3-47-2.1-47,.3,0,2.6,4.2,5,9.4,21.1,45.2,54.8,88,93.7,119.2,23.5,18.8,53.7,36.4,77.6,45.3Z" transform="translate(-19.50002 -8.49998)"/><path class="a" d="M260.725,355.22021c.7.5-3.2,12.6-8.1,24.6-5.7,14.3-21.3,43.6-24.1,45.3-3.1,1.9-41.6-17-61.5-30.3-53.6-35.7-95.4-87.5-121.1-150.2l-4.4-10.8,1.5-7.6a243.26274,243.26274,0,0,1,21.1-62.4c4.2-8.5,7.8-15.1,8.1-14.8s2.3,7.2,4.4,15.3c20.8,80.7,69.5,143.1,136.6,175,11.9,5.7,34.4,13.5,42.3,14.8A36.01431,36.01431,0,0,1,260.725,355.22021Z" transform="translate(-19.50002 -8.49998)"/><path class="a" d="M273.725,283.12021l-.6,9.5c-1.1,16.1-6.5,47.9-8.6,50.3-1.8,2.1-29-6.9-47.2-15.6-69.6-33.1-117.2-98.7-133.8-184.4l-1.9-9.8,7-9.2c13.3-17.5,40.4-44.1,41.9-41.2a26.02134,26.02134,0,0,1,1.4,6.4c1.4,10.1,6.9,30.4,12.1,44.8,9.6,26.2,25.1,53.6,43.5,76.7,20.3,25.5,55.4,55.7,80.9,69.6Z" transform="translate(-19.50002 -8.49998)"/><path class="a" d="M355.525,268.72021c4.9,87.5-20.1,173.2-67.7,232.4-12.3,15.4-10.8,14.5-23.7,13.5a241.43961,241.43961,0,0,1-52.1-9.7c-7.8-2.2-28.2-9.8-29.4-10.9-.3-.2,1.5-2.1,4-4.1,8.8-7.4,29.2-28,36.4-36.8,35.7-43.8,57.4-100.2,62.1-161.3l.7-9.4,9.9-7.6a274.55283,274.55283,0,0,1,43.7-27.5l13.6-7,.7,3.9C354.125,246.32021,354.925,257.4202,355.525,268.72021Z" transform="translate(-19.50002 -8.49998)"/><path class="a" d="M523.125,231.62019c4.7,25.9,4.3,58.7-1.1,86.4-13,67.2-54.8,126.7-114,162.3-12.5,7.5-19.3,11-17.9,9.2.6-.8,4.3-5.9,8.1-11.4,35.9-50.8,57.2-103.8,66.5-165,2-13.2,2.2-18.7,2.2-46,0-22.8-.4-33.4-1.6-40.3l-1.5-9.2h5.6c3,0,11.2.7,18.1,1.5,6.9.9,17.5,2.6,23.5,3.8l11,2.2Z" transform="translate(-19.50002 -8.49998)"/><path class="a" d="M452.325,225.32021c4.2,27.6,4.1,55.6-.3,87.3-8.6,62.3-36,124.6-78.1,177.1l-9.2,11.5-10.4,3.2a266.40042,266.40042,0,0,1-57.5,10.5,25.46953,25.46953,0,0,1-4.3,0c0-.1,3.3-4.4,7.3-9.5,43.9-56.4,67.7-132.1,67.9-216.3,0-19.4-1.4-47.1-2.8-51.6-.3-1.3,1.8-2.4,9.8-5.2,22.3-7.8,51.8-13.7,72.4-14.5l4.1-.2Z" transform="translate(-19.50002 -8.49998)"/><path class="a" d="M518.525,211.22021c0,.6-3,.4-8.6-.7-48-9.7-101-4.5-150.4,14.8-24,9.4-56.6,28.1-74.7,42.8l-5.5,4.6-5.7-3.2c-15.8-8.8-36.2-24.3-51.9-39.4l-9.4-9,3.3-2.8c1.9-1.5,9.3-6.8,16.4-11.6,46.9-31.8,99.8-53.4,152-62,24.1-4,50.1-5.1,72.5-3,14.6,1.3,33.9,4.6,35.6,6,1.9,1.6,14.9,28.2,18.5,37.9C513.825,194.52019,518.425,209.32021,518.525,211.22021Z" transform="translate(-19.50002 -8.49998)"/><path class="a" d="M454.125,99.0202c14.4,14.5,29.5,32.7,27.5,33.4-.7.2-4-.1-7.4-.7-29-5-72.9-3.4-106.7,3.9-49.9,10.7-99.8,32.3-143,61.8-6.9,4.7-14.2,9.9-16.4,11.6l-3.8,3.1-3.5-4c-10.7-12.1-25.4-34.2-33.8-50.9l-4-7.8,5-4.5c9.1-8.2,34.4-24.2,52-32.8a331.72866,331.72866,0,0,1,118.5-32.9c9.1-.7,65.7.2,72.5,1.3,3.9.6,12,1.8,18,2.7l11,1.7Z" transform="translate(-19.50002 -8.49998)"/><path class="a" d="M391.525,53.6202c11.3,5.6,28.5,16,26.5,16-.5,0-7.1-.7-14.5-1.5-27.8-3-67.4-1.6-96.9,3.5-52.8,9-103.6,31-143.1,61.7l-5.4,4.2-1.3-3.1c-6.8-16.2-17.1-59.6-14.6-61.8,3-2.7,17.7-11.7,27.3-16.8,42.5-22.5,91.7-32,138.6-26.7C338.625,32.5202,364.625,40.1202,391.525,53.6202Z" transform="translate(-19.50002 -8.49998)"/><path class="b" d="M530.025,206.72021c6.3,24,7.8,37.1,7.8,64.9s-1.5,40.9-7.8,64.9c-4.8,18-9.2,29.7-18,47.6-13.2,26.9-26.9,46-48.9,68.1-22.1,22-41.2,35.7-68.1,48.9a252.37211,252.37211,0,0,1-74.5,23.7c-19.5,3.1-56.5,3.1-76,0a252.37245,252.37245,0,0,1-74.5-23.7c-26.9-13.2-46-26.9-68.1-48.9-22-22.1-35.7-41.2-48.9-68.1a252.37233,252.37233,0,0,1-23.7-74.5c-3.1-19.5-3.1-56.5,0-76,2.6-15.9,7.9-36.5,12.8-49.9,4.4-12,16.7-37.2,23-47.1,14.6-23,39.9-51.2,59.4-66.2,40-30.8,85.6-49,135-53.8,14-1.4,46.8-.3,61.5,2a248.53493,248.53493,0,0,1,74,23.5c26.9,13.2,46,26.9,68.1,48.9,22,22.1,35.7,41.2,48.9,68.1C520.825,177.02019,525.225,188.72021,530.025,206.72021Zm-8,111.3c5.4-27.7,5.8-60.5,1.1-86.4l-1.1-6.5-11-2.2c-6-1.2-16.6-2.9-23.5-3.8-6.9-.8-15.1-1.5-18.1-1.5h-5.6l1.5,9.2c1.2,6.9,1.6,17.5,1.6,40.3,0,27.3-.2,32.8-2.2,46-9.3,61.2-30.6,114.2-66.5,165-3.8,5.5-7.5,10.6-8.1,11.4-1.4,1.8,5.4-1.7,17.9-9.2,59.2-35.6,101-95.1,114-162.3Zm-12.1-107.5c5.6,1.1,8.6,1.3,8.6.7-.1-1.9-4.7-16.7-7.9-25.6-3.6-9.7-16.6-36.3-18.5-37.9-1.7-1.4-21-4.7-35.6-6-22.4-2.1-48.4-1-72.5,3-52.2,8.6-105.1,30.2-152,62-7.1,4.8-14.5,10.1-16.4,11.6l-3.3,2.8,9.4,9c15.7,15.1,36.1,30.6,51.9,39.4l5.7,3.2,5.5-4.6c18.1-14.7,50.7-33.4,74.7-42.8,49.4-19.3,102.4-24.5,150.4-14.8Zm-28.3-78.1c2-.7-13.1-18.9-27.5-33.4l-14.1-14.1-11-1.7c-6-.9-14.1-2.1-18-2.7-6.8-1.1-63.4-2-72.5-1.3a331.72866,331.72866,0,0,0-118.5,32.9c-17.6,8.6-42.9,24.6-52,32.8l-5,4.5,4,7.8c8.4,16.7,23.1,38.8,33.8,50.9l3.5,4,3.8-3.1c2.2-1.7,9.5-6.9,16.4-11.6,43.2-29.5,93.1-51.1,143-61.8,33.8-7.3,77.7-8.9,106.7-3.9,3.4.6,6.7.9,7.4.7Zm-29.6,180.2c4.4-31.7,4.5-59.7.3-87.3l-1.1-7.7-4.1.2c-20.6.8-50.1,6.7-72.4,14.5-8,2.8-10.1,3.9-9.8,5.2,1.4,4.5,2.8,32.2,2.8,51.6-.2,84.2-24,159.9-67.9,216.3-4,5.1-7.3,9.4-7.3,9.5a25.46953,25.46953,0,0,0,4.3,0,266.40042,266.40042,0,0,0,57.5-10.5l10.4-3.2,9.2-11.5c42.1-52.5,69.5-114.8,78.1-177.1Zm-34-243c2,0-15.2-10.4-26.5-16-26.9-13.5-52.9-21.1-83.4-24.5-46.9-5.3-96.1,4.2-138.6,26.7-9.6,5.1-24.3,14.1-27.3,16.8-2.5,2.2,7.8,45.6,14.6,61.8l1.3,3.1,5.4-4.2c39.5-30.7,90.3-52.7,143.1-61.7,29.5-5.1,69.1-6.5,96.9-3.5,7.4.8,14,1.5,14.5,1.5Zm-130.2,431.5c47.6-59.2,72.6-144.9,67.7-232.4-.6-11.3-1.4-22.4-1.8-24.5l-.7-3.9-13.6,7a274.55238,274.55238,0,0,0-43.7,27.5l-9.9,7.6-.7,9.4c-4.7,61.1-26.4,117.5-62.1,161.3-7.2,8.8-27.6,29.4-36.4,36.8-2.5,2-4.3,3.9-4,4.1,1.2,1.1,21.6,8.7,29.4,10.9a241.44345,241.44345,0,0,0,52.1,9.7C277.025,515.62021,275.525,516.5202,287.825,501.12021Zm-14.7-208.5.6-9.5-5.3-2.9c-25.5-13.9-60.6-44.1-80.9-69.6-18.4-23.1-33.9-50.5-43.5-76.7-5.2-14.4-10.7-34.7-12.1-44.8a26.02134,26.02134,0,0,0-1.4-6.4c-1.5-2.9-28.6,23.7-41.9,41.2l-7,9.2,1.9,9.8c16.6,85.7,64.2,151.3,133.8,184.4,18.2,8.7,45.4,17.7,47.2,15.6C266.625,340.5202,272.025,308.72021,273.125,292.62021Zm-20.5,87.2c4.9-12,8.8-24.1,8.1-24.6a36.01833,36.01833,0,0,0-5.2-1.1c-7.9-1.3-30.4-9.1-42.3-14.8-67.1-31.9-115.8-94.3-136.6-175-2.1-8.1-4.1-15-4.4-15.3s-3.9,6.3-8.1,14.8a243.26274,243.26274,0,0,0-21.1,62.4l-1.5,7.6,4.4,10.8c25.7,62.7,67.5,114.5,121.1,150.2,19.9,13.3,58.4,32.2,61.5,30.3,2.8-1.7,18.4-31,24.1-45.3Zm-37.4,64,6.2-8-6.2-2.3c-23.9-8.9-54.1-26.5-77.6-45.3-38.9-31.2-72.6-74-93.7-119.2-2.4-5.2-4.7-9.4-5-9.4-1.2,0,.4,36.3,2.1,47a235.25433,235.25433,0,0,0,22.4,71.5c22,45,58.1,83.2,100.7,106.6l6.1,3.3,8.9-7.4c11.7-9.8,28.3-26.70007,36.1-36.8Z" transform="translate(-19.50002 -8.49998)"/></svg>